<svg width="56" height="56" viewBox="0 0 56 56" fill="none" xmlns="http://www.w3.org/2000/svg"><rect width="56" height="56" rx="12" fill="#F9FAFB"></rect><path d="M21.5998 20.0002V15.7331C21.5994 15.3953 21.4922 15.0662 21.2936 14.7929C21.095 14.5196 20.815 14.316 20.4938 14.2114C20.3858 13.5927 20.0633 13.0318 19.5828 12.6274C19.1023 12.2229 18.4947 12.0008 17.8667 12H15.7331C15.1052 12.001 14.4977 12.2232 14.0174 12.6276C13.5371 13.032 13.2146 13.5928 13.1067 14.2114C12.7854 14.3159 12.5053 14.5194 12.3065 14.7927C12.1077 15.066 12.0004 15.3952 12 15.7331V19.9995C12.0003 20.3302 12.103 20.6528 12.2939 20.9229C12.4849 21.193 12.7547 21.3974 13.0664 21.508V39.1998C13.0664 40.1898 13.4597 41.1394 14.1598 41.8395C14.8599 42.5396 15.8095 42.9329 16.7995 42.9329C17.7896 42.9329 18.7392 42.5396 19.4393 41.8395C20.1394 41.1394 20.5327 40.1898 20.5327 39.1998V21.508C20.8444 21.3974 21.1142 21.193 21.3052 20.9229C21.4961 20.6528 21.5995 20.3309 21.5998 20.0002ZM15.7331 13.0664H17.8667C18.1974 13.0667 18.52 13.1694 18.7901 13.3603C19.0602 13.5513 19.2646 13.8211 19.3752 14.1328H14.2246C14.3352 13.8211 14.5396 13.5513 14.8097 13.3603C15.0798 13.1694 15.4024 13.0667 15.7331 13.0664ZM14.1342 25.3329H17.3321V35.9998H14.1342V25.3329ZM16.7968 41.8665C16.0897 41.8657 15.4119 41.5846 14.9119 41.0846C14.412 40.5847 14.1308 39.9068 14.13 39.1998V37.0662H17.8632C18.0046 37.0662 18.1402 37.0101 18.2402 36.9101C18.3402 36.8101 18.3964 36.6744 18.3964 36.533V24.7997C18.3964 24.6583 18.3402 24.5227 18.2402 24.4227C18.1402 24.3227 18.0046 24.2665 17.8632 24.2665H14.13V21.5998H19.4663V39.1998C19.4655 39.9073 19.184 40.5856 18.6834 41.0856C18.1829 41.5856 17.5043 41.8665 16.7968 41.8665ZM20.5299 20.0002C20.5297 20.1415 20.4735 20.2771 20.3735 20.377C20.2736 20.477 20.1381 20.5332 19.9967 20.5334H13.5989C13.4576 20.5332 13.322 20.477 13.2221 20.377C13.1221 20.2771 13.0659 20.1415 13.0657 20.0002V15.7331C13.0655 15.663 13.0792 15.5934 13.1059 15.5286C13.1326 15.4637 13.1718 15.4047 13.2214 15.355C13.2709 15.3052 13.3297 15.2658 13.3945 15.2388C13.4593 15.2119 13.5288 15.1979 13.5989 15.1978H14.1321V18.3957H15.1978V15.1978H16.2643V18.3957H17.3307V15.1978H18.3971V18.3957H19.4663V15.1978H19.9995C20.1408 15.198 20.2764 15.2543 20.3763 15.3542C20.4763 15.4542 20.5325 15.5897 20.5327 15.7311L20.5299 20.0002Z" fill="black"></path><path d="M40.2669 28.5398C40.8259 28.5297 41.3587 28.3005 41.7505 27.9016C42.1423 27.5026 42.3619 26.9658 42.3619 26.4066C42.3619 25.8475 42.1423 25.3106 41.7505 24.9117C41.3587 24.5127 40.8259 24.2836 40.2669 24.2735H28.1088L30.715 21.296C31.0296 20.9389 31.2036 20.4796 31.2044 20.0038C31.2053 19.5279 31.0331 19.0679 30.7199 18.7097C30.4066 18.3515 29.9738 18.1194 29.5021 18.0567C29.0303 17.9941 28.5519 18.1052 28.1561 18.3693L23.9711 21.1639C23.9417 21.1843 23.9144 21.2076 23.8897 21.2334L21.8772 23.246L21.5122 23.3065L21.6874 24.3583L22.2206 24.2693C22.3301 24.2511 22.4313 24.1991 22.5098 24.1205L24.6058 22.0239L28.747 19.2584C28.9279 19.1398 29.1456 19.0908 29.3599 19.1204C29.5742 19.15 29.7705 19.2562 29.9124 19.4194C30.0544 19.5826 30.1325 19.7917 30.1322 20.008C30.1318 20.2243 30.0532 20.4332 29.9107 20.5959L26.5307 24.4584C26.494 24.4998 26.464 24.5467 26.4418 24.5974L25.8919 25.88C25.6217 26.5118 25.1719 27.0503 24.5983 27.4287C24.0247 27.807 23.3526 28.0084 22.6655 28.008V29.0744C23.5615 29.0751 24.4379 28.8124 25.1859 28.3192C25.9339 27.8259 26.5205 27.1237 26.8728 26.2999L27.2836 25.3413H40.2655C40.5484 25.3413 40.8197 25.4537 41.0198 25.6537C41.2198 25.8538 41.3322 26.1251 41.3322 26.408C41.3322 26.691 41.2198 26.9623 41.0198 27.1623C40.8197 27.3624 40.5484 27.4748 40.2655 27.4748H29.6C29.1937 27.4744 28.7957 27.5902 28.4531 27.8085C28.1104 28.0267 27.8372 28.3384 27.6658 28.7067C27.4943 29.0751 27.4317 29.4847 27.4853 29.8875C27.5389 30.2902 27.7065 30.6692 27.9684 30.9799C27.6811 31.1522 27.4385 31.3899 27.2603 31.6735C27.082 31.9572 26.9732 32.2788 26.9426 32.6124C26.912 32.946 26.9605 33.2821 27.0841 33.5935C27.2077 33.9048 27.403 34.1827 27.6541 34.4044C27.2851 34.7297 27.0402 35.1729 26.9611 35.6585C26.8821 36.144 26.9737 36.642 27.2204 37.0676H25.1807C24.0213 37.066 22.8764 36.8094 21.8271 36.3161L21.3718 37.281C22.5633 37.8411 23.8634 38.1323 25.18 38.134H32.7992C33.2323 38.1343 33.6552 38.0027 34.0116 37.7567C34.3681 37.5107 34.6411 37.162 34.7945 36.757C34.9479 36.352 34.9743 35.9098 34.8702 35.4895C34.7661 35.0691 34.5364 34.6903 34.2118 34.4037C34.5984 34.0624 34.8479 33.5923 34.914 33.0808C34.9801 32.5694 34.8583 32.0513 34.5712 31.623C34.8675 31.5195 35.1372 31.352 35.3612 31.1322C35.5851 30.9125 35.7578 30.646 35.8669 30.3518C35.9759 30.0576 36.0186 29.7429 35.992 29.4303C35.9654 29.1177 35.87 28.8148 35.7127 28.5433L40.2669 28.5398ZM33.867 35.9998C33.8666 36.2825 33.7542 36.5536 33.5543 36.7535C33.3543 36.9534 33.0833 37.0659 32.8006 37.0662H29.0675C28.7935 37.0641 28.5309 36.9566 28.334 36.766C28.1372 36.5754 28.0212 36.3164 28.0103 36.0427C27.9993 35.7689 28.094 35.5014 28.275 35.2957C28.4559 35.0899 28.709 34.9617 28.9819 34.9376C29.0104 34.9376 32.8583 34.9376 32.8868 34.9376C33.1535 34.9597 33.4021 35.0811 33.5835 35.2779C33.7649 35.4746 33.8665 35.7322 33.867 35.9998ZM28.9813 33.8684C28.7083 33.8443 28.4552 33.7161 28.2743 33.5103C28.0934 33.3046 27.9986 33.0371 28.0096 32.7633C28.0206 32.4896 28.1365 32.2305 28.3333 32.04C28.5302 31.8494 28.7928 31.7419 29.0668 31.7397H32.7999C33.0739 31.7419 33.3365 31.8494 33.5333 32.04C33.7302 32.2305 33.8461 32.4896 33.8571 32.7633C33.8681 33.0371 33.7733 33.3046 33.5924 33.5103C33.4115 33.7161 33.1583 33.8443 32.8854 33.8684C32.8569 33.867 29.0098 33.867 28.9813 33.8684ZM34.9334 29.6062C34.9331 29.8889 34.8206 30.16 34.6207 30.3599C34.4207 30.5598 34.1497 30.6723 33.867 30.6726H29.6007C29.3177 30.6726 29.0464 30.5602 28.8463 30.3602C28.6463 30.1601 28.5339 29.8888 28.5339 29.6059C28.5339 29.323 28.6463 29.0516 28.8463 28.8516C29.0464 28.6515 29.3177 28.5391 29.6007 28.5391H33.867C34.1498 28.5395 34.421 28.6521 34.6209 28.8521C34.8208 29.0522 34.9332 29.3234 34.9334 29.6062Z" fill="black"></path><path d="M39.1998 22.1399H31.7335V23.2064H39.1998V22.1399Z" fill="black"></path><path d="M40.6075 30.2569C40.5117 30.1771 40.3909 30.1333 40.2662 30.1333C40.1414 30.1333 40.0207 30.1771 39.9248 30.2569C39.7858 30.3723 36.533 33.1169 36.533 35.9998C36.533 36.9899 36.9264 37.9395 37.6264 38.6396C38.3265 39.3397 39.2761 39.733 40.2662 39.733C41.2563 39.733 42.2058 39.3397 42.9059 38.6396C43.606 37.9395 43.9993 36.9899 43.9993 35.9998C44 33.1169 40.7465 30.3723 40.6075 30.2569ZM40.2662 38.6686C39.5591 38.6679 38.8813 38.3867 38.3813 37.8867C37.8814 37.3868 37.6002 36.709 37.5994 36.0019C37.5994 34.1096 39.4764 32.1325 40.2669 31.3873C40.6895 31.7873 41.0843 32.2156 41.4487 32.6692C42.283 33.5956 42.8021 34.7626 42.9315 36.0026C42.93 36.7089 42.6487 37.3859 42.1491 37.8852C41.6496 38.3845 40.9725 38.6654 40.2662 38.6665V38.6686Z" fill="black"></path></svg>