<svg width="25" height="24" viewBox="0 0 25 24" fill="none" xmlns="http://www.w3.org/2000/svg"><path d="M15.0657 21.2553H20V21.2554H20.25C20.4489 21.2554 20.6397 21.3344 20.7803 21.475C20.921 21.6157 21 21.8065 21 22.0054C21 22.2043 20.921 22.3951 20.7803 22.5357C20.6397 22.6764 20.4489 22.7554 20.25 22.7554H4.25C4.05109 22.7554 3.86032 22.6764 3.71967 22.5357C3.57902 22.3951 3.5 22.2043 3.5 22.0054C3.5 21.8065 3.57902 21.6157 3.71967 21.475C3.86032 21.3344 4.05109 21.2554 4.25 21.2554H9.43433H9.79007L9.66955 20.9207C9.61311 20.7639 9.57126 20.6023 9.54456 20.4379L9.52056 20.2902L9.37905 20.2416C7.98919 19.7638 6.74566 18.9365 5.7681 17.8391L5.69353 17.7553H5.58142H4.25C4.05109 17.7553 3.86032 17.6763 3.71967 17.5357C3.57902 17.395 3.5 17.2043 3.5 17.0053C3.5 16.8064 3.57902 16.6157 3.71967 16.475C3.86032 16.3344 4.05109 16.2553 4.25 16.2553H8.25H8.25007C8.34855 16.2553 8.44608 16.2747 8.53708 16.3124C8.62808 16.3501 8.71076 16.4053 8.78041 16.4749C8.85005 16.5446 8.90529 16.6273 8.94297 16.7183C8.98056 16.809 8.99993 16.9063 9 17.0046C8.99893 17.1616 8.94783 17.3142 8.85412 17.4402C8.76026 17.5664 8.62858 17.6594 8.47823 17.7055L7.94996 17.8677L8.42052 18.1574C8.78879 18.3841 9.17709 18.5766 9.58053 18.7324L9.78056 18.8097L9.88737 18.6237C10.1234 18.2128 10.4625 17.8705 10.8712 17.6305C11.2799 17.3906 11.7441 17.2614 12.218 17.2556C12.6919 17.2497 13.1591 17.3675 13.5735 17.5973C13.988 17.8271 14.3354 18.161 14.5815 18.566L14.6986 18.7587L14.9024 18.6621C15.9736 18.1537 16.8795 17.3532 17.516 16.3527C18.1524 15.3523 18.4935 14.1924 18.5 13.0067L18.5 13.0057C18.5021 11.4626 17.9293 9.97413 16.8932 8.83063L16.7168 8.63594L16.5311 8.82176L12.2217 13.1338C12.2217 13.1338 12.2217 13.1338 12.2217 13.1338C12.152 13.2035 12.0694 13.2587 11.9784 13.2964C11.8874 13.3341 11.7899 13.3535 11.6915 13.3535C11.593 13.3535 11.4955 13.3341 11.4045 13.2964C11.3135 13.2587 11.2309 13.2035 11.1612 13.1338L11.1612 13.1338L11.1592 13.1318L10.9824 12.955L10.8056 13.1318L9.39158 14.5459L9.39154 14.5459C9.32192 14.6156 9.23927 14.6708 9.14829 14.7085C9.05732 14.7462 8.95981 14.7656 8.86133 14.7656C8.76285 14.7656 8.66534 14.7462 8.57437 14.7085C8.48339 14.6708 8.40074 14.6156 8.33112 14.5459L8.33104 14.5458L6.20897 12.4247L6.20896 12.4247C6.13931 12.3551 6.08406 12.2724 6.04636 12.1815C6.00866 12.0905 5.98926 11.993 5.98926 11.8945C5.98926 11.796 6.00866 11.6985 6.04636 11.6075C6.08406 11.5166 6.13931 11.4339 6.20896 11.3643L6.20899 11.3643L7.62494 9.94862L7.8018 9.7718L7.62491 9.595C7.55527 9.5254 7.50002 9.44275 7.46233 9.35178C7.42464 9.26082 7.40524 9.16332 7.40525 9.06485C7.40525 8.96639 7.42466 8.86889 7.46235 8.77793C7.50005 8.68697 7.55531 8.60433 7.62495 8.53473L7.62502 8.53466L13.9873 2.17187L13.9875 2.17165C14.0697 2.08933 14.1699 2.02733 14.2802 1.99058L14.2803 1.99055L16.4014 1.28303L16.4015 1.28299C16.5336 1.23885 16.6754 1.23242 16.8109 1.26443C16.9464 1.29644 17.0704 1.36562 17.1688 1.46419L17.1689 1.46437L19.291 3.5859C19.291 3.58592 19.291 3.58594 19.291 3.58595C19.3895 3.68445 19.4585 3.80841 19.4905 3.94395C19.5224 4.07952 19.516 4.2213 19.4719 4.35341L19.4718 4.35347L18.7638 6.47554L18.7636 6.47614C18.7272 6.58628 18.6654 6.68634 18.5833 6.76825L18.5829 6.76856L17.9457 7.40614L17.7753 7.57663L17.9395 7.75313C19.2663 9.17961 20.0027 11.0562 20 13.0044C19.9894 14.5501 19.5195 16.0579 18.6498 17.3358C17.78 18.614 16.5497 19.6046 15.1154 20.1817L14.9804 20.236L14.961 20.3802C14.936 20.5648 14.8922 20.7463 14.83 20.922L14.7121 21.2553H15.0657ZM8.68468 12.7784L8.86145 12.955L9.03811 12.7783L9.74511 12.0713L9.92182 11.8946L9.74517 11.7178L9.03817 11.0103L8.86145 10.8335L8.68461 11.0102L7.97661 11.7177L7.79959 11.8946L7.97668 12.0714L8.68468 12.7784ZM17.3555 5.87494L17.3972 5.83323L17.4159 5.7773L17.8534 4.46535L17.9022 4.31879L17.793 4.20952L16.546 2.96196L16.4367 2.85264L16.29 2.90155L14.9785 3.33905L14.9225 3.35772L14.8808 3.39944L9.39256 8.88821L9.21587 9.0649L9.39248 9.24167L11.5146 11.3657L11.6914 11.5427L11.8682 11.3657L17.3555 5.87494ZM12.25 21.2553H12.2502C12.5816 21.255 12.8993 21.1232 13.1336 20.8889C13.3679 20.6546 13.4997 20.3369 13.5 20.0056V20.0053C13.5 19.7581 13.4267 19.5164 13.2893 19.3109C13.152 19.1053 12.9568 18.9451 12.7284 18.8505C12.4999 18.7559 12.2486 18.7311 12.0061 18.7794C11.7637 18.8276 11.5409 18.9466 11.3661 19.1215C11.1913 19.2963 11.0723 19.519 11.024 19.7615C10.9758 20.004 11.0005 20.2553 11.0952 20.4837C11.1898 20.7121 11.35 20.9073 11.5555 21.0447C11.7611 21.182 12.0028 21.2553 12.25 21.2553Z" fill="#666666" stroke="white" stroke-width="0.5"></path></svg>