<svg width="25" height="24" viewBox="0 0 25 24" fill="none" xmlns="http://www.w3.org/2000/svg"><path fill-rule="evenodd" clip-rule="evenodd" d="M10.47 6.24551H8.77874C9.24955 4.67603 10.7483 3.5 12.5362 3.5C13.162 3.5 13.7525 3.64412 14.2759 3.89907L13.3737 4.78054C13.357 4.79285 13.3408 4.80593 13.3249 4.8198C13.2877 4.85241 13.2544 4.88788 13.2252 4.92561L12.8585 5.28386C12.2245 5.89438 11.3633 6.24551 10.47 6.24551ZM13.8392 6.42096C12.933 7.26452 11.725 7.74551 10.47 7.74551H8.62494V7.8299C8.62494 9.90433 10.369 11.6329 12.5362 11.6329C14.6954 11.6329 16.4475 9.90223 16.4475 7.83984V7.30302C16.4475 7.27463 16.4472 7.24631 16.4465 7.21805H16.2309C15.3624 7.21805 14.5206 6.93395 13.8392 6.42096ZM16.0865 5.71385C15.9303 5.38663 15.7275 5.08372 15.4862 4.81364L14.9338 5.35339C15.2768 5.56344 15.6734 5.68983 16.0865 5.71385ZM12.5362 2C9.57507 2 7.12494 4.36608 7.12494 7.29308V7.8299C7.12494 10.7658 9.57399 13.1329 12.5362 13.1329C15.4861 13.1329 17.9475 10.7679 17.9475 7.83984V7.30302C17.9475 4.36714 15.4984 2 12.5362 2ZM10.2567 13.442C6.56249 13.442 3.50195 16.3949 3.50195 20.0573C3.50195 21.1441 4.40403 22.0002 5.47325 22.0002H19.5283C19.9694 22.0002 20.4733 21.897 20.8772 21.5518C21.3016 21.1889 21.4977 20.6609 21.4996 20.0596C21.5112 16.3949 18.4487 13.442 14.7551 13.442H10.2567ZM5.00195 20.0573C5.00195 17.7728 6.5696 15.8103 8.72284 15.1656V15.9241C7.75023 16.2338 7.03349 17.1295 7.03349 18.2087C7.03349 19.2961 7.76125 20.1973 8.74523 20.5002H5.47325C5.19904 20.5002 5.00195 20.2826 5.00195 20.0573ZM10.2228 15.9241V14.9421L10.2567 14.942H14.7551C14.7834 14.942 14.8117 14.9422 14.8399 14.9427V15.8379C13.8983 15.9725 13.15 16.7712 13.15 17.7612V18.9743C13.15 19.3057 13.2897 19.6155 13.5184 19.8389L14.0578 20.3659C14.1147 20.4216 14.1783 20.4663 14.2459 20.5002H10.2007C11.1846 20.1973 11.9124 19.2961 11.9124 18.2087C11.9124 17.1294 11.1956 16.2336 10.2228 15.9241ZM15.5602 17.3179C15.57 17.3183 15.5799 17.3185 15.5899 17.3185C15.5998 17.3185 15.6097 17.3183 15.6196 17.3179H16.0475C16.3215 17.3179 16.5188 17.5355 16.5188 17.7612V18.8574L16.0729 19.293C15.7767 19.5825 15.7711 20.0573 16.0606 20.3536C16.1205 20.4149 16.1884 20.4638 16.261 20.5002H14.918C14.9906 20.4638 15.0585 20.4149 15.1184 20.3536C15.4079 20.0573 15.4023 19.5825 15.1061 19.293L14.65 18.8475V17.7612C14.65 17.5355 14.8473 17.3179 15.1213 17.3179H15.5602ZM16.3399 15.8395V15.1812C18.4664 15.8412 20.0068 17.7904 19.9996 20.0549C19.9988 20.3281 19.9201 20.3965 19.9025 20.4116C19.8643 20.4442 19.759 20.5002 19.5283 20.5002H16.9331C17.0007 20.4663 17.0642 20.4216 17.1212 20.3659L17.6606 19.8389C17.9073 19.5979 18.0188 19.2901 18.0188 18.9843V17.7612C18.0188 16.7751 17.2763 15.9787 16.3399 15.8395ZM9.47284 17.3185C9.44056 17.3185 9.40874 17.3165 9.37753 17.3125C8.89028 17.3589 8.53349 17.7566 8.53349 18.2087C8.53349 18.6897 8.93757 19.1093 9.47295 19.1093C10.0083 19.1093 10.4124 18.6897 10.4124 18.2087C10.4124 17.7566 10.0556 17.3588 9.56824 17.3125C9.537 17.3165 9.50516 17.3185 9.47284 17.3185Z" fill="#666666"></path><path d="M8.77874 6.24551L8.53928 6.17367C8.51657 6.24937 8.53099 6.33134 8.57816 6.39474C8.62534 6.45814 8.69971 6.49551 8.77874 6.49551V6.24551ZM14.2759 3.89907L14.4506 4.07788C14.5088 4.02105 14.5357 3.93946 14.5227 3.85917C14.5097 3.77888 14.4585 3.70992 14.3854 3.67431L14.2759 3.89907ZM13.3737 4.78054L13.5223 4.98158C13.5315 4.97478 13.5402 4.96736 13.5484 4.95936L13.3737 4.78054ZM13.3249 4.8198L13.4896 5.00793V5.00793L13.3249 4.8198ZM13.2252 4.92561L13.3999 5.10443C13.4082 5.09638 13.4158 5.08777 13.4229 5.07866L13.2252 4.92561ZM12.8585 5.28386L13.0319 5.46396L13.0332 5.46268L12.8585 5.28386ZM13.8392 6.42096L13.9896 6.22124C13.8927 6.14834 13.7576 6.1554 13.6688 6.23797L13.8392 6.42096ZM8.62494 7.74551V7.49551C8.48687 7.49551 8.37494 7.60743 8.37494 7.74551H8.62494ZM16.4465 7.21805L16.6965 7.2123C16.6933 7.0765 16.5823 6.96805 16.4465 6.96805V7.21805ZM16.0865 5.71385L16.072 5.96343C16.1602 5.96856 16.2447 5.92669 16.294 5.8533C16.3433 5.77991 16.3502 5.68593 16.3121 5.60614L16.0865 5.71385ZM15.4862 4.81364L15.6727 4.6471C15.6272 4.5962 15.5629 4.56611 15.4947 4.56379C15.4265 4.56147 15.3603 4.58714 15.3115 4.63483L15.4862 4.81364ZM14.9338 5.35339L14.7591 5.17457C14.7039 5.22845 14.6767 5.30476 14.6853 5.38138C14.694 5.45799 14.7375 5.52634 14.8032 5.5666L14.9338 5.35339ZM20.8772 21.5518L21.0396 21.7418V21.7418L20.8772 21.5518ZM21.4996 20.0596L21.7496 20.0604L21.4996 20.0596ZM8.72284 15.1656H8.97284C8.97284 15.0866 8.9355 15.0123 8.87213 14.9651C8.80876 14.9179 8.72683 14.9035 8.65114 14.9261L8.72284 15.1656ZM8.72284 15.9241L8.79868 16.1623C8.90241 16.1293 8.97284 16.033 8.97284 15.9241H8.72284ZM8.74523 20.5002V20.7502C8.86894 20.7502 8.97404 20.6597 8.99245 20.5374C9.01085 20.4151 8.93702 20.2977 8.81879 20.2613L8.74523 20.5002ZM10.2228 14.9421L10.2221 14.6921C10.0843 14.6925 9.97284 14.8044 9.97284 14.9421H10.2228ZM10.2228 15.9241H9.97284C9.97284 16.0329 10.0433 16.1293 10.147 16.1623L10.2228 15.9241ZM10.2567 14.942V14.692L10.2559 14.692L10.2567 14.942ZM14.8399 14.9427H15.0899C15.0899 14.8061 14.9803 14.6948 14.8438 14.6927L14.8399 14.9427ZM14.8399 15.8379L14.8752 16.0854C14.9984 16.0678 15.0899 15.9623 15.0899 15.8379H14.8399ZM13.5184 19.8389L13.6931 19.6601V19.6601L13.5184 19.8389ZM14.0578 20.3659L14.2325 20.1871H14.2325L14.0578 20.3659ZM14.2459 20.5002V20.7502C14.3618 20.7502 14.4625 20.6705 14.4891 20.5578C14.5158 20.445 14.4615 20.3287 14.3579 20.2767L14.2459 20.5002ZM10.2007 20.5002L10.1271 20.2613C10.0089 20.2977 9.93504 20.4151 9.95344 20.5374C9.97185 20.6597 10.077 20.7502 10.2007 20.7502V20.5002ZM15.5602 17.3179L15.5699 17.0679H15.5602V17.3179ZM15.6196 17.3179V17.0678L15.6099 17.0681L15.6196 17.3179ZM16.5188 18.8574L16.6935 19.0362C16.7416 18.9892 16.7688 18.9247 16.7688 18.8574H16.5188ZM16.0729 19.293L16.2476 19.4718L16.0729 19.293ZM16.0606 20.3536L16.2394 20.1789L16.2394 20.1789L16.0606 20.3536ZM16.261 20.5002V20.7502C16.3769 20.7502 16.4776 20.6705 16.5043 20.5577C16.531 20.445 16.4766 20.3286 16.373 20.2767L16.261 20.5002ZM14.918 20.5002L14.806 20.2767C14.7024 20.3286 14.648 20.445 14.6747 20.5577C14.7014 20.6705 14.8021 20.7502 14.918 20.7502V20.5002ZM15.1184 20.3536L14.9396 20.1789L14.9396 20.1789L15.1184 20.3536ZM15.1061 19.293L14.9313 19.4718L15.1061 19.293ZM14.65 18.8475H14.4C14.4 18.9148 14.4272 18.9793 14.4753 19.0263L14.65 18.8475ZM16.3399 15.1812L16.414 14.9424C16.3381 14.9188 16.2556 14.9328 16.1916 14.9799C16.1276 15.027 16.0899 15.1017 16.0899 15.1812H16.3399ZM16.3399 15.8395H16.0899C16.0899 15.9634 16.1806 16.0686 16.3031 16.0868L16.3399 15.8395ZM19.9996 20.0549L19.7496 20.0541L19.9996 20.0549ZM19.9025 20.4116L19.7401 20.2215L19.7401 20.2215L19.9025 20.4116ZM16.9331 20.5002L16.8211 20.2767C16.7175 20.3287 16.6632 20.445 16.6898 20.5578C16.7165 20.6705 16.8172 20.7502 16.9331 20.7502V20.5002ZM17.1212 20.3659L16.9465 20.1871H16.9465L17.1212 20.3659ZM17.6606 19.8389L17.4859 19.6601L17.6606 19.8389ZM9.37753 17.3125L9.40899 17.0645C9.3907 17.0622 9.37221 17.0619 9.35386 17.0636L9.37753 17.3125ZM9.56824 17.3125L9.59189 17.0636C9.57354 17.0619 9.55505 17.0622 9.53676 17.0645L9.56824 17.3125ZM8.77874 6.49551H10.47V5.99551H8.77874V6.49551ZM12.5362 3.25C10.6373 3.25 9.04166 4.49897 8.53928 6.17367L9.01819 6.31734C9.45744 4.85309 10.8592 3.75 12.5362 3.75V3.25ZM14.3854 3.67431C13.8286 3.40311 13.2007 3.25 12.5362 3.25V3.75C13.1232 3.75 13.6764 3.88513 14.1664 4.12382L14.3854 3.67431ZM13.5484 4.95936L14.4506 4.07788L14.1012 3.72025L13.199 4.60173L13.5484 4.95936ZM13.4896 5.00793C13.5002 4.99859 13.5112 4.98981 13.5223 4.98158L13.2251 4.57951C13.2029 4.59588 13.1813 4.61327 13.1603 4.63167L13.4896 5.00793ZM13.4229 5.07866C13.4423 5.05359 13.4645 5.02988 13.4896 5.00793L13.1603 4.63167C13.1108 4.67494 13.0665 4.72217 13.0275 4.77257L13.4229 5.07866ZM13.0332 5.46268L13.3999 5.10443L13.0505 4.74679L12.6838 5.10504L13.0332 5.46268ZM10.47 6.49551C11.4282 6.49551 12.3514 6.11915 13.0319 5.46395L12.6851 5.10377C12.0975 5.66961 11.2984 5.99551 10.47 5.99551V6.49551ZM13.6688 6.23797C12.8087 7.03869 11.6615 7.49551 10.47 7.49551V7.99551C11.7886 7.99551 13.0573 7.49036 14.0095 6.60395L13.6688 6.23797ZM10.47 7.49551H8.62494V7.99551H10.47V7.49551ZM8.37494 7.74551V7.8299H8.87494V7.74551H8.37494ZM8.37494 7.8299C8.37494 10.0476 10.2362 11.8829 12.5362 11.8829V11.3829C10.5018 11.3829 8.87494 9.76108 8.87494 7.8299H8.37494ZM12.5362 11.8829C14.8276 11.8829 16.6975 10.0461 16.6975 7.83984H16.1975C16.1975 9.75831 14.5633 11.3829 12.5362 11.3829V11.8829ZM16.6975 7.83984V7.30302H16.1975V7.83984H16.6975ZM16.6975 7.30302C16.6975 7.27272 16.6971 7.24247 16.6965 7.2123L16.1966 7.2238C16.1972 7.25014 16.1975 7.27655 16.1975 7.30302H16.6975ZM16.4465 6.96805H16.2309V7.46805H16.4465V6.96805ZM16.2309 6.96805C15.4167 6.96805 14.6276 6.7016 13.9896 6.22124L13.6888 6.62069C14.4136 7.1663 15.3082 7.46805 16.2309 7.46805V6.96805ZM16.3121 5.60614C16.1455 5.25715 15.9294 4.93449 15.6727 4.6471L15.2998 4.98019C15.5255 5.23294 15.7151 5.51611 15.8609 5.82156L16.3121 5.60614ZM15.3115 4.63483L14.7591 5.17457L15.1085 5.53221L15.6609 4.99246L15.3115 4.63483ZM14.8032 5.5666C15.1812 5.798 15.6176 5.93701 16.072 5.96343L16.101 5.46427C15.7293 5.44266 15.3725 5.32887 15.0643 5.14018L14.8032 5.5666ZM7.37494 7.29308C7.37494 4.51026 9.70696 2.25 12.5362 2.25V1.75C9.44318 1.75 6.87494 4.22191 6.87494 7.29308H7.37494ZM7.37494 7.8299V7.29308H6.87494V7.8299H7.37494ZM12.5362 12.8829C9.70626 12.8829 7.37494 10.622 7.37494 7.8299H6.87494C6.87494 10.9096 9.44173 13.3829 12.5362 13.3829V12.8829ZM17.6975 7.83984C17.6975 10.6234 15.3546 12.8829 12.5362 12.8829V13.3829C15.6176 13.3829 18.1975 10.9124 18.1975 7.83984H17.6975ZM17.6975 7.30302V7.83984H18.1975V7.30302H17.6975ZM12.5362 2.25C15.3662 2.25 17.6975 4.51094 17.6975 7.30302H18.1975C18.1975 4.22333 15.6307 1.75 12.5362 1.75V2.25ZM3.75195 20.0573C3.75195 16.5389 6.69451 13.692 10.2567 13.692V13.192C6.43047 13.192 3.25195 16.2508 3.25195 20.0573H3.75195ZM5.47325 21.7502C4.53589 21.7502 3.75195 20.9999 3.75195 20.0573H3.25195C3.25195 21.2883 4.27218 22.2502 5.47325 22.2502V21.7502ZM19.5283 21.7502H5.47325V22.2502H19.5283V21.7502ZM20.7147 21.3617C20.372 21.6547 19.9346 21.7502 19.5283 21.7502V22.2502C20.0042 22.2502 20.5747 22.1392 21.0396 21.7418L20.7147 21.3617ZM21.2496 20.0588C21.2479 20.6059 21.071 21.0571 20.7147 21.3617L21.0396 21.7418C21.5322 21.3207 21.7476 20.7158 21.7496 20.0604L21.2496 20.0588ZM14.7551 13.692C18.3169 13.692 21.2607 16.5389 21.2496 20.0588L21.7496 20.0604C21.7616 16.2508 18.5806 13.192 14.7551 13.192V13.692ZM10.2567 13.692H14.7551V13.192H10.2567V13.692ZM8.65114 14.9261C6.39902 15.6004 4.75195 17.6553 4.75195 20.0573H5.25195C5.25195 17.8903 6.74018 16.0202 8.79454 15.4051L8.65114 14.9261ZM8.97284 15.9241V15.1656H8.47284V15.9241H8.97284ZM7.28349 18.2087C7.28349 17.245 7.92327 16.441 8.79868 16.1623L8.64701 15.6859C7.57719 16.0265 6.78349 17.014 6.78349 18.2087H7.28349ZM8.81879 20.2613C7.93313 19.9886 7.28349 19.1796 7.28349 18.2087H6.78349C6.78349 19.4125 7.58937 20.4059 8.67167 20.7391L8.81879 20.2613ZM5.47325 20.7502H8.74523V20.2502H5.47325V20.7502ZM4.75195 20.0573C4.75195 20.4235 5.06378 20.7502 5.47325 20.7502V20.2502C5.3343 20.2502 5.25195 20.1418 5.25195 20.0573H4.75195ZM9.97284 14.9421V15.9241H10.4728V14.9421H9.97284ZM10.2559 14.692L10.2221 14.6921L10.2236 15.1921L10.2574 15.192L10.2559 14.692ZM14.7551 14.692H10.2567V15.192H14.7551V14.692ZM14.8438 14.6927C14.8143 14.6922 14.7847 14.692 14.7551 14.692V15.192C14.7821 15.192 14.8091 15.1922 14.836 15.1926L14.8438 14.6927ZM15.0899 15.8379V14.9427H14.5899V15.8379H15.0899ZM13.4 17.7612C13.4 16.9026 14.0498 16.2033 14.8752 16.0854L14.8045 15.5904C13.7468 15.7416 12.9 16.6398 12.9 17.7612H13.4ZM13.4 18.9743V17.7612H12.9V18.9743H13.4ZM13.6931 19.6601C13.51 19.4812 13.4 19.2349 13.4 18.9743H12.9C12.9 19.3765 13.0694 19.7498 13.3437 20.0177L13.6931 19.6601ZM14.2325 20.1871L13.6931 19.6601L13.3437 20.0177L13.8831 20.5448L14.2325 20.1871ZM14.3579 20.2767C14.3131 20.2543 14.2708 20.2245 14.2325 20.1871L13.8831 20.5448C13.9587 20.6186 14.0435 20.6784 14.1338 20.7237L14.3579 20.2767ZM10.2007 20.7502H14.2459V20.2502H10.2007V20.7502ZM11.6624 18.2087C11.6624 19.1796 11.0128 19.9886 10.1271 20.2613L10.2742 20.7391C11.3565 20.4059 12.1624 19.4125 12.1624 18.2087H11.6624ZM10.147 16.1623C11.0225 16.4409 11.6624 17.245 11.6624 18.2087H12.1624C12.1624 17.0139 11.3686 16.0263 10.2987 15.6858L10.147 16.1623ZM15.5899 17.0685C15.5832 17.0685 15.5765 17.0684 15.5699 17.0681L15.5504 17.5678C15.5635 17.5683 15.5767 17.5685 15.5899 17.5685V17.0685ZM15.6099 17.0681C15.6032 17.0684 15.5966 17.0685 15.5899 17.0685V17.5685C15.6031 17.5685 15.6162 17.5683 15.6293 17.5678L15.6099 17.0681ZM16.0475 17.0679H15.6196V17.5679H16.0475V17.0679ZM16.7688 17.7612C16.7688 17.3946 16.4568 17.0679 16.0475 17.0679V17.5679C16.1862 17.5679 16.2688 17.6763 16.2688 17.7612H16.7688ZM16.7688 18.8574V17.7612H16.2688V18.8574H16.7688ZM16.2476 19.4718L16.6935 19.0362L16.3441 18.6786L15.8982 19.1142L16.2476 19.4718ZM16.2394 20.1789C16.0464 19.9814 16.0501 19.6648 16.2476 19.4718L15.8982 19.1142C15.5032 19.5002 15.4958 20.1333 15.8818 20.5283L16.2394 20.1789ZM16.373 20.2767C16.3249 20.2526 16.2797 20.2201 16.2394 20.1789L15.8818 20.5283C15.9614 20.6098 16.0519 20.6751 16.149 20.7237L16.373 20.2767ZM14.918 20.7502H16.261V20.2502H14.918V20.7502ZM14.9396 20.1789C14.8993 20.2201 14.8541 20.2526 14.806 20.2767L15.03 20.7237C15.1271 20.6751 15.2176 20.6098 15.2972 20.5283L14.9396 20.1789ZM14.9313 19.4718C15.1289 19.6648 15.1325 19.9814 14.9396 20.1789L15.2972 20.5283C15.6832 20.1333 15.6758 19.5002 15.2808 19.1142L14.9313 19.4718ZM14.4753 19.0263L14.9313 19.4718L15.2808 19.1142L14.8247 18.6687L14.4753 19.0263ZM14.4 17.7612V18.8475H14.9V17.7612H14.4ZM15.1213 17.0679C14.712 17.0679 14.4 17.3946 14.4 17.7612H14.9C14.9 17.6763 14.9826 17.5679 15.1213 17.5679V17.0679ZM15.5602 17.0679H15.1213V17.5679H15.5602V17.0679ZM16.0899 15.1812V15.8395H16.5899V15.1812H16.0899ZM20.2496 20.0557C20.2571 17.674 18.6382 15.6328 16.414 14.9424L16.2658 15.4199C18.2946 16.0497 19.7564 17.9067 19.7496 20.0541L20.2496 20.0557ZM20.0649 20.6016C20.0958 20.5752 20.1478 20.5238 20.1884 20.4256C20.226 20.3346 20.2491 20.2151 20.2496 20.0557L19.7496 20.0541C19.7493 20.168 19.7326 20.2193 19.7263 20.2345C19.7234 20.2416 19.7228 20.2408 19.727 20.2353C19.729 20.2327 19.7316 20.2297 19.7348 20.2265C19.738 20.2233 19.7408 20.2209 19.7401 20.2215L20.0649 20.6016ZM19.5283 20.7502C19.7952 20.7502 19.9665 20.6858 20.065 20.6016L19.7401 20.2215C19.7622 20.2026 19.7227 20.2502 19.5283 20.2502V20.7502ZM16.9331 20.7502H19.5283V20.2502H16.9331V20.7502ZM16.9465 20.1871C16.9082 20.2245 16.8659 20.2543 16.8211 20.2767L17.0452 20.7237C17.1355 20.6784 17.2203 20.6186 17.2959 20.5448L16.9465 20.1871ZM17.4859 19.6601L16.9465 20.1871L17.2959 20.5448L17.8353 20.0177L17.4859 19.6601ZM17.7688 18.9843C17.7688 19.2281 17.6808 19.4697 17.4859 19.6601L17.8353 20.0177C18.1339 19.726 18.2688 19.352 18.2688 18.9843H17.7688ZM17.7688 17.7612V18.9843H18.2688V17.7612H17.7688ZM16.3031 16.0868C17.1241 16.2088 17.7688 16.906 17.7688 17.7612H18.2688C18.2688 16.6442 17.4285 15.7485 16.3766 15.5922L16.3031 16.0868ZM9.34608 17.5605C9.3877 17.5658 9.43001 17.5685 9.47284 17.5685V17.0685C9.4511 17.0685 9.42979 17.0671 9.40899 17.0645L9.34608 17.5605ZM8.78349 18.2087C8.78349 17.89 9.0377 17.596 9.40121 17.5614L9.35386 17.0636C8.74286 17.1217 8.28349 17.6232 8.28349 18.2087H8.78349ZM9.47295 18.8593C9.0715 18.8593 8.78349 18.5476 8.78349 18.2087H8.28349C8.28349 18.8319 8.80365 19.3593 9.47295 19.3593V18.8593ZM10.1624 18.2087C10.1624 18.5476 9.87439 18.8593 9.47295 18.8593V19.3593C10.1422 19.3593 10.6624 18.8319 10.6624 18.2087H10.1624ZM9.5446 17.5614C9.90815 17.5959 10.1624 17.89 10.1624 18.2087H10.6624C10.6624 17.6231 10.203 17.1217 9.59189 17.0636L9.5446 17.5614ZM9.47284 17.5685C9.51571 17.5685 9.55807 17.5658 9.59973 17.5605L9.53676 17.0645C9.51594 17.0671 9.49461 17.0685 9.47284 17.0685V17.5685Z" fill="white"></path></svg>