<svg width="24" height="24" viewBox="0 0 24 24" fill="none" xmlns="http://www.w3.org/2000/svg"><path d="M20 20.25H20.25V20V9.13205V8.9905L20.1286 8.91768L12.1286 4.11768L12 4.0405L11.8714 4.11768L3.87138 8.91768L3.75 8.9905V9.13205V20V20.25H4H8H8.25V20V17.2501C8.25 16.2555 8.64509 15.3017 9.34835 14.5984C10.0516 13.8951 11.0054 13.5001 12 13.5001C12.9946 13.5001 13.9484 13.8951 14.6517 14.5984C15.3549 15.3017 15.75 16.2555 15.75 17.2501V20V20.25H16H20ZM14.25 21.75V17.2501C14.25 16.6533 14.0129 16.081 13.591 15.6591C13.169 15.2371 12.5967 15.0001 12 15.0001C11.4033 15.0001 10.831 15.2371 10.409 15.6591C9.98705 16.081 9.75 16.6533 9.75 17.2501V21.75H4C3.53587 21.75 3.09075 21.5657 2.76256 21.2375C2.43437 20.9093 2.25 20.4642 2.25 20V9.13205C2.25 8.82985 2.32825 8.5328 2.47714 8.26982C2.62604 8.00684 2.84049 7.78691 3.09963 7.63142L11.0996 2.83142C11.3716 2.66823 11.6828 2.58203 12 2.58203C12.3172 2.58203 12.6284 2.66823 12.9004 2.83142L20.9004 7.63142C21.1595 7.78691 21.374 8.00684 21.5229 8.26982C21.6717 8.5328 21.75 8.82985 21.75 9.13205V20C21.75 20.4642 21.5656 20.9093 21.2374 21.2375C20.9092 21.5657 20.4641 21.75 20 21.75H14.25Z" fill="#8c8c8c" stroke="white" stroke-width="0.5"></path></svg>