<svg width="267" height="194" viewBox="0 0 267 194" fill="none" xmlns="http://www.w3.org/2000/svg"><g fill="#BADEFF"><path d="M255.543 171.64c.185-.087.185.086-.259.395l-.432.074.704-.469zm-2.642 2.521c-.568.309-1.247.618-1.037.223.617-.223.691-.383 1.37-.618.445-.309.704-.631.593-.631.185-.074.642-.544.95-.63-.456.556-1.16 1.112-1.987 1.57-.136.16.049.086.111.086m-48.855 19.159.333-.049a2 2 0 0 1-.333.049m-32.754-2.373c.246.062.345.111.345.124-.222-.062-.407-.124-.345-.124m-5.469-1.372c.123.025.222.062.321.086a1.4 1.4 0 0 1-.321-.086m38.224 3.745-.877.136c-.061-.062.445-.086.877-.136m42.594-15.364c.16-.099.296-.161.42-.223l-.383.235h-.037zm-28.224 13.127.259-.074c.087 0 .161 0 .235.024zm10.681-3.276c-.235.087-.383-.049-.494-.086q.24.037.555-.074c.013.024 0 .074-.061.148zm15.803-7.948.284-.135a6 6 0 0 1-.284.135m-34.322 12.83s-.05.062-.088.075c0-.025.038-.05.088-.075M1.79 12.93h-.037c.013-.063.025-.088.038 0M.506.062v.173S.432.272.407.272l.1-.223zm155.6 185.928s.024 0 .037.013c.234.136.099.062-.037-.013m-55.126-72.94c.37 1.014-.148-1.742.333-.197-.099-.136.025 1.483-.333.197m145.439 65.079-.383.247a3 3 0 0 1 .383-.247M101.325 112.84l.05.161a1 1 0 0 1-.05-.161m34.632 60.444s.148.049.235.098c-.012 0-.074 0-.235-.098m14.865 9.666-.395-.186c.16.074.284.136.395.186m-21.594-15.97c-.185-.161-.271-.186-.469-.445.025.012.05.037.087.061.061.112.173.211.395.384zm-6.481-7.058s.099.074.136.111c.061.074.123.161.185.235l-.333-.346zM5.605 41.458a1.5 1.5 0 0 0-.272-.384c.16.112-.148-1.248.272.384m241.086 136.584c-.074 0-.148.025-.272.099.087-.061.185-.111.272-.173.037 0 .049.025 0 .074m-116.784-12.298-1.049-1.063c.296.296.679.692 1.049 1.063M52.509 82.853l-.346-.05a.9.9 0 0 1 .346.05m73.287 78.577a5.5 5.5 0 0 1-.642-.569c-.024-.062-.061-.123-.074-.16z"></path><path d="M3.716 31.297c.223 1.41-.11.705-.197 1.026.234 1.693.308.754.53 1.298.137 1.063.075 1.903.26 2.682.05.05.099.198.099 0 .037 1.15.728 3.276.827 4.61.037.087.074.137.099.149-.16-.173-.284-.185-.358-.111.16.63.185 1.199.395 1.384-.111-.383-.062-.432-.062-.618l.123.668c.37.531-.172-.903-.024-.952.284 1.285.53 2.818.913 3.757.26.136-.642-2.262-.061-1.038-.186-.482-.334-.989-.507-1.47.642 1.05-.283-.903.359.049.617 1.953.555 2.225 1.247 4.14.049.47-.21-.086-.173.384.79 2.805 1.284 1.953 1.827 4.017.074.568-.087.878.691 2.188v-.569c.877 1.768.124 1.187 1.235 2.954-.087-.37-.654-1.409-.482-1.162.79 1.1.321.903.803 1.817l.284.087c.95 1.879 2.05 3.93 3.321 5.884-.025-.149-.185-.52.173-.1 1.593 2.473 3.815 4.982 5.864 6.923l.642.877c.186.173.395.272.223.05.827.717-.037.123.284.544.444.445.666.506.42.185 1.308 1.421 3.987 3.894 5.851 4.784l-.296-.26c.68.408 1 .742 1.321 1.05a4.7 4.7 0 0 0 1.358.853l-.234-.172c3.024 1.668 6.555 3.25 9.185 3.646.408.408 3.346.704 3.494 1.075 1.988.173 1.432.037 4.21.297.741.074 1.075.37 2 .494l.038-.185 1.234.321.692-.173.864.111c-.346-.012-.741.025-.692.087 1.346.198 3.31.087 3.358-.012l3.21.309c-.074-.075-.604-.136-1.024-.198 1.716.272.32-.186 1.889.062-.21.037.11.123.148.16.79-.086 2.58 0 3.914.1l-.247-.15c2.407.087 5.062.322 7.766.644-.976-.062-.778.197 0 .309l.333-.161c.494.185-.827-.025.197.26 1 .099.704-.149.136-.285.408.074.815.149 1.21.235.087-.05-.197-.123-.271-.21.481.198 2.148.111 2.827.482l.074-.05c2.68.532 3.864.89 6 1.57 0 .174.84.396 1.408.767 1.555.47 3.284 1.088 5.037 2.027 1.173.766.284.334.778.73.185-.124 1.84.976 1.037.32.494.334.901.606 1.272.853.345.272.666.532 1 .791.333.26.666.544 1.037.915s.84.767 1.32 1.347c-.27-.185-.543-.432-.456-.259.358.408.901.853.901.742l-.086-.112c1.086 1.298 2.358 2.782 3.383 4.364 1.037 1.57 1.827 3.189 2.148 4.499l-.037-.148c.271.89.518 1.78.728 2.682.408 1.211-.111-.767.26.111.592 2.942 1.222 4.549 1.555 6.971.864 1.756 1.198 6.564 2.21 8.888l-.148-.111c.062.655.259.741.395 1.199-.099-.05-.272-.656-.235-.248.544 2.707 1.556 5.365 2.507 8.059.506 1.335 1.123 2.633 1.691 3.943l.852 1.953.963 1.892c.926 1.841 0 1.297 1.358 3.535l-.136-.754c.815 1.916 1.926 3.733 2.951 5.587 1.099 1.804 2.297 3.535 3.309 5.315-.099-.235-.049-.272-.259-.606.543.668 1.864 2.571 1.765 2.67.395.507.173.049.457.334.58.643 1.136 1.854 1.531 2.138.062.05-.111-.222-.185-.358.247.519 1.654 2.027 1.173 1.73 1.049 1.125 1.827 2.287 2.691 3.165.333.766 1.852 1.854 1.815 2.237.123-.272 2.012 1.792 2.58 2.583-.172-.284.655.532.47.186.802.754 1.506 1.483 1.271 1.458 1.716 1.137 2.79 3.016 3.988 3.387 1.222 1.1 2.395 2.151 3.556 3.164 1.222.94 2.407 1.854 3.58 2.744.074-.296-2.63-1.94-2.358-2.101 2.198 1.718 3.346 2.917 5.766 4.302.629.346-.284-.322-.457-.495a69 69 0 0 0 3.42 2.2c1.16.631 2.272 1.236 3.333 1.904 0-.025-.222-.186-.432-.322.432.248 1.025.507.914.594l-.408-.26c-.777-.21 1.531 1.273 1.581 1.397-.593-.68 2.284.952 1.271-.012.284.16.63.383.519.42.444.173.605.198.21-.099 1.568.803.938.655 2.395 1.323.025-.062-.259-.211-.383-.347.692.433 1.358.927 2.655 1.335-.062-.061.098-.049-.272-.197 1.074.42 1.963.84 2.889 1.273.926.42 1.877.865 3.124 1.149-.63-.469.852.173 1.049 0l1.284.47-.555-.049c1.148.333 2.098.84 3.123 1.013a7 7 0 0 1-.827-.321c.704.235 1.444.383 2.161.581l-1.26-.198c1.148.395-.197.247 1.371.556-.309-.099 1.173.272 1.802.284.556.211 1.136.421 2.013.569.234-.025-.136-.297.024-.309.531.297 2.754.507 3.445.841-.235-.087-.235-.211-.148-.223l.457.235c.555.037.642.025.568-.074 1.654.247-.568.198 1.407.395-.148-.037-.074-.049-.395-.123 1.975.222 3.815.506 5.63.63.555-.173-1.58-.21-.951-.346.655.087 1.321.173 1.988.26.667.049 1.346.111 2.025.16 1.345.111 2.691.198 3.963.223h-.469c.358.383 1.901-.186 3.185-.05-.321-.012-.42-.173-.333-.136 1.741-.111 3.568.05 6.21-.136l-.334-.049c1.013-.173 2.692-.284 3.791-.42.333.037.963-.075.592.099 1.667-.495 3.285-.68 4.865-.841 1.568-.198 3.086-.482 4.543-.989-.358.074-.864.111-.58.05.852-.161 1.704-.297 2.543-.482-.16.197-.308.16-.815.383.346.024 1.075-.087 1.692-.272-1.148.222-.05-.223.42-.433-.074.062.111.062.074.124 1.234-.606.296.21 2.037-.445l-.111-.05c.679-.148 1.321-.222 2.037-.445.247-.247-.729.124-.815 0 1.012-.247 2.074-.309 2.914-.778-.432.123-1.037.296-1.482.42.914-.519 1.05-.519 1.753-.791l-.074.025 1.642-.668-.407.198c1.383-.025 2.556-.767 4.284-1.224-1.679.42-.321-.037-.506-.161.395-.222 1-.543.802-.519.828-.185 1.235-.642 2.408-.902.025-.074.815-.346.58-.42 1.013-.383-.185.197-.074.222 1.617-.494 3.42-1.953 5.704-2.756 1.864-.915 2.284-.952 4.013-1.817.518-.408-.568.074-.568.074.852-.618 1.568-.952 2.432-1.446-.198.062-.05-.087.173-.309.666-.433.555-.111 1.383-.767-.186.05-.433.087-.791.235l2.47-1.384c.148-.235-.581.198-.902.321.926-.568 2.408-1.471 2.741-1.57-.173.161-.346.322-.518.47.321-.235.086-.222-.173-.086-.852.408-1.087.791-1.087.877l.593-.358c-.383.68-2.333 1.495-3.469 2.286l.617-.111-1.296.618c-.223.21-.321.458.284.111-.778.643-.803.371-1.47.928-.074.061-.024.049.05.024l-.889.421c.197-.05-.05.234.457-.099-1.445 1.013-2.544 1.248-3.013 1.755l.136-.062c-2.173 1.088-.284-.037-2.012.593l-.889.964-.297-.061c-.222.123-.654.346-.543.383-.889.297.111-.148-.432-.012-.506.346-1.259.692-1.901 1.013-.655.284-1.21.519-1.272.705-.457.037 1.025-.544-.21-.136-.21.432-1.395.519-2.358 1.087.37.025 1.309-.457.346.099-.729-.024-1.939.927-2.865 1.15-.123-.198-1.95.581-3.444 1.013.061.025-.63.285-1.494.631-.889.284-1.951.63-2.642.853l.049.024c-.333-.148-1.765.297-2.827.557.074.123.271.123.864.024l-.988.272c-.247 0-.568.025-1.234.136l.296.111c-1.346.285-2.741.384-4.432.866-.124-.136 1.284-.73-.556-.445-.049.099-.086.259.395.185a5.5 5.5 0 0 0-.876.148c.259.013.506 0 .753 0-.766.235-.432-.024-1.062.087.037.124-.457.161-.346.235.161-.013.543-.136.79-.124-.703.124-1.555.334-1.827.47.05-.074-.025-.161-.555-.099-1.359.198-.445.21-1.223.396-.345-.037-1.185.185-1.234 0-.395.061-.457.16-.605.222-.704.037-3.297.284-2.519.037l.185-.025h-.111c-1.16.013-2.358.149-3.543.285-1.198.136-2.395.173-3.544.185v.062c-1.37-.049-3.049.086-4.024-.124-.408-.012-.963.075-.791.161-1.049-.086-1.16-.161-2.679-.111 1.05.148-.37.086 1.074.111-1.37 0-1.679.124-3.136-.161.482.21-1.037.099-1.679-.012h.963a25 25 0 0 0-2.012-.21l.333.235a18.4 18.4 0 0 1-3.802-.482c-1.149-.272-2.223-.519-3.309-.482-.704-.26 1.518.148.889-.124-1.272-.185-2.655-.111-3.05-.173-1.741-.284-1.543-.668-3.346-1.014.247-.012.507-.16-.814-.531-1.26-.26-1.618-.062-.84.185.296.074.444.087.444.062.396.124.926.272.408.235l-.148-.111c-.321-.037-.914-.161-1.371-.248-.457-.098-.79-.185-.605-.061-.913-.346-.37-.235.334-.062-1.605-.383-2.47-.754-4.124-1.174.272.037.531.037.272-.05-2.408-.655-1.025-.408-2.593-1.038-.938-.235.234.371-1.321-.322-1-.296-.272.099.086.309-1.395-.692-2.741-.951-3.58-1.248l.741.346c-.445-.21-.828-.334-1.198-.507.161.025.321.037.494.05-.457-.149-.815-.334-.84-.272-.407-.297.445-.062-.395-.593-.605-.198-1.728-.89-2.012-.804 1.852.779-.284.087 1.247.828-.284-.16-.655-.321-1.099-.506-.074 0 .049.061.161.135-1.828-.655-.717-.568-2.531-1.396.185.21-.519 0-.778-.198.703.383.419.025-.185-.408-1.161-.531-1.186-.717-1.778-1.026l.691.334c-.173-.223-.741-.507-1.506-.964-.111.037.679.432.383.321-.754-.667-2.087-.84-3.173-1.718-.581-.272-.161.148-.655-.111-1.234-.952-1.494-.767-2.815-1.731.482.124.531.198-.358-.531l2.21 1.508-1.333-1.1c.679.432 1.383.988 1.815 1.223-.63-.531-.581-.457-.185-.358-1.05-.408-1.778-1.261-2.927-1.829l-.172.321c-1.655-.989-2.655-2.151-4.729-3.535l.691.42c-.197-.297-1.222-.939-1.79-1.508-.012.148-.432-.136-.753-.297.086-.049-1.42-1.149-1.432-1.483l-.963-.581c-1.568-1.261-1.457-1.805-2.914-3.078.334.495-.37-.037.519.915-.469-.445-.914-.816-.865-.89-.333-.21-1.197-1.335-1.703-1.656-.148-.235-.124-.396-.63-.903-.074-.037-.037.05-.037.05.037-.05-.716-.878-.185-.519-.815-.581-1.766-1.595-2.692-2.584s-1.716-2.052-2.407-2.595c-.864-1.113-1.976-2.398-2.692-3.449.025.087-.049.037.111.222-1.135-1.347-.37-1.075-1.654-2.608-.765-.704.543.915.111.445-.469 0-1.444-1.94-2.321-2.966l.161.284c-.679-.791-1.247-2.2-2.186-3.597 0 0 .013.087-.049.037-.482-1.05-1.432-3.028-2.198-4.45.111.52.284.68 0 .495-.333-.643.334.062-.345-1.224-.309-.371-.889-1.248-1.075-1.298.186.421.42.816.642 1.212-.555-.495-.814-1.57-1.16-2.201l-.05.124c-.888-1.903-.679-2.039-1.679-4.054l.173.185c-.296-1.211-.531-.89-.839-2.101l-.371-.247a381 381 0 0 0-1.333-4.092c.086.841.679 2.448.963 3.474-.309-.742-1.012-2.547-1.062-2.979.099.309.198.704.358.989-.222-.977-.506-2.25-1.025-3.77-.37.42-1.456-3.919-2.012-4.982-.259-1.397-.654-2.756-1.037-4.178a80 80 0 0 1-1.012-4.524c.592 1.076-.173-.939.234-.815-.123-.754-.197-1.039-.234-1.101l-.704-2.224c-.222-.507.074.729-.025.679-.383-1.619-.309-.642-.654-1.693.185.185.061-.606-.222-1.508l.493 1.248c-.382-2.299-.777-1.866-1.271-4.14l.11.741c-.234-1.186-1.444-4.116-1.715-5.278-.136-.173-.358-.358-.136.111-.654-1.248-1.383-2.632-2.21-3.868-.852-1.212-1.79-2.3-2.654-2.98l.098.21c-.37-.37-.568-.74-1.123-1.112 0 .05.099.21-.087.05-.185-.198-1-.989-1.605-1.36.148.136.284.297.42.445-2.296-1.495-3.432-2.484-5.543-3.523-.05.124-.593 0-1.235-.21-.654-.197-1.432-.445-1.95-.593l.024.05c-3.062-.977-5.222-1.719-8.198-2.312-1.889-.05-6.309-.643-9.358-.606.469-.024-.062-.21-.605-.272-.716.013-1.963-.284-1.852-.024h.259c-.543.222-2.013.099-3.148.061l-.173-.333c-3.025.37-7.852-.581-9.52-.371-.715-.148-1.617-.272-2.32-.433v.173c-2-.26-3.013-.358-5.457-.976l.469.235c-1.395-.297-1.617-.927-2.864-1.273l-.445.135c-2.358-.717-4.778-1.52-6.864-2.83.012.062.049.148.407.334-1.05-.495-4.025-2.09-3.457-2.188-.148.173-2.173-1.36-3.124-2.3l.062.26c-.753-.865-.778-.902-1.901-1.977-.296-.223-.333-.112.062.185-.988-.754-.642-.73-1.79-1.693l.32.47c-.926-.878-.802-.854-1.21-1.435-.543-.58-1.691-1.705-1.938-1.742-.05-.198-.42-.791-.95-1.323-.112-.037.037.198.123.309-1.445-1.57-1.864-2.559-2.84-3.646-.062 0-.148-.05-.222-.136.975 1.384 1.864 2.41 1.79 2.311-.123.099-1.012-.952-.494.037-.63-.915-1.494-2.608-2.32-3.646a1 1 0 0 0-.136-.111l.061.123a5 5 0 0 1-.444-.717c-.26-.346-.42-.556-.642-.902-.21-.05-.89-1.298-1.235-1.891.173-.037-.296-.791.247-.149-.062-.086.05.124.272.52.049.086.11.197.136.26v-.05c.197.395.506.89.876 1.446a7.8 7.8 0 0 0-.926-1.607c-.086-.358-.173-.742-.235-.964-.703-.668-1.642-2.2-1.888-2.349-.902-1.878-2.062-4.45-2.247-5.784-.186-.557-.346-.594-.482-.78.099.322.26.705.284.89-.407-1.112-1.198-3.287-1.087-3.62-.567-1.373.05.864-.543-1.089v.285c-1.568-3.733-1.296-6.403-2.654-10.63.086.296.136.445.185.494-1.247-4.932-1.494-10.309-2.247-15.253-.173-1.41-.037-1.57 0-2.447l-.21-.297.124-1.496c.024-2.101-.667-3.597-.482-6.266l.136.333C.642 10.024.667 7.96.53 8.121c.025-.099.123-.321.037-.692L.47 7.404l.1-2.349C.446 3.238.186 5.352.1 2.707.11 1.718.309-.099.383.272.395.667.469 1.285.568 1.31L.593.408c.284-.173.555-.865.815 1.335l-.136 1.545.148.494-.025-1.298c.148.73.05 1.2-.012 1.719.074.123.136.333.173.642l-.235 1.52c.124.174.198-.68.297.322-.1.705-.272-.667-.322.507.161.73.26.507.173 1.384.074.124.124-.062.136-.408-.062.767.037 2.027-.099 2.435.186.754.074 2.596.346 2.497-.05.248-.148 1.36-.123 2.064.247-1.297.185 2.633.506 2.275-.235.964.11 3.436.11 5.13.013-.1.05-.285.013-.433.111.94.222 1.211.334 1.804-.223.149-.124 1.62-.186 2.423.358 1.125.21-.73.47-.395-.21-.037.049 2.027-.16 1.656.258.865.172.754.431 1.174-.271.198.05.828-.012 1.582.346 1.249.333.285.457 1.694.197.643.11-.606.11-.606zm11.087 31.235c-.16-.247-.284-.457-.37-.58.074.123.185.296.37.58m1.655 2.275a65 65 0 0 0-.729-.977c-.11-.05-.098.074.074.31-.061-.15.358.37.642.68zm-4.396-4.277c.21.395.334.507.396.544-.112-.186-.26-.396-.408-.68v-.062c0 .05 0 .111.012.198"></path><path d="M11.853 59.714s-.05-.086-.087-.173c.062.074.111.149.173.21 0 .062.025.111.037.161-.037-.074-.086-.148-.124-.21zm192.601 133.544h-.062s.099-.012.123-.024c-.037 0-.037.012-.061.024M49.398 82.507l-.013.037-.234-.061zm170.279 107.414s.074-.049.185-.099c0 .012-.086.05-.185.099m6.407-1.978.877-.37c-.383.16-.655.271-.877.37m4.816-1.854c.074 0 .098.013.123.025l-.111-.025zm-79.214-3.992s-.123-.074-.173-.099c-.395-.247-.123-.087.173.099m22.631 8.875-.741-.26c.433.087.754.161.741.26m-44.298-25.117-.112-.111zm42.446 24.61c.432.062.778.161 1.111.259-.346-.074-.765-.148-1.111-.259m77.991-15.08.198-.148h.037l-.247.136zm.235-.136.234-.148c-.099.074-.185.148-.234.148m.728-.47-.481.322c.16-.124.345-.285.481-.322m-6.63 4.401h-.099s.075-.025.099 0m-1.802 1.026c.419-.26 1-.742 1.617-1.051h.086c-.333.086-1.247.902-1.703 1.051m-7.346 4.709 1.543-.828c-.247.198-.568.457.148.111-1.901 1.162.346-.334-1.704.705zm-4.975 2.2c.876-.334.024.099.086.111-.58.174-.716.211-.086-.111m-38.46 6.724.087.161c-.729-.049 0-.062-.087-.161m-7.407-1.31.716-.025.309.173zm-4.532.556.309.075-1.185-.26zm-56.545-31.754.284.037c.284.396.197.618-.284-.037m-15.211-24.054c-.235-.235-.593-.952-.691-1.458.259.593.555 1.149.691 1.458M56.793 84.56l.568.086-1.075-.1zm90.386 37.794c-2.858 10.666 3.462 21.645 14.151 24.51l16.74 4.485 10.36-38.66-16.741-4.486c-10.689-2.864-21.645 3.461-24.51 14.151m63.147-3.798-16.74-4.486-10.353 38.637 16.74 4.486c10.666 2.858 21.646-3.462 24.51-14.151 2.858-10.666-3.461-21.646-14.15-24.51zM107.718 44.312c-6.608 14.17-1.386 30.87 11.594 39.121l25.827-55.386c-14.68-4.606-30.814 2.095-37.421 16.265m44.97-12.745-25.827 55.386c14.68 4.606 30.814-2.095 37.421-16.265 6.608-14.17 1.386-30.87-11.594-39.121m51.642 60.58c8.459 7.098 21.081 6.01 28.194-2.466l11.14-13.277-30.66-25.727-11.14 13.276c-7.114 8.478-6.011 21.08 2.466 28.194m23.245-58.835-11.14 13.276 30.642 25.711 11.14-13.276c7.098-8.459 6.011-21.08-2.467-28.194-8.458-7.097-21.08-6.01-28.193 2.467z"></path></g></svg>