<svg width="25" height="24" viewBox="0 0 25 24" fill="none" xmlns="http://www.w3.org/2000/svg"><mask id="path-1-inside-1_12968_18243" fill="white"><path fill-rule="evenodd" clip-rule="evenodd" d="M11.5 11H3.5V3H11.5V11ZM9.5 5H5.5V9H9.5V5ZM13.5 11V3H21.5V11H13.5ZM15.5 9H19.5V5H15.5V9ZM3.5 21H11.5V13H3.5V21ZM5.5 15H9.5V19H5.5V15ZM16.5 13H18.5V16H21.5V18H18.5V21H16.5V18H13.5V16H16.5V13Z"></path></mask><path fill-rule="evenodd" clip-rule="evenodd" d="M11.5 11H3.5V3H11.5V11ZM9.5 5H5.5V9H9.5V5ZM13.5 11V3H21.5V11H13.5ZM15.5 9H19.5V5H15.5V9ZM3.5 21H11.5V13H3.5V21ZM5.5 15H9.5V19H5.5V15ZM16.5 13H18.5V16H21.5V18H18.5V21H16.5V18H13.5V16H16.5V13Z" fill="#666666"></path><path d="M3.5 11H3V11.5H3.5V11ZM11.5 11V11.5H12V11H11.5ZM3.5 3V2.5H3V3H3.5ZM11.5 3H12V2.5H11.5V3ZM5.5 5V4.5H5V5H5.5ZM9.5 5H10V4.5H9.5V5ZM5.5 9H5V9.5H5.5V9ZM9.5 9V9.5H10V9H9.5ZM13.5 3V2.5H13V3H13.5ZM13.5 11H13V11.5H13.5V11ZM21.5 3H22V2.5H21.5V3ZM21.5 11V11.5H22V11H21.5ZM19.5 9V9.5H20V9H19.5ZM15.5 9H15V9.5H15.5V9ZM19.5 5H20V4.5H19.5V5ZM15.5 5V4.5H15V5H15.5ZM11.5 21V21.5H12V21H11.5ZM3.5 21H3V21.5H3.5V21ZM11.5 13H12V12.5H11.5V13ZM3.5 13V12.5H3V13H3.5ZM9.5 15H10V14.5H9.5V15ZM5.5 15V14.5H5V15H5.5ZM9.5 19V19.5H10V19H9.5ZM5.5 19H5V19.5H5.5V19ZM18.5 13H19V12.5H18.5V13ZM16.5 13V12.5H16V13H16.5ZM18.5 16H18V16.5H18.5V16ZM21.5 16H22V15.5H21.5V16ZM21.5 18V18.5H22V18H21.5ZM18.5 18V17.5H18V18H18.5ZM18.5 21V21.5H19V21H18.5ZM16.5 21H16V21.5H16.5V21ZM16.5 18H17V17.5H16.5V18ZM13.5 18H13V18.5H13.5V18ZM13.5 16V15.5H13V16H13.5ZM16.5 16V16.5H17V16H16.5ZM3.5 11.5H11.5V10.5H3.5V11.5ZM3 3V11H4V3H3ZM11.5 2.5H3.5V3.5H11.5V2.5ZM12 11V3H11V11H12ZM5.5 5.5H9.5V4.5H5.5V5.5ZM6 9V5H5V9H6ZM9.5 8.5H5.5V9.5H9.5V8.5ZM9 5V9H10V5H9ZM13 3V11H14V3H13ZM21.5 2.5H13.5V3.5H21.5V2.5ZM22 11V3H21V11H22ZM13.5 11.5H21.5V10.5H13.5V11.5ZM19.5 8.5H15.5V9.5H19.5V8.5ZM19 5V9H20V5H19ZM15.5 5.5H19.5V4.5H15.5V5.5ZM16 9V5H15V9H16ZM11.5 20.5H3.5V21.5H11.5V20.5ZM11 13V21H12V13H11ZM3.5 13.5H11.5V12.5H3.5V13.5ZM4 21V13H3V21H4ZM9.5 14.5H5.5V15.5H9.5V14.5ZM10 19V15H9V19H10ZM5.5 19.5H9.5V18.5H5.5V19.5ZM5 15V19H6V15H5ZM18.5 12.5H16.5V13.5H18.5V12.5ZM19 16V13H18V16H19ZM21.5 15.5H18.5V16.5H21.5V15.5ZM22 18V16H21V18H22ZM18.5 18.5H21.5V17.5H18.5V18.5ZM19 21V18H18V21H19ZM16.5 21.5H18.5V20.5H16.5V21.5ZM16 18V21H17V18H16ZM13.5 18.5H16.5V17.5H13.5V18.5ZM13 16V18H14V16H13ZM16.5 15.5H13.5V16.5H16.5V15.5ZM16 13V16H17V13H16Z" fill="white" mask="url(#path-1-inside-1_12968_18243)"></path></svg>