<svg width="56" height="56" viewBox="0 0 56 56" fill="none" xmlns="http://www.w3.org/2000/svg"><rect width="56" height="56" rx="12" fill="#F9FAFB"></rect><path d="M35.2258 21.2903C32.8103 21.2903 30.6204 22.2715 29.0323 23.856V18.865C29.0323 18.3164 28.8619 17.791 28.5388 17.3476L25.1117 12.6348C24.8227 12.2374 24.3561 12 23.8643 12C23.0777 12 22.4341 12.5941 22.3412 13.3564C22.337 13.3548 22.3339 13.3528 22.3298 13.3517L18.5486 12.0908C18.3685 12.0305 18.1806 12 17.9902 12H17.8963C16.9218 12 16.129 12.7928 16.129 13.7677C16.129 14.4655 16.5409 15.0994 17.1783 15.3827L20.5337 16.8743C20.8026 16.993 21.0302 17.1855 21.1928 17.4297L22.5786 19.5081C22.7489 19.7631 22.8387 20.0599 22.8387 20.367V21.6501L22.1796 20.6612C21.7956 20.0857 21.1535 19.7419 20.4619 19.7419H15.3548C13.9319 19.7419 12.7742 20.8996 12.7742 22.3226C12.7742 22.3334 12.7742 22.3443 12.7747 22.3551C12.3298 22.4697 12 22.8743 12 23.3548V28.5786C12 28.9492 12.0821 29.3228 12.2374 29.6604L14.8439 35.3074C15.0612 35.7775 15.3347 36.2209 15.6573 36.6235L15.985 37.0333C16.6354 37.8462 17.0333 38.8387 17.1339 39.871H16.129V44H27.4839V39.871H26.4516V39.4994C26.4516 38.7866 26.591 38.0914 26.8645 37.4343L27.9169 34.9089C29.4901 37.2748 32.1775 38.8387 35.2258 38.8387C40.064 38.8387 44 34.9027 44 30.0645C44 25.2263 40.064 21.2903 35.2258 21.2903ZM26.4516 42.9677H17.1613V40.9032H26.4516V42.9677ZM25.9117 37.0374C25.585 37.8209 25.4194 38.6498 25.4194 39.4994V39.871H18.1714C18.0676 38.6044 17.5871 37.3837 16.7907 36.3886L16.463 35.9788C16.1925 35.6408 15.9628 35.2692 15.7812 34.8748L13.1747 29.2279C13.0818 29.0255 13.0323 28.801 13.0323 28.5786V23.3548C14.1708 23.3548 15.0968 24.2808 15.0968 25.4194V27.4839C15.0968 27.9685 15.328 28.432 15.7161 28.7221L16.7479 29.4963C17.2366 29.8627 17.841 30.0645 18.4516 30.0645C20.0165 30.0645 21.2903 28.7907 21.2903 27.2258V25.1613C21.2903 23.5964 20.0165 22.3226 18.4516 22.3226H13.8065C13.8065 21.4689 14.5012 20.7742 15.3548 20.7742H20.4619C20.8077 20.7742 21.1288 20.9461 21.3208 21.2341L22.6648 23.2506C22.7788 23.4214 22.8387 23.6196 22.8387 23.8235V26.4516H23.871V20.367C23.871 19.8555 23.7213 19.3605 23.4374 18.9357L22.0516 16.8573C21.7801 16.4501 21.3997 16.1295 20.9523 15.9308L17.5974 14.4392C17.3326 14.3215 17.1613 14.0578 17.1613 13.7677C17.1613 13.3621 17.4911 13.0323 17.8968 13.0323H17.9907C18.0697 13.0323 18.1486 13.0446 18.223 13.0694L22.0036 14.3298C22.3277 14.4377 22.6106 14.6534 22.8005 14.9373L25.1592 18.4754C25.3295 18.7308 25.4194 19.0276 25.4194 19.3347V26.4516H26.4516V19.3347C26.4516 18.8232 26.3019 18.3283 26.0181 17.9035L23.6614 14.367C23.6599 14.3644 23.6573 14.3623 23.6552 14.3597L23.4405 14.0377C23.3848 13.9525 23.3548 13.855 23.3548 13.7538V13.5417C23.3548 13.2609 23.5835 13.0323 23.8643 13.0323C24.0268 13.0323 24.1812 13.1107 24.2772 13.2418L27.7043 17.9541C27.8978 18.2209 28 18.5352 28 18.865V25.0983C27.0255 26.512 26.4516 28.2219 26.4516 30.0645C26.4516 31.3853 26.7535 32.6338 27.2779 33.7585L25.9117 37.0374ZM15.3388 23.3548H18.4516C19.4477 23.3548 20.2581 24.1652 20.2581 25.1613V27.2258C20.2581 28.2219 19.4477 29.0323 18.4516 29.0323C18.063 29.0323 17.6785 28.9037 17.3672 28.671L16.335 27.8968C16.2059 27.7997 16.129 27.6454 16.129 27.4839V25.4194C16.129 24.6271 15.8297 23.903 15.3388 23.3548ZM35.2258 37.8064C30.9569 37.8064 27.4839 34.3334 27.4839 30.0645C27.4839 25.7956 30.9569 22.3226 35.2258 22.3226C39.4947 22.3226 42.9677 25.7956 42.9677 30.0645C42.9677 34.3334 39.4947 37.8064 35.2258 37.8064Z" fill="black"></path><path d="M38.4738 26.6028L33.1613 31.9153L31.9778 30.7319L31.248 31.4617L33.1613 33.375L39.2036 27.3326L38.4738 26.6028Z" fill="black"></path><path d="M35.2258 35.7419C32.0955 35.7419 29.5484 33.1948 29.5484 30.0645C29.5484 28.7252 30.0258 27.4245 30.8924 26.401L30.1053 25.7337C29.0808 26.9435 28.5161 28.4816 28.5161 30.0645C28.5161 33.7641 31.5262 36.7742 35.2258 36.7742C36.8088 36.7742 38.3468 36.2096 39.5566 35.185L38.8893 34.3979C37.8658 35.2645 36.5652 35.7419 35.2258 35.7419Z" fill="black"></path><path d="M35.2258 23.3548C33.6428 23.3548 32.1048 23.9195 30.895 24.944L31.5623 25.7311C32.5858 24.8645 33.8865 24.3871 35.2258 24.3871C38.3561 24.3871 40.9032 26.9342 40.9032 30.0645C40.9032 31.4039 40.4258 32.7045 39.5592 33.728L40.3463 34.3954C41.3708 33.1855 41.9355 31.6475 41.9355 30.0645C41.9355 26.3649 38.9254 23.3548 35.2258 23.3548Z" fill="black"></path></svg>