<svg width="25" height="24" viewBox="0 0 25 24" fill="none" xmlns="http://www.w3.org/2000/svg"><path d="M15.75 11.27H16.02V11V7C16.02 6.13274 15.6755 5.301 15.0622 4.68776C14.449 4.07452 13.6173 3.73 12.75 3.73C11.8827 3.73 11.051 4.07452 10.4378 4.68776C9.82452 5.301 9.48 6.13274 9.48 7V11V11.27H9.75H15.75ZM16.02 13V12.73H15.75H9.75H9.48V13V17C9.48 17.8673 9.82452 18.699 10.4378 19.3122C11.051 19.9255 11.8827 20.27 12.75 20.27C13.6173 20.27 14.449 19.9255 15.0622 19.3122C15.6755 18.699 16.02 17.8673 16.02 17V13ZM12.75 2.27C14.0045 2.27 15.2076 2.76834 16.0946 3.65538C16.9817 4.54243 17.48 5.74553 17.48 7V17C17.48 18.2545 16.9817 19.4576 16.0946 20.3446C15.2076 21.2317 14.0045 21.73 12.75 21.73C11.4955 21.73 10.2924 21.2317 9.40538 20.3446C8.51834 19.4576 8.02 18.2545 8.02 17V7C8.02 5.74553 8.51834 4.54243 9.40538 3.65538C10.2924 2.76834 11.4955 2.27 12.75 2.27Z" fill="#666666" stroke="white" stroke-width="0.54"></path></svg>