<svg width="56" height="56" viewBox="0 0 56 56" fill="none" xmlns="http://www.w3.org/2000/svg"><rect width="56" height="56" rx="12" fill="#F9FAFB"></rect><g clip-path="url(#clip0_11901_222460)"><path d="M36.7742 16.2035V17.233H35.7419C35.1726 17.233 34.7097 17.6947 34.7097 18.2625V19.292C34.7097 19.8597 35.1726 20.3215 35.7419 20.3215H36.7742V21.351C36.7742 21.9187 37.2372 22.3805 37.8064 22.3805H38.8387C39.408 22.3805 39.871 21.9187 39.871 21.351V20.3215H40.9032C41.4725 20.3215 41.9355 19.8597 41.9355 19.292V18.2625C41.9355 17.6947 41.4725 17.233 40.9032 17.233H39.871V16.2035C39.871 15.6357 39.408 15.174 38.8387 15.174H37.8064C37.2372 15.174 36.7742 15.6357 36.7742 16.2035ZM40.9032 18.2619V19.292H38.8387V21.351H37.8064V19.292H35.7419V18.2625H37.8064V16.2035H38.8387V18.2625L40.9032 18.2619Z" fill="black"></path><path d="M43.4839 13.6297C41.889 13.6297 40.3231 13.1973 38.9564 12.3789L38.3226 12L37.6888 12.3789C36.3221 13.1973 34.7561 13.6297 33.1613 13.6297H32.6452V16.2035H31.6129V15.6887C31.6129 13.7018 29.9917 12.0854 28 12.0854C26.0083 12.0854 24.3871 13.7018 24.3871 15.6887V16.2035H17.1613C16.592 16.2035 16.129 16.6652 16.129 17.233V21.3571C14.9579 21.3906 13.8725 21.9234 13.1386 22.8396C12.4041 23.7549 12 24.9048 12 26.0918C12 27.4873 12.545 28.7994 13.5345 29.7862L16.129 32.3738V42.9705C16.129 43.5383 16.592 44 17.1613 44H38.8387C39.408 44 39.871 43.5383 39.871 42.9705V24.8719C42.3881 23.5541 44 20.9654 44 18.0355V13.6297H43.4839ZM36.7742 31.4504L35.6826 32.6755H29.5484V38.8525H35.7419V34.158L36.7742 32.9998V40.9115H19.2258V35.4623L19.7419 35.9771L25.9494 29.7862C26.3185 29.4181 26.6255 29.0043 26.8655 28.5575H31.7079C31.9215 29.1551 32.4893 29.587 33.1613 29.587C34.015 29.587 34.7097 28.8941 34.7097 28.0427C34.7097 27.1913 34.015 26.4985 33.1613 26.4985C32.4893 26.4985 31.9215 26.9303 31.7079 27.528H27.2795C27.4121 27.0632 27.4839 26.5767 27.4839 26.0769C27.4839 24.9048 27.0797 23.7554 26.3453 22.8396C25.5871 21.8935 24.4552 21.351 23.2397 21.351C22.1775 21.351 21.1794 21.7633 20.4279 22.5128L19.7419 23.1969L19.2258 22.6821V19.292H32.7458C33.1334 21.6943 34.624 23.7461 36.7742 24.8719V31.4504ZM33.1835 37.0287L34.7097 35.3162V37.823H30.5806V33.705H34.7097V33.7668L33.1391 35.5287L31.9778 34.3706L31.248 35.0984L33.1835 37.0287ZM32.6452 28.0427C32.6452 27.7591 32.8764 27.528 33.1613 27.528C33.4462 27.528 33.6774 27.7591 33.6774 28.0427C33.6774 28.3264 33.4462 28.5575 33.1613 28.5575C32.8764 28.5575 32.6452 28.3264 32.6452 28.0427ZM25.4194 15.6887C25.4194 14.2695 26.577 13.115 28 13.115C29.423 13.115 30.5806 14.2695 30.5806 15.6887V16.2035H29.5484V15.6887C29.5484 14.8373 28.8537 14.1445 28 14.1445C27.1463 14.1445 26.4516 14.8373 26.4516 15.6887V16.2035H25.4194V15.6887ZM28.5161 16.2035H27.4839V15.6887C27.4839 15.4051 27.7151 15.174 28 15.174C28.2849 15.174 28.5161 15.4051 28.5161 15.6887V16.2035ZM32.6452 17.233V18.036C32.6452 18.1122 32.6519 18.1868 32.6545 18.2625H18.1935V21.8621C17.8705 21.6799 17.5236 21.5455 17.1613 21.4606V17.233H32.6452ZM13.0323 26.0769C13.0323 25.1375 13.3564 24.2166 13.9453 23.4825C14.5058 22.782 15.344 22.3805 16.2441 22.3805C17.0302 22.3805 17.7698 22.6857 18.3262 23.2406L19.7419 24.6526L21.1577 23.2406C21.7141 22.6857 22.4537 22.3805 23.2397 22.3805C24.1394 22.3805 24.9775 22.782 25.5386 23.4825C26.1275 24.2161 26.4516 25.1375 26.4516 26.0918C26.4516 26.5901 26.3603 27.0734 26.1946 27.528H21.4875L20.3541 29.7898L18.7535 25.0026L17.328 28.5575H16.129V29.587H18.0268L18.6658 27.9943L20.1621 32.4727L22.1254 28.5575H25.6434C25.5148 28.7325 25.3765 28.9018 25.2196 29.0583L19.7419 34.5214L14.2643 29.0583C13.4699 28.2661 13.0323 27.2124 13.0323 26.0769ZM38.8387 42.9705H17.1613V33.4033L18.1935 34.4328V41.941H37.8064V25.3212C37.9288 25.3645 38.049 25.4103 38.1745 25.4474L38.3226 25.4916L38.4707 25.4474C38.5961 25.4098 38.7164 25.364 38.8387 25.3212V42.9705ZM42.9677 18.036C42.9677 20.9695 41.1076 23.5139 38.3226 24.4153C35.5375 23.5139 33.6774 20.9695 33.6774 18.036V14.6458C35.2795 14.5619 36.8403 14.0878 38.2204 13.2622L38.3226 13.2004L38.4248 13.2617C39.8044 14.0878 41.3657 14.5619 42.9677 14.6458V18.036Z" fill="black"></path><path d="M27.4839 37.823H28.5161V38.8525H27.4839V37.823Z" fill="black"></path><path d="M25.4194 37.823H26.4516V38.8525H25.4194V37.823Z" fill="black"></path><path d="M23.3548 37.823H24.3871V38.8525H23.3548V37.823Z" fill="black"></path><path d="M28.5161 24.4395H31.6129V25.469H28.5161V24.4395Z" fill="black"></path><path d="M28.5161 22.3805H31.6129V23.41H28.5161V22.3805Z" fill="black"></path><path d="M28.5161 20.3215H31.6129V21.351H28.5161V20.3215Z" fill="black"></path></g><defs><clipPath id="clip0_11901_222460"><rect width="32" height="32" fill="white" transform="translate(12 12)"></rect></clipPath></defs></svg>