<svg width="97" height="96" viewBox="0 0 97 96" fill="none" xmlns="http://www.w3.org/2000/svg"><rect x="0.600098" width="96" height="96" rx="48" fill="white"></rect><path d="M68.398 28.2C63.8171 23.6196 57.7897 20.7693 51.3428 20.1347C44.896 19.5001 38.4285 21.1206 33.0425 24.72C27.6565 28.3193 23.6851 33.6749 21.8051 39.8741C19.9252 46.0734 20.2528 52.7327 22.7324 58.7174C25.2119 64.7021 29.6899 69.6418 35.4033 72.695C41.1167 75.7482 47.712 76.7258 54.0654 75.4614C60.4188 74.1969 66.1373 70.7686 70.2463 65.7606C74.3554 60.7525 76.6008 54.4746 76.6 47.9966C76.6095 44.3185 75.8895 40.6749 74.4817 37.2769C73.0738 33.8788 71.006 30.7937 68.398 28.2ZM67.2414 66.642C62.9292 70.9541 57.2552 73.6376 51.1863 74.2353C45.1173 74.833 39.0289 73.308 33.9583 69.9199C28.8878 66.5319 25.1488 61.4905 23.3786 55.6548C21.6083 49.8191 21.9162 43.5501 24.2499 37.916C26.5835 32.2819 30.7985 27.6312 36.1767 24.7564C41.5549 21.8815 47.7634 20.9604 53.7446 22.15C59.7257 23.3396 65.1094 26.5662 68.9783 31.2802C72.8471 35.9941 74.9618 41.9037 74.962 48.002C74.9717 51.4652 74.2944 54.8959 72.9691 58.0955C71.6438 61.2951 69.697 64.2 67.2414 66.642Z" fill="#6576FF"></path><path d="M57.3648 68.7437C54.8467 69.8092 52.1544 70.4034 49.4217 70.4969V67.621C49.4217 67.4034 49.3353 67.1948 49.1815 67.0409C49.0276 66.8871 48.819 66.8006 48.6014 66.8006C48.3838 66.8006 48.1752 66.8871 48.0213 67.0409C47.8675 67.1948 47.7811 67.4034 47.7811 67.621V70.4955C42.3806 70.303 37.2313 68.1666 33.2808 64.4793L35.3065 62.4535C35.4604 62.2996 35.5469 62.0908 35.5469 61.8732C35.5469 61.6555 35.4604 61.4468 35.3065 61.2929C35.1526 61.1389 34.9438 61.0525 34.7262 61.0525C34.5085 61.0525 34.2998 61.1389 34.1458 61.2929L32.1201 63.3186C28.4329 59.368 26.2964 54.2188 26.1038 48.8183H28.9784C29.1959 48.8183 29.4046 48.7318 29.5585 48.578C29.7123 48.4242 29.7987 48.2155 29.7987 47.9979C29.7987 47.7804 29.7123 47.5717 29.5585 47.4179C29.4046 47.264 29.1959 47.1776 28.9784 47.1776H26.1025C26.2933 41.7759 28.4266 36.6244 32.1106 32.6692L34.1445 34.7031C34.2207 34.7793 34.3112 34.8397 34.4107 34.8809C34.5103 34.9222 34.617 34.9434 34.7248 34.9434C34.8326 34.9434 34.9393 34.9222 35.0389 34.8809C35.1385 34.8397 35.2289 34.7793 35.3052 34.7031C35.3814 34.6268 35.4418 34.5364 35.4831 34.4368C35.5243 34.3372 35.5455 34.2305 35.5455 34.1227C35.5455 34.0149 35.5243 33.9082 35.4831 33.8086C35.4418 33.7091 35.3814 33.6186 35.3052 33.5424L33.2713 31.5085C34.1831 30.6611 35.1631 29.8901 36.2014 29.2034C36.383 29.0834 36.5096 28.8963 36.5532 28.6831C36.5968 28.4699 36.5539 28.2481 36.434 28.0665C36.314 27.8848 36.1269 27.7583 35.9137 27.7147C35.7004 27.6711 35.4786 27.714 35.297 27.8339C30.2709 31.1526 26.6657 36.2289 25.188 42.0678C23.7103 47.9066 24.4667 54.0868 27.3091 59.3968C30.1514 64.7069 34.8746 68.7638 40.5527 70.7723C46.2309 72.7808 52.4544 72.596 58.0034 70.2542C58.1042 70.2132 58.1958 70.1527 58.2729 70.076C58.35 69.9994 58.4111 69.9081 58.4527 69.8076C58.4942 69.7071 58.5154 69.5994 58.5149 69.4906C58.5144 69.3819 58.4924 69.2743 58.4499 69.1742C58.4075 69.074 58.3456 68.9833 58.2678 68.9073C58.19 68.8314 58.0979 68.7716 57.9968 68.7316C57.8957 68.6915 57.7876 68.6719 57.6789 68.674C57.5702 68.6761 57.4643 68.6998 57.3648 68.7437Z" fill="#6576FF"></path><path d="M65.6807 30.92C62.1614 27.4025 57.6424 25.0566 52.7404 24.2027C47.8384 23.3487 42.7924 24.0282 38.2909 26.1485C38.0942 26.2415 37.9425 26.4088 37.8691 26.6136C37.7957 26.8184 37.8068 27.044 37.8997 27.2407C37.9927 27.4374 38.16 27.5891 38.3648 27.6625C38.5696 27.7359 38.7952 27.7249 38.9919 27.6319C41.7443 26.3286 44.7347 25.6036 47.7783 25.5017V28.3777C47.7783 28.5952 47.8648 28.8039 48.0186 28.9577C48.1725 29.1116 48.3811 29.198 48.5987 29.198C48.8162 29.198 49.0249 29.1116 49.1788 28.9577C49.3326 28.8039 49.419 28.5952 49.419 28.3777V25.5031C54.8195 25.6957 59.9687 27.8322 63.9193 31.5194L61.8936 33.5451C61.7397 33.699 61.6532 33.9078 61.6532 34.1255C61.6532 34.3431 61.7397 34.5519 61.8936 34.7058C62.0475 34.8597 62.2563 34.9462 62.4739 34.9462C62.6916 34.9462 62.9003 34.8597 63.0542 34.7058L65.08 32.68C68.7673 36.6305 70.9037 41.7798 71.0963 47.1803H68.2217C68.0041 47.1803 67.7955 47.2668 67.6416 47.4206C67.4878 47.5745 67.4014 47.7831 67.4014 48.0007C67.4014 48.2183 67.4878 48.4269 67.6416 48.5808C67.7955 48.7346 68.0041 48.821 68.2217 48.821H71.0976C70.9106 54.2241 68.7757 59.3772 65.0868 63.3295L63.0529 61.2956C62.899 61.1417 62.6902 61.0552 62.4726 61.0552C62.2549 61.0552 62.0461 61.1417 61.8922 61.2956C61.7383 61.4495 61.6518 61.6583 61.6518 61.8759C61.6518 62.0936 61.7383 62.3023 61.8922 62.4562L63.9261 64.4901C62.8053 65.5343 61.5814 66.462 60.2732 67.259C60.1812 67.315 60.1011 67.3885 60.0374 67.4755C59.9738 67.5625 59.928 67.6611 59.9025 67.7658C59.877 67.8705 59.8723 67.9792 59.8888 68.0857C59.9053 68.1922 59.9427 68.2943 59.9987 68.3864C60.0547 68.4785 60.1282 68.5586 60.2152 68.6222C60.3022 68.6859 60.4008 68.7317 60.5055 68.7572C60.6102 68.7827 60.7189 68.7873 60.8254 68.7708C60.9319 68.7543 61.034 68.717 61.1261 68.661C64.6778 66.509 67.6142 63.477 69.6513 59.8582C71.6884 56.2394 72.7572 52.1562 72.7546 48.0034C72.7636 44.8293 72.1429 41.6849 70.9285 38.7522C69.714 35.8196 67.9298 33.1571 65.6793 30.9187L65.6807 30.92Z" fill="#6576FF"></path><path d="M57.9559 37.1654L49.6577 45.4637C49.3267 45.3052 48.9643 45.2228 48.5973 45.2228C48.2303 45.2228 47.868 45.3052 47.537 45.4637L43.0462 40.9729C42.8922 40.819 42.6835 40.7325 42.4658 40.7325C42.2482 40.7325 42.0394 40.819 41.8855 40.9729C41.7316 41.1268 41.6451 41.3356 41.6451 41.5532C41.6451 41.7709 41.7316 41.9796 41.8855 42.1336L46.3763 46.6244C46.197 46.9995 46.1156 47.414 46.1398 47.8291C46.164 48.2442 46.293 48.6464 46.5147 48.9982C46.7365 49.3499 47.0437 49.6398 47.4078 49.8407C47.7718 50.0415 48.1809 50.1469 48.5967 50.1469C49.0125 50.1469 49.4215 50.0415 49.7856 49.8407C50.1496 49.6398 50.4569 49.3499 50.6786 48.9982C50.9003 48.6464 51.0293 48.2442 51.0535 47.8291C51.0777 47.414 50.9963 46.9995 50.817 46.6244L59.1153 38.3261C59.1915 38.2499 59.252 38.1594 59.2932 38.0598C59.3345 37.9603 59.3557 37.8536 59.3557 37.7458C59.3557 37.638 59.3345 37.5313 59.2932 37.4317C59.252 37.3321 59.1915 37.2416 59.1153 37.1654C59.0391 37.0892 58.9486 37.0288 58.849 36.9875C58.7494 36.9463 58.6427 36.9251 58.5349 36.9251C58.4272 36.9251 58.3204 36.9463 58.2209 36.9875C58.1213 37.0288 58.0322 37.0892 57.9559 37.1654ZM48.6 48.5037C48.4378 48.5037 48.2792 48.4556 48.1443 48.3655C48.0094 48.2753 47.9042 48.1472 47.8421 47.9973C47.7801 47.8474 47.7638 47.6825 47.7955 47.5233C47.8271 47.3642 47.9053 47.2181 48.02 47.1033C48.1347 46.9886 48.2809 46.9105 48.44 46.8788C48.5991 46.8472 48.7641 46.8634 48.914 46.9255C49.0639 46.9876 49.192 47.0927 49.2821 47.2276C49.3723 47.3625 49.4204 47.5211 49.4204 47.6834C49.4204 47.7912 49.3991 47.898 49.3578 47.9976C49.3165 48.0972 49.256 48.1877 49.1796 48.2639C49.1033 48.3401 49.0127 48.4005 48.913 48.4417C48.8134 48.4828 48.7079 48.5039 48.6 48.5037Z" fill="#6576FF"></path><path d="M51.5017 57.461C51.6095 57.461 51.7161 57.4398 51.8157 57.3985C51.9152 57.3573 52.0056 57.2969 52.0818 57.2207C52.158 57.1446 52.2184 57.0541 52.2596 56.9546C52.3009 56.855 52.3221 56.7484 52.3221 56.6407C52.3221 56.5329 52.3009 56.4262 52.2596 56.3267C52.2184 56.2272 52.158 56.1368 52.0818 56.0606C52.0056 55.9844 51.9152 55.924 51.8157 55.8828C51.7161 55.8415 51.6095 55.8203 51.5017 55.8203H45.7051C45.4876 55.8203 45.2789 55.9068 45.1251 56.0606C44.9712 56.2144 44.8848 56.4231 44.8848 56.6407C44.8848 56.8582 44.9712 57.0669 45.1251 57.2207C45.2789 57.3746 45.4876 57.461 45.7051 57.461H51.5017Z" fill="#6576FF"></path></svg>