<svg width="97" height="96" viewBox="0 0 97 96" fill="none" xmlns="http://www.w3.org/2000/svg"><rect x="0.399902" width="96" height="96" rx="48" fill="white"></rect><g clip-path="url(#clip0_11901_222220)"><path fill-rule="evenodd" clip-rule="evenodd" d="M48.4016 58.0003L48.3773 58.0001C48.1879 57.9977 48.0006 57.9593 47.8255 57.8867C47.6436 57.8112 47.4785 57.7005 47.3397 57.5608L39.34 49.5611C39.0585 49.2796 38.9003 48.8978 38.9003 48.4998C38.9003 48.1017 39.0585 47.7199 39.34 47.4384C39.6214 47.1569 40.0032 46.9988 40.4013 46.9988C40.7994 46.9988 41.1812 47.1569 41.4627 47.4384L46.9009 52.8766V25.5006C46.9137 25.1113 47.0773 24.7422 47.3572 24.4714C47.6371 24.2005 48.0113 24.0491 48.4008 24.0491C48.7903 24.0491 49.1646 24.2005 49.4445 24.4714C49.7244 24.7422 49.888 25.1113 49.9008 25.5006V52.8932L55.3556 47.4384C55.6371 47.1569 56.0188 46.9988 56.4169 46.9988C56.815 46.9988 57.1968 47.1569 57.4783 47.4384C57.7598 47.7199 57.9179 48.1017 57.9179 48.4998C57.9179 48.8978 57.7598 49.2796 57.4783 49.5611L49.4785 57.5608C49.3369 57.7022 49.1686 57.8138 48.9833 57.8893C48.8001 57.9639 48.604 58.0016 48.4063 58.0003L48.4016 58.0003ZM29.8934 72H66.9003C68.3565 71.9953 69.7515 71.4139 70.78 70.383C71.8085 69.352 72.3867 67.9556 72.388 66.4994V57.4997C72.3752 57.1104 72.2116 56.7413 71.9316 56.4705C71.6517 56.1996 71.2775 56.0482 70.888 56.0482C70.4985 56.0482 70.1243 56.1996 69.8444 56.4705C69.5645 56.7413 69.4008 57.1104 69.3881 57.4997V66.4994C69.3872 67.1623 69.1235 67.7979 68.6547 68.2667C68.1859 68.7355 67.5503 68.9992 66.8873 69.0001H29.8934C29.2319 68.9971 28.5984 68.7324 28.1313 68.2639C27.6643 67.7953 27.4016 67.1609 27.4008 66.4994V57.4997C27.388 57.1104 27.2244 56.7413 26.9445 56.4705C26.6646 56.1996 26.2903 56.0482 25.9008 56.0482C25.5113 56.0482 25.1371 56.1996 24.8572 56.4705C24.5773 56.7413 24.4137 57.1104 24.4009 57.4997V66.5075C24.4039 67.9632 24.9835 69.3586 26.0129 70.388C27.0423 71.4174 28.4376 71.997 29.8934 72Z" fill="#4285F4"></path><path d="M48.3773 58.0001L48.3731 58.3321L48.3746 58.3321L48.3773 58.0001ZM48.4016 58.0003L48.3989 58.3324L48.4025 58.3323L48.4016 58.0003ZM47.8255 57.8867L47.6984 58.1934L47.6984 58.1934L47.8255 57.8867ZM47.3397 57.5608L47.5752 57.3268L47.5745 57.326L47.3397 57.5608ZM39.34 49.5611L39.1052 49.7959L39.34 49.5611ZM46.9009 52.8766L46.6661 53.1114L47.2329 53.6782V52.8766H46.9009ZM46.9009 25.5006L46.5688 25.4897V25.5006H46.9009ZM47.3572 24.4714L47.1263 24.2328V24.2328L47.3572 24.4714ZM49.4445 24.4714L49.2136 24.71L49.4445 24.4714ZM49.9008 25.5006H50.233L50.2326 25.4897L49.9008 25.5006ZM49.9008 52.8932H49.5687V53.6948L50.1356 53.128L49.9008 52.8932ZM55.3556 47.4384L55.1208 47.2036L55.3556 47.4384ZM57.4783 47.4384L57.2435 47.6732L57.2435 47.6732L57.4783 47.4384ZM57.4783 49.5611L57.2435 49.3263L57.2435 49.3263L57.4783 49.5611ZM49.4785 57.5608L49.7131 57.7958L49.7133 57.7956L49.4785 57.5608ZM48.9833 57.8893L48.858 57.5818L48.9833 57.8893ZM48.4063 58.0003L48.4084 57.6683L48.4055 57.6683L48.4063 58.0003ZM66.9003 72V72.332H66.9013L66.9003 72ZM29.8934 72L29.8927 72.332H29.8934V72ZM70.78 70.383L71.0151 70.6175L70.78 70.383ZM72.388 66.4994L72.72 66.4997V66.4994H72.388ZM72.388 57.4997H72.7202L72.7198 57.4888L72.388 57.4997ZM71.9316 56.4705L71.7007 56.7091H71.7008L71.9316 56.4705ZM69.3881 57.4997L69.056 57.4888V57.4997H69.3881ZM69.3881 66.4994L69.7201 66.4998V66.4994H69.3881ZM66.8873 69.0001V69.3321H66.8878L66.8873 69.0001ZM29.8934 69.0001L29.8919 69.3321H29.8934V69.0001ZM28.1313 68.2639L28.3665 68.0295H28.3665L28.1313 68.2639ZM27.4008 66.4994H27.0687L27.0687 66.4998L27.4008 66.4994ZM27.4008 57.4997H27.733L27.7326 57.4888L27.4008 57.4997ZM26.9445 56.4705L26.7136 56.7091H26.7136L26.9445 56.4705ZM24.8572 56.4705L24.6263 56.2319H24.6263L24.8572 56.4705ZM24.4009 57.4997L24.0688 57.4888V57.4997H24.4009ZM24.4009 66.5075H24.0688L24.0688 66.5081L24.4009 66.5075ZM26.0129 70.388L26.2477 70.1532L26.0129 70.388ZM48.3746 58.3321L48.3989 58.3323L48.4043 57.6683L48.38 57.6681L48.3746 58.3321ZM47.6984 58.1934C47.9125 58.2822 48.1415 58.3292 48.3731 58.3321L48.3815 57.6681C48.2343 57.6663 48.0888 57.6364 47.9527 57.5799L47.6984 58.1934ZM47.1042 57.7949C47.274 57.9657 47.4759 58.1011 47.6984 58.1934L47.9527 57.5799C47.8114 57.5213 47.683 57.4353 47.5752 57.3268L47.1042 57.7949ZM39.1052 49.7959L47.1049 57.7956L47.5745 57.326L39.5747 49.3263L39.1052 49.7959ZM38.5683 48.4998C38.5683 48.9859 38.7614 49.4521 39.1052 49.7959L39.5747 49.3263C39.3555 49.1071 39.2324 48.8098 39.2324 48.4998H38.5683ZM39.1052 47.2036C38.7614 47.5474 38.5683 48.0136 38.5683 48.4998H39.2324C39.2324 48.1897 39.3555 47.8924 39.5747 47.6732L39.1052 47.2036ZM40.4013 46.6667C39.9152 46.6667 39.4489 46.8599 39.1052 47.2036L39.5747 47.6732C39.794 47.454 40.0913 47.3308 40.4013 47.3308V46.6667ZM41.6974 47.2036C41.3537 46.8599 40.8875 46.6667 40.4013 46.6667V47.3308C40.7113 47.3308 41.0086 47.454 41.2279 47.6732L41.6974 47.2036ZM47.1357 52.6419L41.6974 47.2036L41.2279 47.6732L46.6661 53.1114L47.1357 52.6419ZM46.5688 25.5006V52.8766H47.2329V25.5006H46.5688ZM47.1263 24.2328C46.7844 24.5636 46.5846 25.0143 46.569 25.4897L47.2327 25.5115C47.2427 25.2083 47.3701 24.9209 47.5881 24.71L47.1263 24.2328ZM48.4008 23.717C47.9252 23.717 47.4681 23.902 47.1263 24.2328L47.5881 24.71C47.806 24.499 48.0975 24.3811 48.4008 24.3811V23.717ZM49.6754 24.2328C49.3335 23.902 48.8765 23.717 48.4008 23.717V24.3811C48.7042 24.3811 48.9956 24.499 49.2136 24.71L49.6754 24.2328ZM50.2326 25.4897C50.217 25.0143 50.0172 24.5636 49.6754 24.2328L49.2136 24.71C49.4315 24.9209 49.559 25.2083 49.5689 25.5115L50.2326 25.4897ZM50.2328 52.8932V25.5006H49.5687V52.8932H50.2328ZM55.1208 47.2036L49.666 52.6584L50.1356 53.128L55.5904 47.6732L55.1208 47.2036ZM56.4169 46.6667C55.9308 46.6667 55.4645 46.8599 55.1208 47.2036L55.5904 47.6732C55.8096 47.454 56.1069 47.3308 56.4169 47.3308V46.6667ZM57.7131 47.2036C57.3693 46.8599 56.9031 46.6667 56.4169 46.6667V47.3308C56.7269 47.3308 57.0243 47.454 57.2435 47.6732L57.7131 47.2036ZM58.2499 48.4998C58.2499 48.0136 58.0568 47.5474 57.713 47.2036L57.2435 47.6732C57.4627 47.8924 57.5859 48.1897 57.5859 48.4998H58.2499ZM57.713 49.7959C58.0568 49.4521 58.2499 48.9859 58.2499 48.4998H57.5859C57.5859 48.8098 57.4627 49.1071 57.2435 49.3263L57.713 49.7959ZM49.7133 57.7956L57.7131 49.7959L57.2435 49.3263L49.2438 57.326L49.7133 57.7956ZM49.1085 58.1968C49.3347 58.1047 49.5402 57.9684 49.7131 57.7958L49.244 57.3258C49.1336 57.436 49.0024 57.523 48.858 57.5818L49.1085 58.1968ZM48.4041 58.3323C48.6455 58.3339 48.8848 58.2879 49.1085 58.1968L48.858 57.5818C48.7153 57.6399 48.5625 57.6693 48.4084 57.6683L48.4041 58.3323ZM48.4025 58.3323L48.4071 58.3323L48.4055 57.6683L48.4008 57.6683L48.4025 58.3323ZM66.9003 71.668H29.8934V72.332H66.9003V71.668ZM70.545 70.1485C69.5785 71.1172 68.2676 71.6635 66.8992 71.668L66.9013 72.332C68.4454 72.327 69.9245 71.7106 71.0151 70.6175L70.545 70.1485ZM72.0559 66.4991C72.0547 67.8675 71.5114 69.1797 70.545 70.1485L71.0151 70.6175C72.1056 69.5244 72.7186 68.0437 72.72 66.4997L72.0559 66.4991ZM72.0559 57.4997V66.4994H72.72V57.4997H72.0559ZM71.7008 56.7091C71.9187 56.92 72.0462 57.2074 72.0561 57.5106L72.7198 57.4888C72.7042 57.0134 72.5044 56.5627 72.1625 56.2319L71.7008 56.7091ZM70.888 56.3802C71.1913 56.3802 71.4828 56.4981 71.7007 56.7091L72.1625 56.2319C71.8207 55.9011 71.3637 55.7161 70.888 55.7161V56.3802ZM70.0753 56.7091C70.2932 56.4981 70.5847 56.3802 70.888 56.3802V55.7161C70.4123 55.7161 69.9553 55.9011 69.6135 56.2319L70.0753 56.7091ZM69.7199 57.5106C69.7299 57.2074 69.8573 56.92 70.0753 56.7091L69.6135 56.2319C69.2716 56.5627 69.0718 57.0134 69.0562 57.4888L69.7199 57.5106ZM69.7201 66.4994V57.4997H69.056V66.4994H69.7201ZM68.8895 68.5015C69.4204 67.9705 69.7191 67.2507 69.7201 66.4998L69.056 66.4989C69.0553 67.074 68.8265 67.6253 68.4199 68.0319L68.8895 68.5015ZM66.8878 69.3321C67.6386 69.3312 68.3585 69.0325 68.8895 68.5015L68.4199 68.0319C68.0133 68.4386 67.462 68.6673 66.8869 68.6681L66.8878 69.3321ZM29.8934 69.3321H66.8873V68.6681H29.8934V69.3321ZM27.8961 68.4983C28.4251 69.0289 29.1426 69.3287 29.8919 69.3321L29.8949 68.6681C29.3211 68.6655 28.7716 68.4359 28.3665 68.0295L27.8961 68.4983ZM27.0687 66.4998C27.0697 67.2491 27.3672 67.9676 27.8961 68.4983L28.3665 68.0295C27.9614 67.623 27.7335 67.0728 27.7328 66.4989L27.0687 66.4998ZM27.0687 57.4997V66.4994H27.7328V57.4997H27.0687ZM26.7136 56.7091C26.9315 56.92 27.059 57.2074 27.0689 57.5106L27.7326 57.4888C27.717 57.0134 27.5172 56.5627 27.1754 56.2319L26.7136 56.7091ZM25.9008 56.3802C26.2042 56.3802 26.4956 56.4981 26.7136 56.7091L27.1754 56.2319C26.8335 55.9011 26.3765 55.7161 25.9008 55.7161V56.3802ZM25.0881 56.7091C25.3061 56.4981 25.5975 56.3802 25.9008 56.3802V55.7161C25.4251 55.7161 24.9681 55.9011 24.6263 56.2319L25.0881 56.7091ZM24.7327 57.5106C24.7427 57.2074 24.8701 56.92 25.0881 56.7091L24.6263 56.2319C24.2845 56.5627 24.0846 57.0134 24.069 57.4888L24.7327 57.5106ZM24.7329 66.5075V57.4997H24.0688V66.5075H24.7329ZM26.2477 70.1532C25.2804 69.1859 24.7357 67.8747 24.7329 66.5068L24.0688 66.5081C24.072 68.0518 24.6866 69.5313 25.7781 70.6228L26.2477 70.1532ZM29.8941 71.668C28.5261 71.6651 27.215 71.1205 26.2477 70.1532L25.7781 70.6228C26.8696 71.7143 28.3491 72.3289 29.8927 72.332L29.8941 71.668Z" fill="#FBFBFB"></path></g><defs><clipPath id="clip0_11901_222220"><rect width="48" height="48" fill="white" transform="translate(24.3999 24)"></rect></clipPath></defs></svg>