<svg width="97" height="96" viewBox="0 0 97 96" fill="none" xmlns="http://www.w3.org/2000/svg"><rect x="0.800293" width="96" height="96" rx="48" fill="white"></rect><g clip-path="url(#clip0_11901_222195)"><path d="M29.3882 75.3438C29.1548 75.3434 28.9318 75.2506 28.7668 75.0855C28.6018 74.9205 28.5084 74.6968 28.508 74.4633V73.1209C28.2457 73.0277 27.9925 72.9244 27.7419 72.8062L26.7951 73.7533C26.6263 73.9118 26.4027 74 26.1712 74C25.9397 74 25.7174 73.9118 25.5486 73.7533L23.0477 71.2523C22.9647 71.1714 22.8993 71.0746 22.8543 70.9678C22.8092 70.861 22.7851 70.7461 22.7851 70.6301C22.7855 70.5136 22.8093 70.3986 22.8543 70.2911C22.8993 70.1837 22.965 70.086 23.0477 70.0041L23.9958 69.057C23.8803 68.8103 23.7738 68.5543 23.6806 68.2919H22.3405C22.1066 68.2922 21.8824 68.1994 21.7166 68.0343C21.5508 67.8692 21.4572 67.6448 21.4565 67.4108V63.8768C21.4565 63.6423 21.5495 63.4173 21.7153 63.2514C21.8812 63.0856 22.106 62.9926 22.3405 62.9926H23.6806C23.7742 62.7301 23.8807 62.4746 23.9996 62.2262L23.0477 61.2784C22.8813 61.1125 22.7867 60.8875 22.7851 60.6524C22.7875 60.4186 22.882 60.195 23.0477 60.0302L25.5486 57.5292C25.7131 57.363 25.9361 57.2684 26.1699 57.2665C26.4049 57.2684 26.6304 57.3629 26.7964 57.5292L27.747 58.4808C27.9955 58.3616 28.25 58.2549 28.5093 58.1616V56.8218C28.509 56.5877 28.6018 56.3635 28.7668 56.1976C28.9319 56.0318 29.1555 55.9382 29.3895 55.9375H32.9319C33.1658 55.9382 33.3895 56.0318 33.5545 56.1976C33.7196 56.3635 33.8124 56.5877 33.812 56.8218V58.1642C34.0744 58.26 34.3264 58.3639 34.5743 58.4833L35.5249 57.5317C35.6928 57.3715 35.9168 57.2818 36.1489 57.2818C36.3809 57.2818 36.6036 57.3715 36.7715 57.5317L39.2723 60.0251C39.3551 60.107 39.4207 60.2047 39.4658 60.3121C39.5108 60.4196 39.5346 60.5346 39.535 60.6511C39.5346 60.767 39.5108 60.882 39.4658 60.9888C39.4207 61.0956 39.355 61.1922 39.2723 61.2733L38.3179 62.2287C38.4388 62.4763 38.5437 62.731 38.6343 62.9913H39.9808C40.0965 62.9911 40.2108 63.0137 40.3177 63.0579C40.4247 63.1021 40.5216 63.1664 40.6034 63.2482C40.6853 63.33 40.7513 63.4277 40.7956 63.5347C40.8399 63.6416 40.8622 63.756 40.8622 63.8717V67.4057C40.8622 67.6398 40.77 67.8646 40.6047 68.0304C40.4395 68.1962 40.2149 68.2893 39.9808 68.29H38.6343C38.5425 68.5446 38.4359 68.8006 38.3179 69.0487L39.2723 70.0041C39.4384 70.1686 39.533 70.3924 39.535 70.6263C39.5324 70.8612 39.438 71.0858 39.2723 71.2523L36.7715 73.7456C36.6906 73.8287 36.5939 73.8947 36.4871 73.9398C36.3803 73.9849 36.2661 74.0083 36.1501 74.0084C36.0336 74.0084 35.9181 73.9849 35.8106 73.9398C35.7032 73.8947 35.6053 73.8287 35.5237 73.7456L34.573 72.7941C34.3251 72.9134 34.0706 73.0188 33.8107 73.1093V74.4556C33.8101 74.6896 33.7165 74.914 33.5507 75.0791C33.3849 75.2442 33.1607 75.3364 32.9267 75.3361L29.3882 75.3438ZM28.0302 70.9595C28.5216 71.2509 29.0518 71.4718 29.6047 71.6157C29.7928 71.6659 29.9588 71.7771 30.0775 71.9316C30.1961 72.086 30.2606 72.275 30.2607 72.4698V73.5842H32.0338V72.466C32.0338 72.2716 32.097 72.0829 32.2157 71.929C32.3344 71.7751 32.5018 71.665 32.6897 71.6157C33.2423 71.4709 33.7711 71.25 34.263 70.9595C34.4311 70.8593 34.6286 70.8178 34.8229 70.8416C35.0171 70.8653 35.1976 70.9531 35.3366 71.0908L36.1232 71.8784L37.3736 70.6276L36.587 69.84C36.4494 69.7017 36.3622 69.5217 36.3385 69.328C36.3147 69.1344 36.355 68.9381 36.4551 68.7705C36.7446 68.278 36.9653 67.7479 37.111 67.1955C37.1601 67.0074 37.271 66.8413 37.4249 66.7226C37.5787 66.6038 37.7674 66.5391 37.9617 66.5393H39.0827V64.7669H37.9617C37.7668 64.7678 37.5769 64.7037 37.4223 64.5849C37.2677 64.4661 37.1566 64.2994 37.1072 64.1107C36.9629 63.5578 36.7422 63.0275 36.4512 62.5357C36.3511 62.3675 36.3096 62.1706 36.3333 61.9763C36.3571 61.782 36.4455 61.6014 36.5832 61.4623L37.3698 60.6748L36.1194 59.424L35.3328 60.2115C35.1942 60.3488 35.0138 60.4364 34.8203 60.4602C34.6268 60.4839 34.4306 60.4425 34.263 60.3429C33.7709 60.0527 33.2422 59.8319 32.6897 59.6867C32.5016 59.6364 32.3343 59.5253 32.2157 59.3708C32.0971 59.2163 32.0338 59.0273 32.0338 58.8326V57.7182H30.2607V58.8326C30.2613 59.0275 30.1974 59.2168 30.0787 59.3715C29.96 59.5261 29.7932 59.637 29.6047 59.6867C29.0487 59.8299 28.5156 60.0508 28.0212 60.3429C27.8539 60.4429 27.6586 60.4839 27.4652 60.4602C27.2718 60.4364 27.0921 60.349 26.954 60.2115L26.1661 59.424L24.9157 60.6748L25.7036 61.4623C25.8408 61.6009 25.9284 61.7808 25.9521 61.9743C25.9759 62.1679 25.9339 62.3642 25.8343 62.5318C25.5428 63.0266 25.322 63.5598 25.1783 64.1159C25.128 64.304 25.0176 64.4701 24.8631 64.5888C24.7087 64.7074 24.5198 64.772 24.3251 64.772H23.213V66.5451H24.3251C24.5199 66.5445 24.7086 66.6083 24.8631 66.7271C25.0177 66.8458 25.1286 67.0127 25.1783 67.2013C25.3218 67.7545 25.5426 68.2842 25.8343 68.7757C25.9351 68.9437 25.9772 69.1406 25.9534 69.3351C25.9296 69.5296 25.8419 69.7109 25.7036 69.8496L24.9157 70.6365L26.1699 71.8873L26.9578 71.0998C27.1244 70.9327 27.3497 70.8387 27.5856 70.8377C27.7421 70.838 27.8955 70.8798 28.0302 70.9595ZM39.9283 71.8181C48.3153 71.3588 60.6346 67.2651 71.7215 50.3793L71.8675 50.1601C71.9741 49.9981 72.1315 49.8758 72.3147 49.8122C72.4978 49.7486 72.697 49.7472 72.8809 49.8083L74.0468 50.2024L72.8809 44.9396L67.928 47.6956L69.286 48.0359C69.4257 48.0704 69.5543 48.1384 69.6614 48.2345C69.7684 48.3307 69.8503 48.4518 69.8997 48.587C69.9506 48.7215 69.9684 48.8666 69.9496 49.0093C69.9309 49.1519 69.8761 49.2878 69.7921 49.4046C67.9104 52.0119 65.7303 54.3901 63.2966 56.4911L63.3261 56.5789L63.1262 56.6378C59.5014 59.7531 55.3466 62.1913 50.8591 63.8352C48.2321 64.7924 45.5108 65.4692 42.7417 65.8556L42.4983 64.1095C43.2854 63.9979 44.0812 63.853 44.8697 63.6942L46.9516 49.3899L46.6351 45.6265L42.4368 51.138C42.2894 51.3413 42.0998 51.5105 41.8808 51.6333C41.6617 51.7561 41.4188 51.8296 41.1684 51.8492L39.0558 52.0267C38.7219 52.0567 38.3869 51.9899 38.0898 51.8345C37.7928 51.6791 37.5458 51.4416 37.3801 51.1501C37.2104 50.8604 37.1284 50.5276 37.143 50.1922C37.1577 49.8567 37.269 49.5323 37.4633 49.2585L44.4162 39.7742C45.0254 38.9078 45.9291 38.2924 46.958 38.0421C46.2811 37.3246 45.8647 36.4001 45.7768 35.4175C45.7277 34.8403 45.7931 34.2592 45.9689 33.7072C46.1448 33.1553 46.4278 32.6431 46.8017 32.2007C47.1754 31.7577 47.6321 31.3933 48.1469 31.1274C48.6617 30.8614 49.2247 30.6996 49.8022 30.6513C50.379 30.6022 50.9597 30.667 51.5112 30.8429C52.0628 31.0188 52.5733 31.3019 53.0153 31.6759C53.4587 32.0493 53.8241 32.5071 54.0902 33.0222C54.3563 33.5373 54.5187 34.0996 54.5668 34.6774C54.6344 35.5054 54.465 36.3359 54.0787 37.0714L60.9995 31.658C61.1894 31.5093 61.4081 31.4007 61.6413 31.3395C61.8746 31.2783 62.1178 31.266 62.3562 31.3023C62.5937 31.3398 62.8206 31.4255 63.0237 31.5542C63.2268 31.6828 63.4021 31.8514 63.5374 32.0501L64.5585 33.5489C64.8127 33.9231 64.9136 34.3803 64.8404 34.8267C64.7671 35.2731 64.5244 35.6748 64.1639 35.948L56.0926 42.1015L56.6589 46.4121L60.2846 48.2993C60.4927 48.4047 60.6786 48.5507 60.8304 48.7279C60.9821 48.9052 61.0977 49.1103 61.1699 49.3322L62.7431 54.6091C64.5049 53.0227 66.1241 51.2842 67.5808 49.4136L65.3349 48.8503C65.1641 48.8069 65.0099 48.7132 64.8929 48.5812C64.776 48.4492 64.7016 48.2851 64.679 48.1102C64.6545 47.9352 64.683 47.7569 64.7622 47.5989C64.8414 47.4409 64.9674 47.311 65.1222 47.2259L73.0577 42.8154C73.1773 42.7489 73.3105 42.7109 73.4472 42.7052C73.5839 42.6995 73.7197 42.7264 73.8444 42.7827C73.9691 42.8389 74.0792 42.9229 74.1659 43.0288C74.2527 43.1346 74.3148 43.2593 74.3453 43.3927L76.1095 51.3347C76.1429 51.4869 76.1356 51.6452 76.0877 51.7935C76.0397 51.9418 75.9528 52.0748 75.8366 52.1786C75.7219 52.284 75.5803 52.3563 75.4279 52.3881C75.2755 52.42 75.1178 52.4105 74.9705 52.3599L72.9655 51.6929C61.5375 68.9015 48.7577 73.0949 40.0269 73.5752L39.9283 71.8181ZM47.5678 42.4123C47.7386 42.4625 47.8895 42.5634 48.0021 42.7013C48.1147 42.8393 48.1831 43.0077 48.1981 43.1851L48.7234 49.3386C48.7317 49.4062 48.7317 49.4748 48.7234 49.5424L46.7223 63.2572C47.5724 63.038 48.4118 62.7876 49.2449 62.5094L51.451 49.7679C51.4745 49.6337 51.5291 49.5067 51.6099 49.3969C51.6907 49.2872 51.7949 49.1978 51.9161 49.1355C52.0379 49.0738 52.1729 49.0407 52.3094 49.0394C52.4459 49.038 52.581 49.0686 52.704 49.1278L57.0087 51.2443C57.4048 51.4359 57.7143 51.77 57.8747 52.1799L59.6402 57.1383C60.213 56.7201 60.7605 56.2979 61.2826 55.8727L59.4916 49.8596L55.4482 47.7604C55.3214 47.6963 55.2122 47.6017 55.1305 47.4855C55.0488 47.3692 54.9966 47.2344 54.9793 47.0933L54.2849 41.8202C54.2654 41.6656 54.2861 41.5084 54.3464 41.3646C54.4068 41.2209 54.5042 41.0956 54.6283 41.0013L63.1083 34.5409L62.0897 33.0459L54.5322 38.9598C54.396 39.0641 54.234 39.1277 54.0633 39.1443L50.5478 39.441L47.8036 39.6749C47.4171 39.7071 47.0431 39.8238 46.7069 40.0171C46.3707 40.2103 46.0799 40.4754 45.8575 40.7931L38.9046 50.2812L41.0314 50.0858L46.6262 42.7205C46.7096 42.6123 46.8162 42.5247 46.9388 42.4642C47.0613 42.4037 47.1954 42.3717 47.3321 42.3713C47.4118 42.3743 47.4917 42.3883 47.5678 42.4123ZM51.1448 61.8193C53.5959 60.8545 55.9392 59.6352 58.1361 58.1815L56.2208 52.8008L52.9794 51.2257L51.1448 61.8193ZM49.9456 32.4231C49.2464 32.4829 48.5997 32.8172 48.1469 33.3535C47.6941 33.8898 47.4725 34.584 47.5307 35.2836C47.5599 35.6298 47.6578 35.967 47.8176 36.2755C47.9775 36.584 48.1961 36.8581 48.4621 37.0816C48.7269 37.3066 49.0342 37.4766 49.3653 37.5821C49.6963 37.6875 50.0441 37.7259 50.3902 37.6955C50.7365 37.6677 51.0745 37.5718 51.3831 37.4123C51.6917 37.2527 51.9648 37.0328 52.1877 36.7663C52.4131 36.5011 52.5838 36.1944 52.6899 35.8628C52.7959 35.5313 52.8361 35.1819 52.8065 34.835C52.7769 34.4886 52.6793 34.1511 52.5195 33.8424C52.3597 33.5337 52.1408 33.2597 51.8751 33.0357C51.3992 32.6305 50.7934 32.4085 50.1686 32.4096C50.0941 32.4085 50.0198 32.411 49.9456 32.4173V32.4231ZM72.8015 32.9005L69.9561 31.3254L67.1157 32.9005C66.9704 32.9805 66.8061 33.018 66.6404 33.0087C66.4748 32.9995 66.3147 32.9437 66.1792 32.8479C66.0443 32.7524 65.9396 32.621 65.8756 32.4686C65.8116 32.3162 65.7917 32.1493 65.8179 31.9861L66.3727 28.5918L64.0384 26.201C63.9251 26.0852 63.8456 25.9404 63.8091 25.7826C63.7725 25.6247 63.78 25.4597 63.8308 25.3058C63.8824 25.1521 63.9758 25.0155 64.0999 24.9111C64.2239 24.8067 64.374 24.739 64.5342 24.7144L67.7281 24.2261L69.163 21.1682C69.2332 21.0166 69.345 20.8883 69.4859 20.7985C69.6268 20.7087 69.7903 20.661 69.9573 20.6614C70.125 20.6607 70.2898 20.7081 70.4314 20.7979C70.5729 20.8876 70.6859 21.0163 70.7568 21.1682L72.1917 24.2261L75.3818 24.7144C75.5422 24.7382 75.6919 24.806 75.8161 24.9105C75.9402 25.015 76.0329 25.1517 76.0838 25.3058C76.1359 25.4592 76.1453 25.6246 76.1095 25.7826C76.0736 25.9406 75.9947 26.0852 75.8814 26.201L73.5471 28.5918L74.098 31.9861C74.1257 32.1493 74.1058 32.3165 74.0417 32.4692C73.9775 32.6219 73.8714 32.7534 73.7355 32.8479C73.5875 32.9532 73.411 33.01 73.2294 33.0107C73.0793 33.0097 72.9317 32.97 72.8015 32.8953V32.9005ZM70.3814 29.5472L72.0648 30.4764L71.7317 28.4412C71.7099 28.3047 71.7206 28.1648 71.7625 28.033C71.8044 27.9013 71.8759 27.7813 71.9726 27.6825L73.4165 26.1984L71.4563 25.8979C71.3131 25.8762 71.1766 25.8197 71.0604 25.7332C70.9442 25.6467 70.8521 25.5329 70.7901 25.4019L69.9522 23.6186L69.113 25.4019C69.0526 25.532 68.9609 25.6448 68.8466 25.7313C68.7322 25.8178 68.5987 25.8752 68.4571 25.8979L66.4892 26.1984L67.9318 27.6825C68.0286 27.7812 68.1015 27.9012 68.1432 28.033C68.1849 28.1648 68.1951 28.3048 68.1727 28.4412L67.8396 30.4764L69.5217 29.5472C69.6516 29.4744 69.7983 29.4365 69.9471 29.437C70.0984 29.4327 70.2483 29.4686 70.3814 29.5408V29.5472Z" fill="#FF6A9C"></path></g><defs><clipPath id="clip0_11901_222195"><rect width="56" height="56" fill="white" transform="translate(20.8003 20)"></rect></clipPath></defs></svg>