<svg width="97" height="96" viewBox="0 0 97 96" fill="none" xmlns="http://www.w3.org/2000/svg"><rect x="0.200195" width="96" height="96" rx="48" fill="white"></rect><path d="M53.0879 50.9153C52.9721 50.9556 52.8655 51.0184 52.774 51.1C52.6825 51.1816 52.6079 51.2805 52.5546 51.3909C52.5013 51.5013 52.4702 51.6212 52.4632 51.7436C52.4562 51.8661 52.4733 51.9887 52.5137 52.1045C52.554 52.2203 52.6168 52.327 52.6983 52.4185C52.7799 52.5101 52.8787 52.5846 52.9891 52.638C53.0995 52.6913 53.2193 52.7224 53.3417 52.7294C53.4641 52.7364 53.5867 52.7193 53.7024 52.6789C57.4544 51.3775 60.6241 48.7884 62.6491 45.3711C64.674 41.9538 65.4231 37.9293 64.7635 34.012C64.1038 30.0946 62.0781 26.5377 59.0458 23.9726C56.0135 21.4075 52.1708 20 48.1997 20C44.2285 20 40.3858 21.4075 37.3536 23.9726C34.3213 26.5377 32.2956 30.0946 31.6359 34.012C30.9763 37.9293 31.7254 41.9538 33.7503 45.3711C35.7752 48.7884 38.9449 51.3775 42.6969 52.6789C42.8134 52.7217 42.9371 52.7408 43.061 52.7352C43.1849 52.7296 43.3065 52.6993 43.4186 52.6462C43.5306 52.5931 43.631 52.5182 43.7139 52.4259C43.7967 52.3335 43.8604 52.2256 43.9011 52.1084C43.9418 51.9913 43.9588 51.8671 43.951 51.7433C43.9432 51.6195 43.9109 51.4984 43.8559 51.3872C43.8009 51.2761 43.7243 51.1769 43.6306 51.0956C43.5369 51.0144 43.4279 50.9526 43.3101 50.9139C41.6965 50.3508 40.1919 49.5139 38.8623 48.4399V47.4235C38.8605 46.001 39.2903 44.6115 40.095 43.4387C40.8997 42.2659 42.0413 41.365 43.3688 40.8553C44.7796 41.8552 46.4659 42.3922 48.1949 42.3922C49.9239 42.3922 51.6102 41.8552 53.021 40.8553C54.3485 41.365 55.4901 42.2659 56.2948 43.4387C57.0995 44.6115 57.5293 46.001 57.5275 47.4235V48.444C56.1999 49.5159 54.6983 50.3518 53.0879 50.9153ZM41.6618 33.9892C41.6618 32.6966 42.0449 31.4331 42.7628 30.3583C43.4807 29.2836 44.501 28.4459 45.6948 27.9513C46.8886 27.4566 48.2021 27.3272 49.4694 27.5794C50.7367 27.8315 51.9008 28.454 52.8145 29.368C53.7282 30.282 54.3504 31.4465 54.6025 32.7142C54.8546 33.982 54.7252 35.2961 54.2307 36.4903C53.7362 37.6844 52.8989 38.7051 51.8245 39.4233C50.7501 40.1414 49.487 40.5247 48.1949 40.5247C47.3369 40.5249 46.4872 40.3559 45.6944 40.0276C44.9016 39.6992 44.1812 39.2179 43.5744 38.611C42.9676 38.0041 42.4863 37.2836 42.1579 36.4906C41.8294 35.6976 41.6604 34.8476 41.6604 33.9892H41.6618ZM54.5409 39.4728C55.5949 38.2552 56.2768 36.7602 56.5055 35.1659C56.7342 33.5716 56.5001 31.9452 55.831 30.4802C55.162 29.0152 54.0861 27.7735 52.7315 26.9029C51.377 26.0322 49.8009 25.5693 48.1908 25.5693C46.5807 25.5693 45.0046 26.0322 43.6501 26.9029C42.2955 27.7735 41.2197 29.0152 40.5506 30.4802C39.8815 31.9452 39.6474 33.5716 39.8761 35.1659C40.1048 36.7602 40.7867 38.2552 41.8407 39.4728C40.4893 40.1638 39.3372 41.1895 38.4943 42.4522C37.6514 43.7148 37.1458 45.1723 37.0255 46.6858C35.1159 44.5327 33.8689 41.8735 33.4344 39.0282C33 36.1828 33.3965 33.2725 34.5765 30.6473C35.7564 28.0221 37.6695 25.7938 40.0855 24.2306C42.5015 22.6674 45.3176 21.8357 48.1949 21.8357C51.0722 21.8357 53.8883 22.6674 56.3043 24.2306C58.7203 25.7938 60.6333 28.0221 61.8133 30.6473C62.9932 33.2725 63.3898 36.1828 62.9554 39.0282C62.5209 41.8735 61.2739 44.5327 59.3643 46.6858C59.2436 45.1714 58.7368 43.7132 57.8924 42.4504C57.048 41.1876 55.8942 40.1625 54.5409 39.4728Z" fill="#FFB83A"></path><path d="M40.1674 75.6377C40.4469 75.8443 40.779 75.968 41.1256 75.9946C41.4722 76.0212 41.8193 75.9495 42.127 75.7879L48.2 72.6322L54.266 75.7879C54.5748 75.9484 54.9221 76.0193 55.269 75.9928C55.6159 75.9662 55.9484 75.8432 56.2292 75.6377C56.5099 75.4321 56.7276 75.1522 56.8578 74.8295C56.988 74.5068 57.0254 74.1541 56.9659 73.8112L55.8119 67.1528L60.6926 62.4466C60.9437 62.2041 61.1217 61.8961 61.2066 61.5575C61.2915 61.2189 61.2798 60.8632 61.1729 60.5309C61.0659 60.1986 60.8681 59.903 60.6017 59.6775C60.3353 59.4521 60.011 59.3058 59.6657 59.2553L52.9004 58.2827L49.8756 52.2021C49.7202 51.8918 49.4815 51.6309 49.1863 51.4486C48.8911 51.2662 48.551 51.1696 48.2041 51.1696C47.8571 51.1696 47.517 51.2662 47.2218 51.4486C46.9266 51.6309 46.6879 51.8918 46.5325 52.2021L43.4927 58.2868L36.7329 59.2594C36.3873 59.3097 36.0627 59.4559 35.7961 59.6815C35.5294 59.9071 35.3314 60.2029 35.2244 60.5354C35.1174 60.868 35.1058 61.2239 35.191 61.5627C35.2761 61.9015 35.4545 62.2096 35.7059 62.452L40.588 67.1583L39.4341 73.8166C39.3736 74.1593 39.4105 74.5121 39.5407 74.8347C39.6708 75.1574 39.8889 75.437 40.1701 75.6418L40.1674 75.6377ZM36.9951 61.1037L44.2328 60.0613C44.3819 60.0398 44.5235 59.9826 44.6457 59.8946C44.7679 59.8066 44.8671 59.6904 44.9348 59.5559L48.1931 53.0354L51.4392 59.5545C51.5064 59.6899 51.6056 59.807 51.7281 59.8955C51.8506 59.9841 51.9929 60.0415 52.1425 60.0627L59.4008 61.105L54.1622 66.1597C54.0521 66.2653 53.9695 66.3964 53.9219 66.5415C53.8743 66.6866 53.863 66.8411 53.8891 66.9916L55.1278 74.1404L48.6247 70.7607C48.4918 70.6917 48.3442 70.6557 48.1945 70.6557C48.0448 70.6557 47.8972 70.6917 47.7643 70.7607L41.2613 74.1404L42.4999 66.9943C42.526 66.8439 42.5147 66.6893 42.4671 66.5442C42.4195 66.3992 42.3369 66.268 42.2268 66.1624L36.9951 61.1037Z" fill="#FFB83A"></path><path d="M24.5834 61.272L23.6712 66.5451C23.615 66.8559 23.6471 67.1763 23.764 67.4697C23.8808 67.7631 24.0777 68.0179 24.3321 68.2049C24.5865 68.392 24.8883 68.5038 25.2031 68.5277C25.518 68.5516 25.8332 68.4866 26.1129 68.3402L30.9295 65.832L35.7447 68.3456C35.9641 68.4603 36.2202 68.4831 36.4564 68.4089C36.6927 68.3347 36.8898 68.1697 37.0044 67.9501C37.1191 67.7306 37.1418 67.4745 37.0677 67.2381C36.9935 67.0018 36.8286 66.8046 36.6091 66.6899L31.3637 63.9577C31.2307 63.8883 31.0829 63.852 30.9329 63.852C30.7829 63.852 30.635 63.8883 30.502 63.9577L25.5776 66.5246L26.5103 61.1094C26.5364 60.9589 26.5252 60.8044 26.4776 60.6593C26.4299 60.5142 26.3474 60.3831 26.2372 60.2774L22.2769 56.4523L27.7612 55.6641C27.9106 55.643 28.0526 55.5858 28.1749 55.4975C28.2972 55.4092 28.3961 55.2924 28.4632 55.1572L30.9349 50.2147L33.3931 55.1559C33.4601 55.2915 33.5592 55.4086 33.6817 55.4972C33.8043 55.5858 33.9466 55.643 34.0964 55.6641L39.9562 56.5042C40.2012 56.5392 40.4501 56.4754 40.6481 56.3268C40.846 56.1782 40.9769 55.957 41.0118 55.7119C41.0468 55.4668 40.983 55.2178 40.8344 55.0198C40.6859 54.8218 40.4648 54.6908 40.2198 54.6559L34.8447 53.8854L32.4399 49.0576C32.2999 48.7763 32.0839 48.5398 31.8165 48.3749C31.5491 48.21 31.2409 48.1233 30.9268 48.1246C30.6161 48.1241 30.3116 48.2107 30.0477 48.3747C29.7839 48.5386 29.5713 48.7733 29.4341 49.0521L27.017 53.8854L21.6569 54.6545C21.3427 54.6969 21.0468 54.8273 20.8034 55.0306C20.5601 55.234 20.3792 55.5021 20.2817 55.8039C20.1842 56.1058 20.1739 56.429 20.2522 56.7364C20.3306 57.0438 20.4942 57.3228 20.7242 57.5411L24.5834 61.272Z" fill="#FFB83A"></path><path d="M76.1095 55.7948C76.0138 55.4941 75.8346 55.2268 75.5928 55.0241C75.351 54.8214 75.0566 54.6917 74.7439 54.6501L69.377 53.8796L66.9653 49.0463C66.8285 48.7668 66.6161 48.5312 66.3523 48.3663C66.0885 48.2014 65.7838 48.1137 65.4727 48.1132C65.1585 48.1116 64.8501 48.1982 64.5826 48.3631C64.3152 48.5281 64.0993 48.7647 63.9596 49.0463L61.5561 53.8741L56.1796 54.6446C56.0583 54.6619 55.9416 54.7029 55.8361 54.7654C55.7306 54.8278 55.6385 54.9104 55.565 55.0085C55.4914 55.1065 55.4379 55.2181 55.4075 55.3369C55.377 55.4556 55.3703 55.5792 55.3876 55.7006C55.4049 55.8219 55.4459 55.9387 55.5083 56.0442C55.5707 56.1497 55.6533 56.2419 55.7513 56.3154C55.8494 56.389 55.9609 56.4425 56.0796 56.473C56.1983 56.5034 56.3219 56.5102 56.4432 56.4929L62.3044 55.6527C62.4541 55.6316 62.5964 55.5743 62.719 55.4857C62.8415 55.3972 62.9406 55.2801 63.0077 55.1446L65.4658 50.2088L67.9321 55.1514C67.9994 55.2864 68.0984 55.4031 68.2207 55.4914C68.3429 55.5796 68.4848 55.6369 68.6341 55.6582L74.1171 56.4451L70.1567 60.2702C70.0469 60.3761 69.9647 60.5073 69.9171 60.6523C69.8695 60.7973 69.858 60.9517 69.8836 61.1022L70.8218 66.5174L65.896 63.9478C65.763 63.8784 65.6152 63.8422 65.4652 63.8422C65.3152 63.8422 65.1674 63.8784 65.0343 63.9478L59.789 66.68C59.5695 66.7943 59.4044 66.9911 59.33 67.2272C59.2556 67.4633 59.278 67.7192 59.3923 67.9388C59.5065 68.1584 59.7033 68.3236 59.9393 68.398C60.1753 68.4724 60.4312 68.45 60.6507 68.3357L65.4672 65.8262L70.2838 68.3398C70.5631 68.4846 70.8774 68.5484 71.1911 68.524C71.5048 68.4996 71.8054 68.388 72.059 68.2017C72.3126 68.0155 72.5092 67.762 72.6265 67.4699C72.7438 67.1779 72.7771 66.8588 72.7227 66.5488L71.8132 61.2661L75.682 57.5325C75.9115 57.3126 76.074 57.0321 76.1506 56.7236C76.2272 56.4151 76.2149 56.0911 76.1149 55.7894L76.1095 55.7948Z" fill="#FFB83A"></path><path d="M43.0599 63.9944C43.1057 63.9941 43.1513 63.9905 43.1965 63.9835L46.7061 63.478C46.8553 63.4568 46.9971 63.3997 47.1193 63.3117C47.2416 63.2237 47.3406 63.1073 47.4081 62.9725L49.0318 59.7253C49.0928 59.6151 49.1309 59.4936 49.1439 59.3683C49.1568 59.2429 49.1443 59.1163 49.1071 58.9959C49.0699 58.8755 49.0088 58.7638 48.9275 58.6676C48.8461 58.5714 48.7461 58.4927 48.6336 58.4361C48.5211 58.3795 48.3983 58.3462 48.2726 58.3382C48.1468 58.3302 48.0208 58.3477 47.902 58.3897C47.7833 58.4316 47.6742 58.4971 47.5813 58.5822C47.4884 58.6674 47.4137 58.7704 47.3616 58.8851L45.9619 61.6966L42.9329 62.1324C42.6971 62.1637 42.482 62.2839 42.3319 62.4686C42.1818 62.6533 42.1078 62.8884 42.1253 63.1258C42.1427 63.3632 42.2502 63.5849 42.4257 63.7456C42.6013 63.9063 42.8316 63.9938 43.0695 63.9903L43.0599 63.9944Z" fill="#FFB83A"></path></svg>