<svg width="96" height="96" viewBox="0 0 96 96" fill="none" xmlns="http://www.w3.org/2000/svg"><rect width="96" height="96" rx="48" fill="white"></rect><g clip-path="url(#clip0_11901_222203)"><path d="M66.9909 56.7072C67.9142 56.0333 68.6944 55.1825 69.2861 54.2044C69.8777 53.2263 70.2691 52.1403 70.4374 51.0096C70.6058 49.8789 70.5477 48.726 70.2666 47.6179C69.9854 46.5099 69.4869 45.4687 68.7999 44.555V24.7555C68.8184 24.0458 68.5552 23.3576 68.068 22.8413C67.5807 22.325 66.9089 22.0226 66.1993 22H24.6006C23.891 22.0226 23.2192 22.325 22.7319 22.8413C22.2446 23.3576 21.9815 24.0458 21.9999 24.7555V56.5055C21.9815 57.2152 22.2446 57.9034 22.7319 58.4197C23.2192 58.936 23.891 59.2385 24.6006 59.261H37.8029L36.2425 61.8604H34.1328C33.4431 61.8604 32.7816 62.1344 32.2939 62.6222C31.8062 63.1099 31.5322 63.7714 31.5322 64.4612C31.5322 65.1509 31.8062 65.8124 32.2939 66.3001C32.7816 66.7878 33.4431 67.0618 34.1328 67.0618H49.7367V70.529C49.7367 70.9843 49.8263 71.4351 50.0006 71.8556C50.1748 72.2762 50.4302 72.6584 50.7522 72.9802C51.0742 73.3021 51.4564 73.5573 51.877 73.7314C52.2977 73.9056 52.7485 73.9951 53.2037 73.9949H70.5367C70.9919 73.9951 71.4427 73.9056 71.8633 73.7314C72.284 73.5573 72.6662 73.3021 72.9882 72.9802C73.3102 72.6584 73.5656 72.2762 73.7398 71.8556C73.9141 71.4351 74.0038 70.9843 74.0038 70.529V64.4624C74.0011 62.5313 73.2834 60.6697 71.989 59.2366C70.6947 57.8036 68.9155 56.9007 66.9947 56.7022L66.9909 56.7072ZM61.8657 56.6679C60.4945 56.6679 59.1542 56.2613 58.014 55.4995C56.8739 54.7377 55.9853 53.6549 55.4606 52.388C54.9358 51.1212 54.7985 49.7272 55.0661 48.3823C55.3336 47.0374 55.9939 45.802 56.9635 44.8324C57.933 43.8628 59.1684 43.2025 60.5132 42.935C61.8581 42.6675 63.252 42.8048 64.5189 43.3295C65.7857 43.8543 66.8685 44.7429 67.6303 45.883C68.3921 47.0232 68.7987 48.3636 68.7987 49.7349C68.798 51.5731 68.0675 53.3358 66.7677 54.6356C65.4679 55.9355 63.7052 56.666 61.867 56.6667L61.8657 56.6679ZM24.5993 23.7342H66.1993C66.4477 23.7596 66.6765 23.8801 66.838 24.0705C66.9995 24.2608 67.0811 24.5063 67.0657 24.7555V42.817C65.5376 41.6645 63.6705 41.0511 61.7566 41.0728C59.8427 41.0945 57.99 41.7501 56.4884 42.9369C54.9867 44.1238 53.9209 45.775 53.4577 47.6322C52.9944 49.4893 53.1598 51.4477 53.9281 53.2008H48.0063V52.3343C48.003 50.4881 47.3455 48.7028 46.1505 47.2955C44.9556 45.8882 43.3005 44.9501 41.4793 44.6476C42.7741 43.6567 43.7258 42.2848 44.2006 40.725C44.6753 39.1651 44.6493 37.4957 44.1262 35.9514C43.6031 34.4071 42.6092 33.0656 41.2842 32.1154C39.9591 31.1653 38.3697 30.6543 36.7392 30.6543C35.1087 30.6543 33.5192 31.1653 32.1942 32.1154C30.8692 33.0656 29.8753 34.4071 29.3522 35.9514C28.829 37.4957 28.803 39.1651 29.2778 40.725C29.7526 42.2848 30.7043 43.6567 31.9991 44.6476C30.1781 44.9503 28.5233 45.8886 27.3286 47.2959C26.1339 48.7031 25.4766 50.4883 25.4734 52.3343V53.2008H23.7404V24.7555C23.7249 24.5071 23.8056 24.2624 23.9658 24.072C24.1259 23.8816 24.3533 23.7602 24.6006 23.7329L24.5993 23.7342ZM35.6767 48.0006L35.2429 46.2677H38.2228L37.789 48.0006H35.6767ZM39.3557 48.8887L40.0103 46.2664H40.2006C40.9892 46.2663 41.7702 46.4211 42.4993 46.7219C41.9884 48.8527 41.1953 50.9057 40.1409 52.8265L39.3557 48.8887ZM36.7335 44.5335C35.5336 44.5337 34.3606 44.1781 33.3628 43.5117C32.365 42.8452 31.5873 41.8978 31.1279 40.7893C30.6686 39.6808 30.5482 38.461 30.7822 37.2841C31.0161 36.1072 31.5938 35.0261 32.4421 34.1776C33.2905 33.329 34.3714 32.7511 35.5482 32.5169C36.725 32.2827 37.9449 32.4028 39.0535 32.8619C40.162 33.321 41.1096 34.0986 41.7762 35.0963C42.4428 36.094 42.7987 37.2669 42.7987 38.4669C42.7987 40.0754 42.1599 41.6181 41.0227 42.7557C39.8856 43.8933 38.3432 44.5328 36.7348 44.5335H36.7335ZM33.4567 46.2664L34.1113 48.8887L33.3222 52.8316C32.2683 50.909 31.476 48.8543 30.9664 46.7219C31.6955 46.4211 32.4765 46.2664 33.2651 46.2664H33.4567ZM29.4162 47.653C29.9094 49.5772 30.6224 51.4383 31.5411 53.1995H27.2012V52.333C27.2017 51.4376 27.4007 50.5535 27.7839 49.7442C28.1672 48.935 28.7251 48.2208 29.4174 47.653H29.4162ZM35.711 49.7336H37.756L38.4499 53.2008H35.0183L35.711 49.7336ZM44.0495 47.653C44.7419 48.2208 45.2998 48.935 45.683 49.7442C46.0662 50.5535 46.2653 51.4376 46.2658 52.333V53.1995H41.9259C42.8438 51.4381 43.5563 49.5771 44.0495 47.653ZM23.7341 56.5055V54.9286H54.9493C55.4575 55.6045 56.0613 56.2028 56.7419 56.7047C55.7775 56.8047 54.8406 57.0853 53.9801 57.5319H24.6006C24.3521 57.5062 24.1232 57.3854 23.9618 57.1948C23.8003 57.0043 23.7187 56.7587 23.7341 56.5094V56.5055ZM39.8251 59.261H51.736C51.0554 60.0182 50.5297 60.9013 50.1883 61.8604H38.2634L39.8251 59.261ZM34.1341 65.3276C34.0187 65.3279 33.9044 65.3045 33.7984 65.2589C33.6923 65.2133 33.5968 65.1465 33.5176 65.0625C33.4367 64.9847 33.3725 64.8913 33.3289 64.7879C33.2853 64.6845 33.2631 64.5734 33.2639 64.4612C33.2639 64.2313 33.3551 64.0109 33.5176 63.8484C33.6801 63.6859 33.9005 63.5947 34.1303 63.5947H49.7823C49.7494 63.8823 49.7325 64.1716 49.7316 64.4612V65.3276H34.1341ZM72.267 70.529C72.267 70.9886 72.0845 71.4294 71.7595 71.7544C71.4345 72.0794 70.9937 72.262 70.5341 72.262H53.1999C52.7404 72.2616 52.2999 72.0789 51.975 71.754C51.65 71.4291 51.4674 70.9885 51.467 70.529V64.4624C51.469 62.854 52.1088 61.3122 53.2461 60.1749C54.3833 59.0376 55.9252 58.3978 57.5335 58.3958H66.2006C67.8089 58.3978 69.3507 59.0376 70.488 60.1749C71.6252 61.3122 72.265 62.854 72.267 64.4624V70.529Z" fill="#13D7BC"></path><path d="M64.6741 27.563C64.4177 27.3648 64.1189 27.2287 63.8011 27.1653C63.4833 27.1019 63.1551 27.113 62.8423 27.1977L58.8652 28.2608C58.7923 27.6757 58.5083 27.1374 58.0666 26.7468C57.6249 26.3563 57.0559 26.1404 56.4663 26.1396H47.652C47.0113 26.1403 46.397 26.3952 45.9439 26.8482C45.4909 27.3013 45.236 27.9156 45.2354 28.5564V36.0033C45.236 36.6441 45.4908 37.2586 45.9438 37.7119C46.3969 38.1652 47.0112 38.4203 47.652 38.4213H56.4663C57.0559 38.4206 57.6249 38.2047 58.0666 37.8141C58.5083 37.4236 58.7923 36.8852 58.8652 36.3001L62.8423 37.362C63.0219 37.4098 63.207 37.4342 63.3929 37.4343C63.9521 37.4319 64.4876 37.2083 64.8825 36.8123C65.2773 36.4162 65.4993 35.88 65.5 35.3207V29.2389C65.501 28.9148 65.427 28.5948 65.2837 28.3041C65.1404 28.0133 64.9318 27.7597 64.6741 27.563ZM57.1564 36.0033C57.1564 36.1864 57.0837 36.3621 56.9543 36.4917C56.825 36.6213 56.6494 36.6943 56.4663 36.6947H47.652C47.4689 36.6943 47.2933 36.6213 47.164 36.4917C47.0346 36.3621 46.9619 36.1864 46.9619 36.0033V28.5564C46.9626 28.3736 47.0355 28.1984 47.1648 28.0691C47.2941 27.9399 47.4692 27.8669 47.652 27.8663H56.4663C56.6492 27.8666 56.8246 27.9394 56.9539 28.0688C57.0833 28.1981 57.1561 28.3735 57.1564 28.5564V36.0033ZM63.7721 35.3207C63.7733 35.3803 63.7604 35.4394 63.7346 35.493C63.7087 35.5467 63.6707 35.5936 63.6234 35.6299C63.5761 35.6662 63.521 35.6909 63.4624 35.702C63.4039 35.713 63.3435 35.7102 63.2863 35.6937L59.1684 34.5938C59.0859 34.5725 59.0131 34.5242 58.9613 34.4566C58.9096 34.389 58.8819 34.306 58.8829 34.2208V30.3376C58.883 30.2527 58.911 30.1702 58.9626 30.1028C59.0142 30.0354 59.0865 29.9868 59.1684 29.9646L63.2863 28.8659C63.3198 28.8569 63.3543 28.8522 63.389 28.852C63.4894 28.8536 63.5853 28.8942 63.6563 28.9653C63.7274 29.0363 63.768 29.1322 63.7696 29.2326L63.7721 35.3207Z" fill="#13D7BC"></path></g><defs><clipPath id="clip0_11901_222203"><rect width="52" height="52" fill="white" transform="translate(22 22)"></rect></clipPath></defs></svg>