<svg xmlns="http://www.w3.org/2000/svg" version="1.1" viewBox="0 0 219 56"><g><g id="Layer_1"><path fill="#fff" d="M74,47.3h-4v-3.2h-.4v6.8h.4v-3.3h4v3.3h.4v-6.8h-.4v3.2ZM79.7,46c-.4-.2-.9-.3-1.3-.3-.5,0-.9.1-1.3.3-.4.2-.7.5-.9.9-.2.5-.3.9-.3,1.4s.1,1,.3,1.4c.2.4.5.7.9.9.4.2.9.3,1.3.3.6,0,1.2-.2,1.6-.5.4-.3.7-.8.8-1.3h-.5c0,.4-.3.8-.7,1.1-.4.3-.8.4-1.3.4-.4,0-.7,0-1-.2-.3-.2-.6-.4-.8-.7-.2-.4-.3-.8-.3-1.2h4.6c0-.1,0-.3,0-.5,0-.4,0-.8-.3-1.2-.2-.4-.5-.7-.9-.9ZM76.2,48.2c0-.4.1-.8.3-1.2.2-.3.5-.6.8-.7.3-.2.7-.2,1-.2s.7,0,1,.2c.3.2.6.4.8.7h0c.2.4.3.8.2,1.2h-4.2ZM86.6,47.1c-.2-.4-.4-.8-.8-1-.4-.3-.9-.4-1.4-.4-.5,0-.9.1-1.3.3-.4.2-.7.5-.9.9h0c-.2.4-.3.9-.3,1.4s.1,1,.3,1.4c.2.4.5.7.9,1,.4.2.9.3,1.3.3.5,0,1-.1,1.4-.4.4-.3.7-.6.8-1.1v1.4h.4v-5.3h-.4v1.4ZM86.3,49.6c-.2.3-.5.6-.8.8-.3.2-.7.3-1.1.3-.4,0-.8,0-1.1-.3-.3-.2-.6-.5-.8-.8-.2-.4-.3-.8-.3-1.2,0-.4,0-.9.3-1.2.2-.3.4-.6.8-.8.3-.2.7-.3,1.1-.3.4,0,.8,0,1.1.3.3.2.6.5.8.8h0c.2.4.3.8.3,1.2,0,.4,0,.9-.3,1.2ZM88.6,51h.4v-7.2h-.4v7.2ZM91.5,50.4c-.2-.2-.2-.5-.2-.8v-3.5h1.6v-.4h-1.6v-1.3h-.4v1.3h-.8v.4h.8v3.5c0,.4,0,.8.3,1.1.1.1.3.2.5.3.2,0,.4,0,.5,0h.7v-.4h-.6c-.3,0-.5,0-.8-.2ZM97.9,46.2c-.2-.2-.4-.3-.7-.4-.3,0-.5-.1-.8-.1-.4,0-.8.1-1.2.3-.3.2-.6.5-.8.9v-3h-.4v7.2h.4v-2.9c0-.6.1-1.2.5-1.6.2-.2.4-.3.6-.4.2,0,.5-.1.7-.1.2,0,.5,0,.7.1.2,0,.4.2.6.4.3.4.5.9.5,1.4v3.1h.4v-3.1c0-.3,0-.6-.1-.9-.1-.3-.3-.6-.5-.8ZM101.2,46.3c.3-.2.7-.3,1.1-.3.5,0,.9.1,1.3.4.4.3.6.6.7,1.1h.5c0-.5-.4-1-.8-1.3-.5-.3-1.1-.5-1.6-.5-.5,0-.9.1-1.3.3-.4.2-.7.5-.9.9-.2.4-.3.9-.3,1.4,0,.5.1,1,.3,1.4.2.4.5.7.9.9.4.2.9.3,1.3.3.6,0,1.2-.2,1.6-.5.4-.3.7-.8.8-1.3h-.5c0,.2-.1.4-.2.6-.1.2-.3.3-.4.5-.3.2-.8.4-1.2.4-.4,0-.8,0-1.2-.3-.3-.2-.6-.5-.8-.8-.2-.4-.3-.8-.3-1.3s0-.9.3-1.3c.2-.3.4-.6.8-.8ZM110.5,47.1c-.2-.4-.4-.8-.8-1-.4-.3-.9-.4-1.4-.4-.5,0-.9.1-1.3.3-.4.2-.7.5-.9.9h0c-.2.4-.3.9-.3,1.4s.1,1,.3,1.4c.2.4.5.7.9,1,.4.2.9.3,1.3.3.5,0,1-.1,1.4-.4.4-.3.7-.6.8-1.1v1.4h.4v-5.3h-.4v1.4ZM110.3,49.6c-.2.3-.5.6-.8.8-.3.2-.7.3-1.1.3-.4,0-.8,0-1.1-.3-.3-.2-.6-.5-.8-.8-.2-.4-.3-.8-.3-1.2s0-.9.3-1.2c.2-.3.4-.6.8-.8.3-.2.7-.3,1.1-.3.4,0,.8,0,1.1.3.3.2.6.5.8.8h0c.2.4.3.8.3,1.2,0,.4,0,.9-.3,1.2ZM113,46.8v-1.1h-.4v5.3h.4v-3.1c0-.3,0-.5,0-.8,0-.2.2-.5.4-.7.4-.3.8-.5,1.3-.4h.2v-.5c-.4,0-.9,0-1.3.3-.3.2-.6.5-.7.9ZM119.5,46c-.4-.2-.9-.3-1.3-.3-.5,0-.9.1-1.3.3-.4.2-.7.5-.9.9-.2.5-.3.9-.3,1.4s.1,1,.3,1.4c.2.4.5.7.9.9.4.2.9.3,1.3.3.6,0,1.2-.2,1.6-.5.4-.3.7-.8.8-1.3h-.5c0,.4-.3.8-.7,1.1-.4.3-.8.4-1.3.4-.4,0-.7,0-1-.2-.3-.2-.6-.4-.8-.7-.2-.4-.3-.8-.3-1.2h4.6c0-.1,0-.3,0-.5,0-.4-.1-.8-.3-1.2-.2-.4-.5-.7-.9-.9ZM116.1,48.2c0-.4.1-.8.3-1.2.2-.3.5-.6.8-.7.3-.2.7-.2,1-.2.4,0,.7,0,1,.2.3.2.6.4.8.7h0c.2.4.3.8.3,1.2h-4.2ZM126.7,44.3l-2.5,6.7h.5l.6-1.8h3.3l.7,1.8h.5l-2.5-6.7h-.5ZM125.4,48.9l1.5-4,1.5,4h-3ZM134.7,46.2c-.2-.2-.4-.3-.7-.4-.3,0-.5-.1-.8-.1-.4,0-.8.1-1.2.3-.3.2-.6.5-.7.9v-1.1h-.4v5.3h.4v-2.9c0-.6.1-1.2.5-1.6.2-.2.4-.3.6-.4.2,0,.5-.1.7-.1.2,0,.5,0,.7.1.2,0,.4.2.6.4.3.4.5.9.5,1.4v3.1h.4v-3.1c0-.3,0-.6-.1-.9-.1-.3-.3-.6-.5-.8ZM138.6,50.5l-2-4.8h-.5l2.2,5.3-1,2.5h.4l3.1-7.8h-.4s-1.9,4.8-1.9,4.8ZM142.7,50.4c-.2-.2-.2-.5-.2-.8v-3.5h1.6v-.4h-1.6v-1.3h-.4v1.3h-.8v.4h.8v3.5c0,.4,0,.8.3,1.1.1.1.3.2.5.3.2,0,.4,0,.5,0h.7v-.4h-.6c-.3,0-.5,0-.8-.2ZM145.2,51h.4v-5.3h-.4v5.3ZM145.7,43.9s0,0-.1,0c0,0,0,0-.1,0,0,0,0,0-.1,0,0,0,0,0-.1,0,0,0,0,0,0,.1,0,0,0,0,0,.1,0,0,0,.1,0,.2,0,0,0,0,0,.1,0,0,.2.1.3.1,0,0,.1,0,.1,0,0,0,0,0,.1,0,0,0,0,0,0-.1,0,0,0,0,0-.1,0,0,0-.1,0-.1,0,0,0,0,0-.1ZM155,46.2c-.2-.2-.4-.3-.7-.4-.3,0-.5-.1-.8-.1-.4,0-.9.1-1.3.4-.4.3-.6.7-.7,1.1,0-.4-.4-.8-.7-1.1-.4-.3-.8-.4-1.2-.4-.4,0-.8.1-1.2.3-.3.2-.6.6-.7.9v-1.1h-.4v5.3h.4v-2.8c0-.6.1-1.2.5-1.6.2-.2.4-.3.6-.4.2,0,.5-.1.7-.1.2,0,.5,0,.7.1.2,0,.4.2.6.4.3.4.5.9.5,1.4v3.1h.4v-2.8c0-.6.1-1.2.5-1.6.2-.2.4-.3.6-.4.2,0,.5-.1.7-.1.2,0,.5,0,.7.1.2,0,.4.2.6.4.3.4.5.9.5,1.4v3.1h.4v-3.1c0-.3,0-.6-.1-.9,0-.3-.3-.6-.5-.8ZM160.7,46c-.4-.2-.9-.3-1.3-.3-.5,0-.9.1-1.3.3-.4.2-.7.5-.9.9-.2.5-.3.9-.3,1.4s.1,1,.3,1.4c.2.4.5.7.9.9.4.2.9.3,1.3.3.6,0,1.2-.2,1.6-.5.4-.3.7-.8.8-1.3h-.5c0,.4-.3.8-.7,1.1-.4.3-.8.4-1.3.4-.4,0-.7,0-1-.2-.3-.2-.6-.4-.8-.7-.2-.4-.3-.8-.3-1.2h4.6c0-.1,0-.3,0-.5,0-.4,0-.8-.3-1.2-.2-.4-.5-.7-.9-.9ZM157.2,48.2c0-.4.1-.8.3-1.2.2-.3.5-.6.8-.7.3-.2.7-.2,1-.2.4,0,.7,0,1,.2.3.2.6.4.8.7h0c.2.4.3.8.2,1.2h-4.2ZM167.9,44.3l-2.5,6.7h.5l.6-1.8h3.3l.7,1.8h.5l-2.5-6.7h-.5ZM166.6,48.9l1.5-4,1.5,4h-3ZM175.8,46.2c-.2-.2-.4-.3-.7-.4-.3,0-.5-.1-.8-.1-.4,0-.8.1-1.2.3-.3.2-.6.5-.7.9v-1.1h-.4v5.3h.4v-2.9c0-.6.1-1.2.5-1.6.2-.2.4-.3.6-.4.2,0,.5-.1.7-.1.2,0,.5,0,.7.1.2,0,.4.2.6.4.3.4.5.9.5,1.4v3.1h.4v-3.1c0-.3,0-.6-.1-.9-.1-.3-.3-.6-.5-.8ZM179.8,50.5l-2-4.8h-.5l2.2,5.3-1,2.5h.4l3.1-7.8h-.4s-1.9,4.8-1.9,4.8ZM188.1,50.5l-1.7-4.8h-.4l-1.7,4.8-1.4-4.8h-.5l1.7,5.3h.4l1.7-4.7,1.7,4.7h.4l1.7-5.3h-.4l-1.4,4.8ZM194.8,46.2c-.2-.2-.4-.3-.7-.4-.3,0-.5-.1-.8-.1-.4,0-.8.1-1.2.3-.4.2-.6.5-.8.9v-3h-.4v7.2h.4v-2.9c0-.6.1-1.2.5-1.6.2-.2.4-.3.6-.4.2,0,.5-.1.7-.1.2,0,.5,0,.7.1.2,0,.4.2.6.4.3.4.5.9.5,1.4v3.1h.4v-3.1c0-.3,0-.6-.1-.9-.1-.3-.3-.6-.5-.8ZM200.6,46c-.4-.2-.9-.3-1.3-.3-.5,0-.9.1-1.3.3-.4.2-.7.5-.9.9-.2.5-.3.9-.3,1.4s.1,1,.3,1.4c.2.4.5.7.9.9.4.2.9.3,1.3.3.6,0,1.2-.2,1.6-.5.4-.3.7-.8.8-1.3h-.5c0,.4-.3.8-.7,1.1-.4.3-.8.4-1.3.4-.4,0-.7,0-1-.2-.3-.2-.6-.4-.8-.7-.2-.4-.3-.8-.3-1.2h4.6c0-.1,0-.3,0-.5,0-.4,0-.8-.3-1.2-.2-.4-.5-.7-.9-.9ZM197.1,48.2c0-.4.1-.8.3-1.2.2-.3.5-.6.8-.7.3-.2.7-.2,1-.2s.7,0,1,.2c.3.2.6.4.8.7h0c.2.4.3.8.3,1.2h-4.2ZM203.4,46.8v-1.1h-.4v5.3h.4v-3.1c0-.3,0-.5,0-.8,0-.2.2-.5.4-.7.4-.3.8-.5,1.3-.4h.1v-.5c-.4,0-.9,0-1.3.3-.3.2-.6.5-.7.9ZM211.1,48c0-.4,0-.8-.3-1.2-.2-.4-.5-.7-.9-.9-.4-.2-.9-.3-1.3-.3-.5,0-.9.1-1.3.3-.4.2-.7.5-.9.9-.2.5-.3.9-.3,1.4s.1,1,.3,1.4c.2.4.5.7.9.9.4.2.9.3,1.3.3.6,0,1.2-.2,1.6-.5.4-.3.7-.8.8-1.3h-.5c0,.4-.3.8-.7,1.1-.4.3-.8.4-1.3.4-.4,0-.7,0-1-.2-.3-.2-.6-.4-.8-.7-.2-.4-.3-.8-.3-1.2h4.6c0-.1,0-.3,0-.5ZM206.5,48.2c0-.4.1-.8.3-1.2.2-.3.4-.6.8-.7.3-.2.7-.2,1-.2.4,0,.7,0,1,.2.3.2.6.4.8.7h0c.2.4.3.8.2,1.2h-4.2Z"></path><path fill="#fff" d="M15.2,34c-.2-.3-.5-.6-.9-.7-.4-.2-.8-.2-1.2-.1-.4,0-.7.3-1,.5-.3.3-.5.6-.6,1,0,.4,0,.8.1,1.2.2.4.4.7.7.9.3.2.7.3,1.1.3.3,0,.5,0,.8-.2.2-.1.5-.2.7-.4.2-.2.3-.4.4-.6.1-.2.2-.5.2-.8,0-.4-.1-.8-.3-1.1ZM29.5,34.8c-.1,0-.2-.1-.4-.1s-.3,0-.4.1c-.1,0-.2.2-.2.3,0,.1,0,.3,0,.4,0,.1,0,.2.2.3.1.1.3.2.5.2s.3,0,.5-.2c0,0,.2-.2.2-.3,0-.1,0-.3,0-.4,0-.1-.1-.2-.2-.3ZM56.2,12.9c0-1.9,0-3.8,0-5.7v-1.8c0-1.6.3-3.3-1-4.4-1.1-.8-2.4-1.1-3.7-.9H3.5c-.8,0-1.7.3-2.3.9S.2,2.3.1,3.1c0,0,0,19.9,0,19.9v22.7c0,1.6,0,3.2,0,4.8-.2,1.4,0,2.8.7,4,.4.5.9.8,1.5,1.1.6.2,1.2.3,1.8.3,1.6,0,3.1,0,4.7,0h39.5c1.1,0,2.2,0,3.4,0,2.2,0,4.6-.8,4.6-3.4v-30.9c0,0,0,0,0,0,0-2.9,0-5.9,0-8.8ZM46.3,33.9c-.4,3-1.5,5.8-3.4,8.2-1.8,2.4-4.2,4.3-7,5.5-2.8,1.2-5.8,1.6-8.8,1.3-3-.3-5.8-1.4-8.3-3.2-2.4-1.8-4.4-4.1-5.6-6.9,0,0,0,0,0,0h0c-.9,0-1.8-.5-2.4-1.2-.6-.7-1-1.6-.9-2.5,0-.9.4-1.8,1.1-2.5.7-.6,1.6-1,2.5-1h0c1,0,1.9.4,2.5,1,.7.7,1.1,1.6,1.1,2.5s-.4,1.9-1.1,2.5c-.2.2-.4.3-.6.5,0,0,0,0,0,0,1.2,2.6,3,4.7,5.4,6.3,2.3,1.5,5.1,2.4,7.9,2.5v-3s0,0,0,0c0,0,0,0,0,0h1.9s0,0,0,0,0,0,0,0v2.9s0,0,0,0c3.6-.4,6.9-2,9.4-4.6,2.5-2.6,4-6,4.2-9.6,0,0,0,0,0,0h-2.9s0,0,0,0c0,0,0,0,0,0v-1.9s0,0,0,0c0,0,0,0,0,0h2.9c-.3-3.4-1.6-6.5-3.9-9-2.3-2.5-5.3-4.2-8.6-4.7,0,0,0,0,0,0,0,0,0,0,0,0-.3,2.1-1.2,4.1-2.8,5.5-.1.1-.3.2-.4.3-.2,0-.3,0-.5,0-2.7,2.4-6,4-9.5,4.5-4.7.4-5.4-1.6-6.5-5-.2,0-.4-.2-.6-.4-.1-.2-.2-.4-.3-.7,0-.2,0-.3,0-.5,0-.2.1-.3.2-.5.1-.1.2-.2.4-.3.2,0,.3-.1.5-.1s.3,0,.5,0c.2,0,.3.1.5.2.1.1.2.2.3.4s.1.3.1.5c0,.3,0,.6-.2.8h0c1.1,3.3,1.4,4.2,4.7,3.9,3.2-.5,6.1-1.9,8.5-4,0-.3.1-.7.3-.9.7-.5,1.3-1.2,1.7-2,.4-.8.5-1.7.4-2.6,0-.9-.4-1.7-.9-2.5-.5-.7-1.2-1.3-2-1.7-.1,0-.2-.2-.3-.4,0-.1-.1-.3-.2-.5-2.7-1.7-5.9-2.5-9.1-2.4-3.4.3-3.5,1.2-3.9,4.7.1.2.3.3.3.5,0,.2,0,.4,0,.6s-.1.4-.3.6c-.1.2-.3.3-.5.4-.2,0-.4.1-.6.1-.2,0-.4,0-.6-.2-.2-.1-.3-.3-.4-.4-.1-.2-.2-.4-.2-.6,0-.2,0-.5.1-.7.1-.2.3-.4.5-.5.5-3.5.8-5.7,5.4-6.1,3.6-.2,7.2.7,10.2,2.6.2,0,.4,0,.5,0,.2,0,.3.1.5.2,1.7,1.1,3,2.7,3.7,4.6,0,0,0,0,0,0h0c3,.5,5.8,1.7,8.2,3.5,2.4,1.8,4.2,4.3,5.4,7.1,1.1,2.8,1.5,5.8,1.2,8.8ZM31.2,35.5c0,.3-.1.7-.3,1s-.4.5-.7.7c-.3.2-.6.3-1,.3s-.7,0-1-.3c-.3-.2-.5-.4-.7-.7-.2-.3-.3-.6-.3-1,0-.3,0-.7.2-1l-3.4-3.4c-.1-.1-.2-.3-.2-.5,0-.2,0-.3.2-.5.1-.1.3-.2.5-.2.2,0,.4,0,.5.2l3.4,3.4c.3-.1.6-.2.9-.2s.6,0,.9.2l7.2-7.2c0,0,.1-.1.2-.1,0,0,.2,0,.3,0s.2,0,.3,0c0,0,.2,0,.2.1,0,0,.1.1.1.2,0,0,0,.2,0,.3,0,0,0,.2,0,.3,0,0,0,.2-.1.2l-7.2,7.2c.1.3.2.6.2,1Z"></path><path fill="#fff" d="M88.2,8.3c-1.2-1.1-2.5-2-4.1-2.6-1.7-.6-3.5-.9-5.4-.9h-8.5v25h8.5c1.8,0,3.6-.3,5.4-.9,1.5-.6,2.9-1.4,4.1-2.6,1.1-1.1,2-2.5,2.6-3.9,1.2-3.3,1.2-6.9,0-10.2-.6-1.5-1.4-2.8-2.6-4ZM86.4,20.6c-.3,1-.9,1.8-1.6,2.5-.7.7-1.6,1.3-2.6,1.6-1.2.4-2.4.6-3.6.6h-3.5V9.3h3.5c1.2,0,2.5.2,3.6.6,1,.3,1.9.9,2.6,1.6.7.7,1.2,1.6,1.6,2.5.7,2.1.7,4.5,0,6.6ZM109.1,14.7c-.8-.8-1.8-1.5-2.9-1.9-1.2-.5-2.4-.7-3.7-.7-1.2,0-2.5.2-3.6.7-1.1.4-2.1,1.1-2.9,1.9-.8.8-1.5,1.8-1.9,2.9-.9,2.4-.9,5,0,7.3.4,1.1,1.1,2.1,1.9,2.9.8.8,1.8,1.5,2.9,1.9,2.4.9,5,.9,7.3,0,1.1-.4,2.1-1.1,2.9-1.9.8-.8,1.5-1.8,1.9-2.9.9-2.4.9-5,0-7.3-.4-1.1-1.1-2.1-1.9-2.9ZM106.7,23.3c-.2.6-.6,1.1-1,1.5-.4.4-.9.7-1.5,1-.5.2-1.1.3-1.7.3h0c-.6,0-1.2-.1-1.7-.3-.5-.2-1-.5-1.4-1-.4-.4-.8-1-1-1.5-.5-1.3-.5-2.8,0-4.1.2-.6.6-1.1,1-1.5.4-.4.9-.7,1.4-1,.5-.2,1.1-.3,1.7-.3.6,0,1.2.1,1.7.3.5.2,1,.5,1.5,1,.4.4.8,1,1,1.5.5,1.3.5,2.8,0,4.1ZM125.1,25.5c-.7.4-1.6.7-2.4.6-.6,0-1.2-.1-1.7-.4-.5-.2-1-.6-1.4-1-.4-.4-.7-.9-.9-1.5-.5-1.3-.5-2.7,0-4.1.2-.6.5-1.1,1-1.5.4-.4.9-.7,1.4-1,.5-.2,1.1-.4,1.7-.3.8,0,1.6.2,2.3.6.7.5,1.2,1.1,1.5,1.8l4.2-1.7c-.6-1.4-1.7-2.7-3-3.5-1.5-.9-3.2-1.4-5-1.4-1.3,0-2.5.2-3.7.7-1.1.4-2.1,1.1-2.9,1.9-.8.8-1.5,1.8-1.9,2.9-.5,1.2-.7,2.4-.7,3.7,0,1.3.2,2.5.7,3.7.4,1.1,1.1,2.1,1.9,2.9.8.8,1.8,1.5,2.9,1.9,1.2.5,2.4.7,3.7.7,1.8,0,3.5-.4,5-1.4,1.3-.9,2.4-2.1,3.1-3.5l-4.2-1.8c-.3.8-.9,1.4-1.6,1.9ZM132.5,9.3h7v20.5h4.7V9.3h7v-4.5h-18.7v4.5ZM157.7,5.4c-.4-.4-.9-.7-1.5-.8-.6-.1-1.2,0-1.7.2-.7.3-1.3.9-1.6,1.6-.3.7-.3,1.6,0,2.3.2.3.4.7.6.9.3.3.6.5.9.6.4.2.7.2,1.1.2.4,0,.8,0,1.1-.2.4-.1.7-.4,1-.6.3-.3.5-.6.6-1,.2-.4.2-.7.2-1.1s0-.8-.2-1.1c-.1-.4-.4-.7-.6-1ZM153.3,29.8h4.6s0-17.1,0-17.1h-4.6v17.1ZM187.6,14c-.5-.6-1.2-1.1-1.9-1.4-.9-.4-1.8-.5-2.7-.5-1.3,0-2.5.3-3.6.9-.9.6-1.7,1.3-2.3,2.2-.4-.9-1.1-1.7-1.9-2.2-1-.6-2.1-.9-3.3-.9-1.1,0-2.1.3-3.1.8-.9.5-1.6,1.2-2.2,2h-.3v-2.2h-4.3v17.1h4.6v-8.3c0-.7,0-1.4.2-2,.1-.6.4-1.1.7-1.6.3-.4.7-.8,1.1-1.1.5-.3,1-.4,1.5-.4,2,0,3,1.2,3,3.5v10h4.6v-8.3c0-.7,0-1.4.3-2,.2-.6.4-1.1.7-1.6.3-.4.7-.8,1.2-1.1.5-.3,1-.4,1.6-.4,1.9,0,2.9,1.2,2.9,3.5v10h4.6v-10.8c0-.9-.1-1.9-.4-2.8-.2-.8-.6-1.5-1.1-2.2ZM208.8,17.5c-.3-1.1-.9-2-1.6-2.8-.7-.8-1.7-1.5-2.7-1.9-1.2-.5-2.4-.7-3.7-.7-1.2,0-2.5.2-3.6.7-2.1.9-3.8,2.7-4.7,4.9-.4,1.1-.7,2.3-.7,3.5,0,1.3.2,2.5.7,3.7.4,1.1,1.1,2.1,1.9,2.9.8.8,1.8,1.5,2.9,1.9,1.2.5,2.4.7,3.6.7,1.7,0,3.4-.4,4.9-1.3,1.3-.8,2.4-2,3.2-3.4l-3.8-1.9c-.4.7-1,1.3-1.6,1.8-.8.5-1.7.8-2.6.7-.5,0-1.1,0-1.6-.2-.5-.2-1-.4-1.4-.7-.4-.3-.8-.8-1.1-1.3-.3-.6-.5-1.2-.6-1.8h12.9c0-.1,0-.3,0-.4,0-.1,0-.3,0-.4v-.4c0-1.2-.2-2.4-.6-3.6ZM196.7,19c.3-.9.8-1.8,1.6-2.3.7-.6,1.7-.9,2.6-.8.6,0,1.2,0,1.8.3.5.2.9.5,1.3.8.3.3.6.7.8,1,.2.3.3.7.3,1h-8.3Z"></path><path fill="#c9dcfb" d="M209.4,37.1H70.3v.5h139.1v-.5Z"></path><path fill="#fff" d="M213.4,11.9v.4h-1.2v3.8h-.6v-3.8h-1.2v-.4h2.9Z"></path><path fill="#c9dcfb" d="M218.4,11.9v4.2h-.6v-3.1l-1.4,3.1h-.4l-1.4-3.1v3.1h-.6v-4.2h.6l1.6,3.5,1.6-3.5h.6Z"></path></g></g></svg>