<svg width="224" height="56" viewBox="0 0 224 56" fill="none" xmlns="http://www.w3.org/2000/svg"><path d="M74.45 44.188v6.845h-.43v-3.315h-4.021v3.315h-.432v-6.846H70v3.159h4.005v-3.158zm6.324 4.367h-4.582c0 .42.107.835.313 1.202a1.9 1.9 0 0 0 .775.732c.323.165.68.249 1.043.245a2.16 2.16 0 0 0 1.31-.383 1.67 1.67 0 0 0 .664-1.05h.457a2.1 2.1 0 0 1-.8 1.31 2.58 2.58 0 0 1-1.63.502 2.66 2.66 0 0 1-1.331-.332 2.3 2.3 0 0 1-.92-.95 3.34 3.34 0 0 1 0-2.89c.207-.397.525-.725.916-.943.41-.223.871-.336 1.339-.327.463-.012.92.1 1.324.327.363.2.663.498.863.861.194.358.295.76.293 1.167-.012.234-.02.41-.034.53m-.671-1.55a1.75 1.75 0 0 0-.755-.725 2.38 2.38 0 0 0-2.066 0 1.94 1.94 0 0 0-.775.725 2.4 2.4 0 0 0-.317 1.189h4.163a2.13 2.13 0 0 0-.247-1.19zm2.024-.06c.205-.396.52-.724.908-.945.404-.225.86-.34 1.323-.332a2.43 2.43 0 0 1 1.427.411c.375.255.661.619.82 1.042v-1.384h.431v5.293h-.43V49.64c-.16.43-.45.8-.83 1.059a2.4 2.4 0 0 1-1.423.415 2.6 2.6 0 0 1-1.324-.338 2.3 2.3 0 0 1-.908-.956 3.3 3.3 0 0 1 0-2.873zm4.193.215a2.05 2.05 0 0 0-.787-.818 2.2 2.2 0 0 0-1.115-.289 2.26 2.26 0 0 0-1.133.278 1.93 1.93 0 0 0-.763.805c-.19.388-.283.815-.274 1.247-.011.431.083.859.274 1.246.171.338.438.619.768.807.345.193.735.29 1.13.284a2.2 2.2 0 0 0 1.117-.286c.336-.192.61-.477.788-.82.197-.38.294-.805.284-1.233a2.5 2.5 0 0 0-.284-1.226zm2.718-3.345v7.216h-.432v-7.216zm2.222 2.297v3.5c-.032.286.045.574.215.806.217.168.49.245.764.215h.586v.392h-.664a1.4 1.4 0 0 1-1.02-.328 1.5 1.5 0 0 1-.328-1.076v-3.509h-.8v-.38h.8v-1.348h.431v1.347h1.575v.381h-1.575zm6.627.097a2.3 2.3 0 0 1 .597 1.722v3.102h-.431v-3.072a2.02 2.02 0 0 0-.479-1.446 1.7 1.7 0 0 0-1.294-.502 1.8 1.8 0 0 0-1.374.545 2.28 2.28 0 0 0-.513 1.617v2.858h-.432v-7.218h.432v3.042c.138-.382.404-.705.754-.913a2.3 2.3 0 0 1 1.213-.316 2.1 2.1 0 0 1 1.527.581m2.156.726c.205-.395.521-.722.909-.943a2.7 2.7 0 0 1 1.332-.327 2.6 2.6 0 0 1 1.638.498c.425.329.71.806.798 1.336h-.46a1.65 1.65 0 0 0-.66-1.076 2.16 2.16 0 0 0-1.313-.392 2.2 2.2 0 0 0-1.064.256 1.9 1.9 0 0 0-.767.79 3.05 3.05 0 0 0 0 2.583c.173.332.44.606.767.788a2.35 2.35 0 0 0 2.373-.127 1.64 1.64 0 0 0 .66-1.076h.459a2.15 2.15 0 0 1-.8 1.337c-.469.35-1.045.53-1.631.508a2.63 2.63 0 0 1-1.332-.332 2.3 2.3 0 0 1-.909-.949 3.06 3.06 0 0 1-.33-1.447c-.01-.495.103-.986.33-1.427m6.02.01c.206-.396.521-.724.908-.945.404-.226.86-.34 1.322-.332a2.43 2.43 0 0 1 1.429.411c.375.255.661.618.821 1.042v-1.384h.432v5.293h-.432V49.64c-.159.43-.448.8-.828 1.059a2.4 2.4 0 0 1-1.424.415 2.6 2.6 0 0 1-1.324-.338 2.3 2.3 0 0 1-.906-.956 3.3 3.3 0 0 1 0-2.874zm4.194.215a2.05 2.05 0 0 0-.788-.818 2.2 2.2 0 0 0-1.115-.289 2.26 2.26 0 0 0-1.132.278 1.9 1.9 0 0 0-.764.805 2.97 2.97 0 0 0 0 2.493c.17.338.437.62.766.807.344.192.733.29 1.128.284.391.005.777-.094 1.117-.286.336-.192.61-.477.788-.82a2.6 2.6 0 0 0 .286-1.233 2.54 2.54 0 0 0-.282-1.226zm3.414-1.224a2.4 2.4 0 0 1 1.271-.308v.458h-.15a1.92 1.92 0 0 0-1.293.444 1.82 1.82 0 0 0-.52 1.446v3.053h-.432v-5.294h.432v1.094a1.62 1.62 0 0 1 .692-.893m6.995 2.618h-4.582c-.001.42.107.835.313 1.202.182.312.45.566.772.731.323.165.681.25 1.044.246.467.017.928-.117 1.312-.383.349-.252.586-.628.662-1.05h.46c-.094.52-.381.988-.803 1.31a2.6 2.6 0 0 1-1.633.502 2.65 2.65 0 0 1-1.328-.332 2.3 2.3 0 0 1-.918-.95 3.35 3.35 0 0 1 0-2.89 2.3 2.3 0 0 1 .918-.943c.41-.223.872-.336 1.339-.327a2.6 2.6 0 0 1 1.322.327c.363.2.662.498.863.86.195.359.297.76.296 1.168-.018.234-.024.41-.037.53m-.671-1.55a1.76 1.76 0 0 0-.757-.725 2.26 2.26 0 0 0-1.034-.237 2.3 2.3 0 0 0-1.033.237c-.32.164-.588.416-.772.725a2.4 2.4 0 0 0-.317 1.188h4.164a2.23 2.23 0 0 0-.251-1.19zm8.569 2.272h-3.256l-.646 1.755h-.477l2.522-6.693h.489l2.513 6.692h-.478zm-.134-.37-1.488-3.987-1.493 3.987zm6.264-2.698a2.3 2.3 0 0 1 .597 1.722v3.102h-.432v-3.072a2 2 0 0 0-.478-1.447 1.7 1.7 0 0 0-1.294-.501 1.8 1.8 0 0 0-1.377.545 2.3 2.3 0 0 0-.511 1.616v2.859h-.431v-5.295h.431v1.123c.136-.381.4-.703.747-.913a2.3 2.3 0 0 1 1.208-.316 2.1 2.1 0 0 1 1.54.577m6.241-.474-3.089 7.782h-.448l.988-2.486-2.226-5.294h.478l1.994 4.807 1.855-4.807zm1.586.377v3.5c-.032.286.044.574.215.806.216.169.491.246.764.215h.596v.392h-.661a1.4 1.4 0 0 1-1.02-.328 1.5 1.5 0 0 1-.328-1.076v-3.509h-.809v-.38h.799v-1.348h.43v1.347h1.573v.381h-1.57zm2.649-1.657a.37.37 0 0 1-.107-.278.4.4 0 0 1 .107-.274.37.37 0 0 1 .264-.107.37.37 0 0 1 .265.107q.053.056.081.127a.4.4 0 0 1 .028.147.37.37 0 0 1-.227.355.4.4 0 0 1-.147.026.38.38 0 0 1-.264-.103m.478 1.28v5.296h-.432v-5.295zm9.328.474a2.34 2.34 0 0 1 .575 1.722v3.102h-.431v-3.072a2.07 2.07 0 0 0-.455-1.447 1.58 1.58 0 0 0-1.245-.501 1.67 1.67 0 0 0-1.319.566 2.4 2.4 0 0 0-.499 1.638v2.818h-.431v-3.072a2.07 2.07 0 0 0-.458-1.447 1.58 1.58 0 0 0-1.244-.501 1.67 1.67 0 0 0-1.32.566 2.4 2.4 0 0 0-.5 1.638v2.818h-.432v-5.293h.432v1.149a1.8 1.8 0 0 1 .728-.943 2.13 2.13 0 0 1 1.159-.318 2.06 2.06 0 0 1 1.246.374c.364.272.618.664.718 1.107.094-.446.352-.841.723-1.107a2.12 2.12 0 0 1 1.257-.374 2 2 0 0 1 1.496.576m6.847 2.346h-4.582c-.001.42.105.834.31 1.202.182.313.452.567.775.731s.681.25 1.044.246c.465.016.924-.118 1.307-.383.348-.252.587-.628.664-1.05h.457a2.1 2.1 0 0 1-.802 1.31 2.57 2.57 0 0 1-1.629.502 2.66 2.66 0 0 1-1.331-.332 2.33 2.33 0 0 1-.918-.95 3.3 3.3 0 0 1-.331-1.445c0-.5.114-.994.331-1.445.206-.397.524-.724.914-.943a2.7 2.7 0 0 1 1.34-.327c.463-.011.919.102 1.324.327.363.2.663.498.863.86.196.359.297.76.295 1.168-.015.234-.021.41-.031.53m-.671-1.55a1.76 1.76 0 0 0-.758-.725 2.25 2.25 0 0 0-1.035-.237 2.3 2.3 0 0 0-1.031.237c-.32.165-.587.416-.77.725a2.36 2.36 0 0 0-.317 1.189h4.162a2.23 2.23 0 0 0-.249-1.19zm8.564 2.272h-3.252l-.648 1.755h-.478l2.521-6.693h.49l2.513 6.692h-.481zm-.138-.37-1.488-3.987-1.492 3.987zm6.269-2.698a2.3 2.3 0 0 1 .595 1.722v3.102h-.432v-3.072a2.02 2.02 0 0 0-.48-1.447 1.7 1.7 0 0 0-1.295-.501 1.8 1.8 0 0 0-1.374.545 2.28 2.28 0 0 0-.513 1.616v2.859h-.432v-5.296h.432v1.124c.136-.381.4-.704.748-.913a2.3 2.3 0 0 1 1.206-.316 2.12 2.12 0 0 1 1.545.577m6.239-.474L179 53.518h-.449l.988-2.486-2.227-5.294h.48l1.992 4.807 1.855-4.807zm7.874 0-1.671 5.294h-.419l-1.691-4.689-1.702 4.689h-.418l-1.672-5.294h.46l1.427 4.8 1.704-4.8h.419l1.691 4.78 1.426-4.78zm4.853.474a2.28 2.28 0 0 1 .597 1.722v3.102h-.432v-3.072a2.02 2.02 0 0 0-.478-1.446 1.7 1.7 0 0 0-1.294-.502 1.8 1.8 0 0 0-1.375.545 2.3 2.3 0 0 0-.511 1.617v2.858h-.431v-7.218h.431v3.042a1.76 1.76 0 0 1 .754-.913 2.3 2.3 0 0 1 1.214-.316 2.1 2.1 0 0 1 1.525.581m6.861 2.345h-4.582c-.001.42.107.835.313 1.202.183.313.451.566.774.731s.681.25 1.044.246a2.16 2.16 0 0 0 1.31-.383c.348-.252.585-.629.664-1.05h.458c-.094.52-.379.988-.801 1.31a2.6 2.6 0 0 1-1.631.502 2.65 2.65 0 0 1-1.33-.332 2.33 2.33 0 0 1-.92-.95 3.3 3.3 0 0 1-.328-1.445c0-.5.111-.994.328-1.445.206-.397.524-.724.913-.943a2.7 2.7 0 0 1 1.342-.327 2.6 2.6 0 0 1 1.324.327c.363.2.661.499.863.86.193.36.295.76.293 1.168-.015.234-.019.41-.034.53m-.667-1.55a1.76 1.76 0 0 0-.757-.725 2.37 2.37 0 0 0-2.067 0 1.9 1.9 0 0 0-.77.725 2.4 2.4 0 0 0-.319 1.189h4.164a2.2 2.2 0 0 0-.251-1.19zm3.102-1.069a2.4 2.4 0 0 1 1.268-.308v.458h-.146a1.92 1.92 0 0 0-1.295.444 1.82 1.82 0 0 0-.517 1.446v3.053h-.432v-5.294h.432v1.094c.117-.37.361-.687.69-.893m6.996 2.618h-4.582c-.002.42.105.834.311 1.202.182.312.45.566.772.731.323.165.681.25 1.044.246.466.017.925-.118 1.309-.383.349-.252.587-.628.664-1.05h.457a2.12 2.12 0 0 1-.8 1.31 2.6 2.6 0 0 1-1.633.502 2.66 2.66 0 0 1-1.329-.332 2.33 2.33 0 0 1-.918-.95 3.35 3.35 0 0 1 0-2.89c.207-.397.525-.725.916-.943a2.7 2.7 0 0 1 1.34-.327c.462-.011.919.102 1.323.327.363.2.662.498.862.86.196.359.297.76.295 1.168-.013.234-.016.41-.031.53m-.669-1.55a1.75 1.75 0 0 0-.76-.725 2.25 2.25 0 0 0-1.033-.237 2.3 2.3 0 0 0-1.033.237 1.9 1.9 0 0 0-.77.725 2.4 2.4 0 0 0-.317 1.188h4.16a2.16 2.16 0 0 0-.247-1.19z" fill="#7E7E7E"></path><path d="M.148 3.1A3.3 3.3 0 0 1 1.204.9 3.3 3.3 0 0 1 3.487.033h47.872a5.58 5.58 0 0 1 3.749.943c1.33 1.158 1.027 2.833 1.042 4.408v1.8q0 2.84.023 5.681.02 4.425.037 8.85v.019l-.071 28.785v2.076c0 2.583-2.394 3.465-4.588 3.403-1.128-.03-2.252-.071-3.378-.071H8.68q-2.323 0-4.653-.017a3.79 3.79 0 0 1-3.235-1.35 6.06 6.06 0 0 1-.706-4.006c.084-1.61.056-3.23.056-4.841V22.988z" fill="#136AFB"></path><path d="M31.701 15.044a5 5 0 0 0-.14-.499 9.35 9.35 0 0 0-3.667-4.646 1.28 1.28 0 0 0-1.022-.185 17.77 17.77 0 0 0-10.207-2.64c-4.68.43-4.961 2.582-5.438 6.106a1.356 1.356 0 0 0-.439 1.847 1.326 1.326 0 0 0 1.674.524 1.325 1.325 0 0 0 .41-2.134c.456-3.444.583-4.361 3.942-4.671a16.4 16.4 0 0 1 9.12 2.368 1.25 1.25 0 0 0 .502.826 5.17 5.17 0 0 1 2.895 4.177 5.16 5.16 0 0 1-2.086 4.632c-.23.246-.352.573-.341.908a16.27 16.27 0 0 1-8.507 4c-3.356.312-3.652-.575-4.745-3.858l-.013-.03a1.3 1.3 0 0 0 .215-.805 1.32 1.32 0 0 0-1.443-1.192 1.33 1.33 0 0 0-1.142.927 1.305 1.305 0 0 0 .79 1.607c1.118 3.381 1.8 5.426 6.472 4.991a17.8 17.8 0 0 0 9.525-4.454 1.3 1.3 0 0 0 .968-.37 9.2 9.2 0 0 0 2.78-5.543c0-.082 0-.155.014-.237z" fill="#fff"></path><path d="M31.566 14.546a17 17 0 0 0-.583-.071l-1.16 2.236q1.018.038 2.023.215a15.16 15.16 0 0 1 8.629 4.742A15.1 15.1 0 0 1 44.4 31.83c0 .289 0 .573-.024.861a15.12 15.12 0 0 1-4.176 9.595 15.18 15.18 0 0 1-9.413 4.6q-.751.073-1.53.071H28.8a15.17 15.17 0 0 1-7.903-2.502 15.1 15.1 0 0 1-5.399-6.28q-.194-.421-.364-.851a4.2 4.2 0 0 1-.958.114h-1.42a17.3 17.3 0 0 0 6.106 8.184 17.34 17.34 0 0 0 17.046 1.926 17.3 17.3 0 0 0 6.985-5.46A17.26 17.26 0 0 0 45.1 25.11a17.3 17.3 0 0 0-5.358-7.059 17.33 17.33 0 0 0-8.157-3.484z" fill="#fff"></path><path d="M13.522 31.548a3.6 3.6 0 0 0-2.504 1 3.585 3.585 0 0 0 2.241 6.168h.263a3.6 3.6 0 0 0 2.543-1.05 3.585 3.585 0 0 0 0-5.076 3.6 3.6 0 0 0-2.543-1.05zm0 5.554a2.01 2.01 0 0 1-1.851-1.238 1.998 1.998 0 0 1 1.464-2.728 2.01 2.01 0 0 1 2.059.853 2 2 0 0 1-.904 2.961 2 2 0 0 1-.768.152M38.2 26.325a.663.663 0 0 0-.948 0l-7.23 7.213a2.1 2.1 0 0 0-1.726 0l-3.425-3.416a.674.674 0 0 0-1.148.48c0 .178.072.348.199.474l3.414 3.41a2.006 2.006 0 0 0 .844 2.628 2.017 2.017 0 0 0 2.985-1.644 2 2 0 0 0-.194-.984l7.221-7.21a.67.67 0 0 0 .009-.951m-8.563 9.495a.686.686 0 0 1-.948 0 .67.67 0 1 1 .948 0M45.8 30.728v1.903a.04.04 0 0 1-.039.039h-4.314a.04.04 0 0 1-.039-.039v-1.903q0-.016.012-.027a.04.04 0 0 1 .027-.012h4.314a.04.04 0 0 1 .039.04m-15.078 17.57h-1.907a.04.04 0 0 1-.027-.011.04.04 0 0 1-.012-.028v-4.305a.04.04 0 0 1 .04-.039h1.906a.04.04 0 0 1 .039.039v4.305a.04.04 0 0 1-.024.037z" fill="#fff"></path><path d="M70.336 4.787h8.472c1.826-.027 3.642.28 5.357.908a11.6 11.6 0 0 1 4.061 2.568 11.1 11.1 0 0 1 2.571 3.966 14.9 14.9 0 0 1 0 10.162 11 11 0 0 1-2.57 3.948 11.7 11.7 0 0 1-4.062 2.551c-1.715.628-3.53.936-5.357.909h-8.472zm8.261 20.54a10.5 10.5 0 0 0 3.641-.576 7.1 7.1 0 0 0 2.625-1.626 6.7 6.7 0 0 0 1.575-2.531 10.6 10.6 0 0 0 0-6.6 6.65 6.65 0 0 0-1.575-2.532 7.1 7.1 0 0 0-2.625-1.625c-1.17-.405-2.402-.6-3.64-.577h-3.534v16.068zm23.94-13.205a9.6 9.6 0 0 1 3.667.68 8.5 8.5 0 0 1 2.877 1.891c.819.82 1.461 1.8 1.885 2.877.911 2.36.911 4.974 0 7.334a8.45 8.45 0 0 1-1.885 2.877 8.5 8.5 0 0 1-2.877 1.891 10.16 10.16 0 0 1-7.316 0 8.5 8.5 0 0 1-4.763-4.768 10.2 10.2 0 0 1 0-7.334 8.47 8.47 0 0 1 4.763-4.768 9.6 9.6 0 0 1 3.649-.68m0 14.01a4.6 4.6 0 0 0 1.7-.332 4.3 4.3 0 0 0 1.451-.96c.434-.44.773-.962.997-1.537a5.98 5.98 0 0 0 0-4.125 4.5 4.5 0 0 0-.997-1.537 4.3 4.3 0 0 0-1.451-.96 4.5 4.5 0 0 0-1.7-.331 4.38 4.38 0 0 0-3.151 1.292 4.5 4.5 0 0 0-.997 1.536 5.97 5.97 0 0 0 0 4.125c.224.575.563 1.098.997 1.537.41.413.898.74 1.436.96a4.5 4.5 0 0 0 1.715.33zm28.319-.7a9.6 9.6 0 0 1-3.132 3.547 8.67 8.67 0 0 1-5.022 1.38 9.6 9.6 0 0 1-3.666-.68 8.5 8.5 0 0 1-2.871-1.903 8.8 8.8 0 0 1-1.89-2.882 9.5 9.5 0 0 1-.682-3.66 9.6 9.6 0 0 1 .682-3.66 8.47 8.47 0 0 1 4.763-4.768 9.6 9.6 0 0 1 3.666-.68 8.8 8.8 0 0 1 5.007 1.363 8.1 8.1 0 0 1 2.974 3.528l-4.2 1.748a4.5 4.5 0 0 0-1.525-1.8 4.13 4.13 0 0 0-2.329-.613 4.3 4.3 0 0 0-1.726.349 4.4 4.4 0 0 0-1.417.979 4.5 4.5 0 0 0-.96 1.537 6.03 6.03 0 0 0 0 4.053 4.36 4.36 0 0 0 2.373 2.517 4.25 4.25 0 0 0 1.725.35 4.4 4.4 0 0 0 2.434-.645 4.5 4.5 0 0 0 1.591-1.87z" fill="#136AFB"></path><path d="M139.538 29.799V9.259h-7.002V4.786h18.729v4.471h-7.001V29.8zm16.028-19.425a2.95 2.95 0 0 1-2.711-1.778 3.04 3.04 0 0 1 0-2.307 2.93 2.93 0 0 1 1.575-1.557 2.99 2.99 0 0 1 3.235.629 2.907 2.907 0 0 1 0 4.157 2.9 2.9 0 0 1-2.099.856m-2.273 19.424V12.684h4.586v17.118zm8.783-17.12h4.314v2.24h.279a6 6 0 0 1 2.185-2.025 6.2 6.2 0 0 1 3.062-.769 5.7 5.7 0 0 1 3.293.909 5.1 5.1 0 0 1 1.889 2.237 7 7 0 0 1 2.273-2.218 6.6 6.6 0 0 1 3.57-.928 6.8 6.8 0 0 1 2.728.506c.739.315 1.393.8 1.908 1.415.52.644.906 1.386 1.134 2.182.264.903.394 1.84.384 2.78V29.8h-4.585v-9.956q0-3.492-2.871-3.496a3.2 3.2 0 0 0-1.614.403 3.6 3.6 0 0 0-1.171 1.076 5.4 5.4 0 0 0-.734 1.625 7.5 7.5 0 0 0-.26 2.026v8.311h-4.586v-9.956q0-3.492-3.021-3.494a2.9 2.9 0 0 0-1.539.403c-.45.271-.833.64-1.122 1.076a5.3 5.3 0 0 0-.698 1.626 8 8 0 0 0-.245 2.025v8.312h-4.573V12.673zm47.041 13.01a9.6 9.6 0 0 1-3.203 3.389 8.9 8.9 0 0 1-4.918 1.291 9.5 9.5 0 0 1-3.621-.68 8.64 8.64 0 0 1-4.797-4.785 9.5 9.5 0 0 1-.68-3.66 9.3 9.3 0 0 1 .667-3.511 8.9 8.9 0 0 1 4.67-4.874 8.6 8.6 0 0 1 3.587-.732 9.3 9.3 0 0 1 3.666.68 7.5 7.5 0 0 1 2.697 1.889 8.1 8.1 0 0 1 1.644 2.845c.382 1.149.57 2.353.558 3.563v.418a3 3 0 0 0-.035.383 2 2 0 0 0-.036.385H196.4c.073.632.27 1.244.58 1.8.276.483.642.91 1.079 1.257.421.332.902.58 1.417.732.511.15 1.042.227 1.575.226a4.47 4.47 0 0 0 2.608-.717 5.2 5.2 0 0 0 1.628-1.8zm-4.165-6.639a3 3 0 0 0-.301-1.014 3.5 3.5 0 0 0-.768-1.046 4.1 4.1 0 0 0-1.26-.805 4.6 4.6 0 0 0-1.803-.314 4.2 4.2 0 0 0-2.589.84 4.4 4.4 0 0 0-1.574 2.34z" fill="#000"></path><path d="M209.397 37.106H70.336v.475h139.061z" fill="#7E7E7E"></path><path d="M213.432 11.908v.448h-1.151v3.77h-.553v-3.77h-1.158v-.448zm4.968.03v4.189h-.552v-3.113l-1.393 3.121h-.391l-1.4-3.128v3.128h-.552v-4.198h.595l1.553 3.462 1.551-3.461z" fill="#000"></path></svg>